<svg width="17" height="15" viewBox="0 0 17 15" fill="none" xmlns="http://www.w3.org/2000/svg">
    <path d="M13.2559 9H11.0059C10.1738 9 9.46484 9.29297 8.87891 9.87891C8.29297 10.4648 8 11.1738 8 12.0059V13.5C8 13.7109 8.07031 13.8867 8.21094 14.0273C8.36328 14.1797 8.54492 14.2559 8.75586 14.2559H15.5059C15.7051 14.2559 15.875 14.1797 16.0156 14.0273C16.168 13.8867 16.2441 13.7109 16.2441 13.5V12.0059C16.2441 11.1738 15.9512 10.4648 15.3652 9.87891C14.7793 9.29297 14.0762 9 13.2559 9ZM15.5059 13.5H8.75586V12.0059C8.75586 11.7012 8.80859 11.4141 8.91406 11.1445C9.03125 10.8633 9.19531 10.6172 9.40625 10.4062C9.62891 10.1953 9.875 10.0371 10.1445 9.93164C10.4141 9.81445 10.7012 9.75586 11.0059 9.75586H13.2559C13.5488 9.75586 13.8301 9.81445 14.0996 9.93164C14.3809 10.0371 14.627 10.1953 14.8379 10.4062C15.0488 10.6289 15.2129 10.875 15.3301 11.1445C15.4473 11.4141 15.5059 11.7012 15.5059 12.0059V13.5ZM9.49414 5.625C9.49414 6.35156 9.75195 6.97266 10.2676 7.48828C10.7832 7.99219 11.4043 8.24414 12.1309 8.24414C12.8574 8.24414 13.4727 7.99219 13.9766 7.48828C14.4922 6.97266 14.75 6.35156 14.75 5.625C14.75 4.89844 14.4922 4.2832 13.9766 3.7793C13.4727 3.26367 12.8574 3.00586 12.1309 3.00586C11.4043 3.00586 10.7832 3.26367 10.2676 3.7793C9.75195 4.2832 9.49414 4.89844 9.49414 5.625ZM12.1309 3.74414C12.6465 3.74414 13.0859 3.93164 13.4492 4.30664C13.8125 4.66992 13.9941 5.10938 13.9941 5.625C13.9941 6.14062 13.8125 6.58594 13.4492 6.96094C13.0859 7.32422 12.6465 7.50586 12.1309 7.50586C11.6152 7.50586 11.1699 7.32422 10.7949 6.96094C10.4316 6.58594 10.25 6.14062 10.25 5.625C10.25 5.10938 10.4316 4.66992 10.7949 4.30664C11.1699 3.93164 11.6152 3.74414 12.1309 3.74414ZM8.36914 1.49414C8.82617 1.49414 9.24219 1.59961 9.61719 1.81055C9.99219 2.02148 10.3027 2.29688 10.5488 2.63672C10.4316 2.69531 10.3203 2.75977 10.2148 2.83008C10.1211 2.90039 10.0215 2.98242 9.91602 3.07617C9.75195 2.81836 9.53516 2.61914 9.26562 2.47852C8.99609 2.32617 8.69727 2.25 8.36914 2.25C7.85352 2.25 7.41406 2.4375 7.05078 2.8125C6.6875 3.17578 6.50586 3.61523 6.50586 4.13086C6.50586 4.64648 6.6875 5.08594 7.05078 5.44922C7.41406 5.8125 7.85352 5.99414 8.36914 5.99414C8.43945 5.99414 8.50391 5.99414 8.5625 5.99414C8.63281 5.98242 8.70312 5.9707 8.77344 5.95898C8.78516 6.08789 8.80273 6.2168 8.82617 6.3457C8.84961 6.46289 8.88477 6.58008 8.93164 6.69727C8.83789 6.70898 8.74414 6.7207 8.65039 6.73242C8.55664 6.74414 8.46289 6.75 8.36914 6.75C7.6543 6.75 7.03906 6.49805 6.52344 5.99414C6.00781 5.47852 5.75 4.85742 5.75 4.13086C5.75 3.4043 6.00195 2.7832 6.50586 2.26758C7.02148 1.75195 7.64258 1.49414 8.36914 1.49414ZM4.99414 10.4941V12.0059H7.24414V12.7441H4.99414C4.79492 12.7441 4.61914 12.6738 4.4668 12.5332C4.32617 12.3809 4.25586 12.2051 4.25586 12.0059V10.4941C4.25586 9.67383 4.54883 8.9707 5.13477 8.38477C5.7207 7.79883 6.42383 7.50586 7.24414 7.50586H9.31836C9.37695 7.59961 9.44141 7.6875 9.51172 7.76953C9.58203 7.85156 9.6582 7.93359 9.74023 8.01562C9.79883 8.07422 9.85742 8.13281 9.91602 8.19141C9.98633 8.23828 10.0508 8.28516 10.1094 8.33203C10.0156 8.30859 9.91602 8.29102 9.81055 8.2793C9.70508 8.25586 9.59961 8.24414 9.49414 8.24414H7.24414C6.95117 8.24414 6.66406 8.30273 6.38281 8.41992C6.11328 8.53711 5.87305 8.70117 5.66211 8.91211C5.45117 9.12305 5.28711 9.36914 5.16992 9.65039C5.05273 9.91992 4.99414 10.2012 4.99414 10.4941ZM2.00586 2.61914C2.00586 1.89258 2.25781 1.27734 2.76172 0.773438C3.27734 0.257812 3.89844 0 4.625 0C5.07031 0 5.48047 0.105469 5.85547 0.316406C6.24219 0.527344 6.55273 0.802734 6.78711 1.14258C6.68164 1.20117 6.57617 1.26562 6.4707 1.33594C6.36523 1.40625 6.26562 1.48242 6.17188 1.56445C6.00781 1.31836 5.78516 1.125 5.50391 0.984375C5.23438 0.832031 4.94141 0.755859 4.625 0.755859C4.10938 0.755859 3.66406 0.9375 3.28906 1.30078C2.92578 1.66406 2.74414 2.10352 2.74414 2.61914C2.74414 3.13477 2.92578 3.58008 3.28906 3.95508C3.66406 4.31836 4.10938 4.5 4.625 4.5C4.69531 4.5 4.75977 4.5 4.81836 4.5C4.88867 4.48828 4.95312 4.47656 5.01172 4.46484C5.02344 4.58203 5.04102 4.70508 5.06445 4.83398C5.09961 4.95117 5.13477 5.06836 5.16992 5.18555C5.08789 5.20898 5 5.22656 4.90625 5.23828C4.8125 5.25 4.71875 5.25586 4.625 5.25586C3.89844 5.25586 3.27734 4.99805 2.76172 4.48242C2.25781 3.9668 2.00586 3.3457 2.00586 2.61914ZM1.25 9V10.4941H3.5V11.25H1.25C1.03906 11.25 0.857422 11.1797 0.705078 11.0391C0.564453 10.8867 0.494141 10.7051 0.494141 10.4941V9C0.494141 8.17969 0.787109 7.47656 1.37305 6.89062C1.9707 6.29297 2.67969 5.99414 3.5 5.99414H5.57422C5.63281 6.08789 5.69727 6.18164 5.76758 6.27539C5.83789 6.35742 5.91406 6.43359 5.99609 6.50391C6.05469 6.5625 6.11328 6.62109 6.17188 6.67969C6.23047 6.73828 6.29492 6.79102 6.36523 6.83789C6.25977 6.81445 6.1543 6.79688 6.04883 6.78516C5.95508 6.76172 5.85547 6.75 5.75 6.75H3.5C3.19531 6.75 2.9082 6.80859 2.63867 6.92578C2.36914 7.04297 2.12891 7.20703 1.91797 7.41797C1.69531 7.62891 1.52539 7.86914 1.4082 8.13867C1.30273 8.4082 1.25 8.69531 1.25 9Z" fill="#56504C"/>
    </svg>
    