<svg width="23" height="21" viewBox="0 0 23 21" fill="none" xmlns="http://www.w3.org/2000/svg">
<path d="M11.5 1.5C11.5846 1.5 11.7201 1.53385 11.9062 1.60156C12.1094 1.65234 12.2786 1.79622 12.4141 2.0332L20.9961 17.0391C21.0807 17.1914 21.14 17.3522 21.1738 17.5215C21.2246 17.6908 21.25 17.86 21.25 18.0293C21.25 18.1986 21.2246 18.3594 21.1738 18.5117C21.14 18.6641 21.0807 18.8164 20.9961 18.9688C20.9115 19.1042 20.8099 19.2311 20.6914 19.3496C20.5729 19.4681 20.446 19.5697 20.3105 19.6543C20.1582 19.7389 19.9974 19.8066 19.8281 19.8574C19.6758 19.8913 19.5065 19.9082 19.3203 19.9082H3.67969C3.49349 19.9082 3.31576 19.8913 3.14648 19.8574C2.99414 19.8066 2.8418 19.7389 2.68945 19.6543C2.55404 19.5697 2.42708 19.4681 2.30859 19.3496C2.1901 19.2311 2.08854 19.1042 2.00391 18.9688C1.91927 18.8164 1.85156 18.6641 1.80078 18.5117C1.76693 18.3594 1.75 18.1986 1.75 18.0293C1.75 17.86 1.76693 17.6908 1.80078 17.5215C1.85156 17.3522 1.91927 17.1914 2.00391 17.0391L10.5859 2.0332C10.7214 1.79622 10.8822 1.65234 11.0684 1.60156C11.2715 1.53385 11.4154 1.5 11.5 1.5ZM11.5 0.408203C11.1445 0.408203 10.7975 0.501302 10.459 0.6875C10.1204 0.856771 9.84961 1.1276 9.64648 1.5L1.06445 16.5059C0.488932 17.5046 0.488932 18.5033 1.06445 19.502C1.6569 20.5007 2.52865 21 3.67969 21H19.3203C20.4714 21 21.3346 20.5007 21.9102 19.502C22.5026 18.5033 22.5111 17.5046 21.9355 16.5059L13.3535 1.5C13.1504 1.1276 12.8796 0.856771 12.541 0.6875C12.2025 0.501302 11.8555 0.408203 11.5 0.408203ZM10.9668 8H12.0332V14.5H10.9668V8ZM12.3125 16.4043C12.3125 16.6243 12.2279 16.819 12.0586 16.9883C11.9062 17.1406 11.7201 17.2168 11.5 17.2168C11.2799 17.2168 11.0853 17.1406 10.916 16.9883C10.7637 16.819 10.6875 16.6243 10.6875 16.4043C10.6875 16.1673 10.7637 15.9727 10.916 15.8203C11.0853 15.668 11.2799 15.5918 11.5 15.5918C11.7201 15.5918 11.9062 15.668 12.0586 15.8203C12.2279 15.9727 12.3125 16.1673 12.3125 16.4043Z" fill="#B71C1C"/>
</svg>
