<svg width="7" height="12" viewBox="0 0 7 12" fill="none" xmlns="http://www.w3.org/2000/svg">
<path d="M0.230469 8.26367L3.23633 11.2695C3.24805 11.2695 3.25391 11.2695 3.25391 11.2695C3.25391 11.2812 3.25977 11.2871 3.27148 11.2871C3.27148 11.2988 3.27148 11.3047 3.27148 11.3047C3.2832 11.3047 3.28906 11.3047 3.28906 11.3047C3.28906 11.3164 3.29492 11.3223 3.30664 11.3223C3.30664 11.3223 3.3125 11.3223 3.32422 11.3223C3.32422 11.334 3.33008 11.3398 3.3418 11.3398C3.3418 11.3398 3.34766 11.3398 3.35938 11.3398C3.35938 11.3516 3.36523 11.3574 3.37695 11.3574C3.37695 11.3574 3.38281 11.3574 3.39453 11.3574C3.39453 11.3574 3.40039 11.3574 3.41211 11.3574C3.41211 11.3574 3.41797 11.3574 3.42969 11.3574C3.42969 11.3691 3.43555 11.375 3.44727 11.375C3.44727 11.375 3.45313 11.375 3.46484 11.375C3.47656 11.375 3.48828 11.375 3.5 11.375C3.51172 11.375 3.52344 11.375 3.53516 11.375C3.53516 11.375 3.54102 11.375 3.55273 11.375C3.55273 11.375 3.55859 11.3691 3.57031 11.3574C3.57031 11.3574 3.57617 11.3574 3.58789 11.3574C3.58789 11.3574 3.59375 11.3574 3.60547 11.3574C3.60547 11.3574 3.61133 11.3574 3.62305 11.3574C3.62305 11.3457 3.62891 11.3398 3.64063 11.3398C3.64063 11.3398 3.64648 11.3398 3.6582 11.3398C3.6582 11.3398 3.66406 11.3398 3.67578 11.3398C3.67578 11.3398 3.67578 11.334 3.67578 11.3223C3.67578 11.3223 3.68164 11.3223 3.69336 11.3223C3.69336 11.3223 3.69336 11.3164 3.69336 11.3047C3.70508 11.3047 3.71094 11.3047 3.71094 11.3047C3.71094 11.3047 3.7168 11.2988 3.72852 11.2871C3.72852 11.2871 3.73438 11.2812 3.74609 11.2695C3.74609 11.2695 3.75195 11.2695 3.76367 11.2695L6.76953 8.26367C6.83984 8.19336 6.875 8.10547 6.875 8C6.875 7.89453 6.83984 7.80664 6.76953 7.73633C6.69922 7.66602 6.61133 7.63086 6.50586 7.63086C6.40039 7.63086 6.3125 7.66602 6.24219 7.73633L3.86914 10.0918V0.494141C3.86914 0.400391 3.83398 0.3125 3.76367 0.230469C3.69336 0.160156 3.60547 0.125 3.5 0.125C3.39453 0.125 3.30664 0.160156 3.23633 0.230469C3.16602 0.3125 3.13086 0.400391 3.13086 0.494141V10.0918L0.757813 7.73633C0.722656 7.70117 0.681641 7.67188 0.634766 7.64844C0.587891 7.63672 0.541016 7.63086 0.494141 7.63086C0.447266 7.63086 0.400391 7.63672 0.353516 7.64844C0.306641 7.67188 0.265625 7.70117 0.230469 7.73633C0.160156 7.80664 0.125 7.89453 0.125 8C0.125 8.10547 0.160156 8.19336 0.230469 8.26367Z" fill="#E04646"/>
</svg>
