<svg width="8" height="12" viewBox="0 0 8 12" fill="none" xmlns="http://www.w3.org/2000/svg">
<path d="M7.26953 3.23633L4.26367 0.230469C4.25195 0.21875 4.24609 0.212891 4.24609 0.212891C4.23438 0.201172 4.22852 0.195312 4.22852 0.195312C4.2168 0.195312 4.21094 0.189453 4.21094 0.177734C4.19922 0.177734 4.19336 0.177734 4.19336 0.177734C4.18164 0.177734 4.17578 0.171875 4.17578 0.160156C4.17578 0.160156 4.16992 0.160156 4.1582 0.160156C4.1582 0.160156 4.15234 0.160156 4.14063 0.160156C4.14063 0.160156 4.14063 0.154297 4.14063 0.142578C4.14063 0.142578 4.13477 0.142578 4.12305 0.142578C4.11133 0.142578 4.10547 0.142578 4.10547 0.142578C4.09375 0.142578 4.08789 0.142578 4.08789 0.142578C4.07617 0.130859 4.07031 0.125 4.07031 0.125C4.07031 0.125 4.06445 0.125 4.05273 0.125C4.05273 0.125 4.04688 0.125 4.03516 0.125C4.02344 0.125 4.01172 0.125 4 0.125C3.98828 0.125 3.97656 0.125 3.96484 0.125C3.96484 0.125 3.95898 0.125 3.94727 0.125C3.93555 0.125 3.92969 0.130859 3.92969 0.142578C3.91797 0.142578 3.91211 0.142578 3.91211 0.142578C3.90039 0.142578 3.89453 0.142578 3.89453 0.142578C3.88281 0.142578 3.87695 0.142578 3.87695 0.142578C3.86523 0.154297 3.85938 0.160156 3.85938 0.160156C3.85938 0.160156 3.85352 0.160156 3.8418 0.160156C3.8418 0.160156 3.83594 0.160156 3.82422 0.160156C3.82422 0.171875 3.82422 0.177734 3.82422 0.177734C3.8125 0.177734 3.80664 0.177734 3.80664 0.177734C3.79492 0.189453 3.78906 0.195312 3.78906 0.195312C3.77734 0.207031 3.77148 0.212891 3.77148 0.212891C3.75977 0.212891 3.75391 0.21875 3.75391 0.230469L0.748047 3.23633C0.677734 3.30664 0.642578 3.38867 0.642578 3.48242C0.642578 3.58789 0.677734 3.68164 0.748047 3.76367C0.818359 3.83398 0.90625 3.86914 1.01172 3.86914C1.11719 3.86914 1.20508 3.83398 1.27539 3.76367L3.63086 1.4082V11.0059C3.63086 11.0996 3.66602 11.1816 3.73633 11.252C3.80664 11.334 3.89453 11.375 4 11.375C4.10547 11.375 4.19336 11.334 4.26367 11.252C4.33398 11.1816 4.36914 11.0996 4.36914 11.0059V1.4082L6.74219 3.76367C6.77734 3.79883 6.81836 3.82227 6.86523 3.83398C6.91211 3.85742 6.95898 3.86914 7.00586 3.86914C7.05273 3.86914 7.09961 3.85742 7.14648 3.83398C7.19336 3.82227 7.23438 3.79883 7.26953 3.76367C7.33984 3.69336 7.375 3.60547 7.375 3.5C7.375 3.39453 7.33984 3.30664 7.26953 3.23633Z" fill="current"/>
</svg>
