<svg width="12" height="16" viewBox="0 0 12 16" fill="none" xmlns="http://www.w3.org/2000/svg">
    <path d="M2.625 3.61914C2.625 4.55664 2.95312 5.35352 3.60938 6.00977C4.26562 6.66602 5.0625 6.99414 6 6.99414C6.9375 6.99414 7.73438 6.66602 8.39062 6.00977C9.04688 5.35352 9.375 4.55664 9.375 3.61914C9.375 2.69336 9.04688 1.90234 8.39062 1.24609C7.73438 0.578125 6.9375 0.244141 6 0.244141C5.0625 0.244141 4.26562 0.578125 3.60938 1.24609C2.95312 1.90234 2.625 2.69336 2.625 3.61914ZM6 6.25586C5.27344 6.25586 4.65234 5.99805 4.13672 5.48242C3.63281 4.9668 3.38086 4.3457 3.38086 3.61914C3.38086 2.89258 3.63281 2.27734 4.13672 1.77344C4.65234 1.25781 5.27344 1 6 1C6.72656 1 7.3418 1.25781 7.8457 1.77344C8.36133 2.27734 8.61914 2.89258 8.61914 3.61914C8.61914 4.3457 8.36133 4.9668 7.8457 5.48242C7.3418 5.99805 6.72656 6.25586 6 6.25586ZM5.61328 9.50781L4.52344 13.375C4.5 13.4922 4.5 13.6094 4.52344 13.7266C4.54688 13.8438 4.59375 13.9492 4.66406 14.043L5.41992 14.9746C5.57227 15.1621 5.76562 15.2559 6 15.2559C6.23438 15.2559 6.42773 15.1621 6.58008 14.9746L7.33594 14.043C7.40625 13.9492 7.45312 13.8438 7.47656 13.7266C7.5 13.6094 7.5 13.4922 7.47656 13.375L6.38672 9.50781C6.49219 9.44922 6.58008 9.36719 6.65039 9.26172C6.7207 9.14453 6.75586 9.01562 6.75586 8.875C6.75586 8.66406 6.67969 8.48828 6.52734 8.34766C6.38672 8.19531 6.21094 8.11914 6 8.11914C5.78906 8.11914 5.60742 8.19531 5.45508 8.34766C5.31445 8.48828 5.24414 8.66406 5.24414 8.875C5.24414 9.01562 5.2793 9.14453 5.34961 9.26172C5.41992 9.36719 5.50781 9.44922 5.61328 9.50781ZM4.54102 9.24414H4.50586C3.97852 9.24414 3.49219 9.34375 3.04688 9.54297C2.58984 9.74219 2.19141 10.0117 1.85156 10.3516C1.51172 10.6914 1.24219 11.0898 1.04297 11.5469C0.84375 11.9922 0.744141 12.4785 0.744141 13.0059V14.1309C0.744141 14.2363 0.779297 14.3242 0.849609 14.3945C0.931641 14.4648 1.02539 14.5 1.13086 14.5H4.06641C4.07812 14.5117 4.08398 14.5176 4.08398 14.5176L4.66406 15.2559H1.13086C0.814453 15.2559 0.544922 15.1445 0.322266 14.9219C0.111328 14.6992 0.00585938 14.4355 0.00585938 14.1309V13.0059C0.00585938 12.3848 0.123047 11.7988 0.357422 11.248C0.591797 10.6973 0.908203 10.2227 1.30664 9.82422C1.7168 9.41406 2.19727 9.0918 2.74805 8.85742C3.29883 8.62305 3.88477 8.50586 4.50586 8.50586H4.54102C4.5293 8.56445 4.51758 8.62305 4.50586 8.68164C4.50586 8.74023 4.50586 8.80469 4.50586 8.875C4.50586 8.94531 4.50586 9.00977 4.50586 9.06836C4.51758 9.12695 4.5293 9.18555 4.54102 9.24414ZM7.45898 9.24414H7.49414C8.02148 9.24414 8.50781 9.34375 8.95312 9.54297C9.41016 9.74219 9.80859 10.0117 10.1484 10.3516C10.4883 10.6914 10.7578 11.0898 10.957 11.5469C11.1562 11.9922 11.2559 12.4785 11.2559 13.0059V14.1309C11.2559 14.2363 11.2148 14.3242 11.1328 14.3945C11.0625 14.4648 10.9746 14.5 10.8691 14.5H7.93359C7.93359 14.5 7.92773 14.5 7.91602 14.5C7.91602 14.5117 7.91602 14.5176 7.91602 14.5176L7.33594 15.2559H10.8691C11.1855 15.2559 11.4492 15.1445 11.6602 14.9219C11.8828 14.6992 11.9941 14.4355 11.9941 14.1309V13.0059C11.9941 12.3848 11.877 11.7988 11.6426 11.248C11.4082 10.6973 11.0859 10.2227 10.6758 9.82422C10.2773 9.41406 9.80273 9.0918 9.25195 8.85742C8.70117 8.62305 8.11523 8.50586 7.49414 8.50586H7.45898C7.4707 8.56445 7.47656 8.62305 7.47656 8.68164C7.48828 8.74023 7.49414 8.80469 7.49414 8.875C7.49414 8.94531 7.48828 9.00977 7.47656 9.06836C7.47656 9.12695 7.4707 9.18555 7.45898 9.24414Z" fill="#56504C"/>
    </svg>
    