<svg width="24" height="24" viewBox="0 0 24 24" fill="none" xmlns="http://www.w3.org/2000/svg">
<path d="M21.6328 16.8516L13.7109 3C13.3359 2.32813 12.7656 1.99219 12 1.99219C11.2344 1.99219 10.6641 2.32813 10.2891 3L2.36719 16.8516C1.83594 17.7734 1.83594 18.6953 2.36719 19.6172C2.91406 20.5391 3.71875 21 4.78125 21H19.2188C20.2812 21 21.0781 20.5391 21.6094 19.6172C22.1562 18.6953 22.1641 17.7734 21.6328 16.8516ZM11.5078 9H12.4922V15H11.5078V9ZM12 17.5078C11.7969 17.5078 11.6172 17.4375 11.4609 17.2969C11.3203 17.1406 11.25 16.9609 11.25 16.7578C11.25 16.5391 11.3203 16.3594 11.4609 16.2188C11.6172 16.0781 11.7969 16.0078 12 16.0078C12.2031 16.0078 12.375 16.0781 12.5156 16.2188C12.6719 16.3594 12.75 16.5391 12.75 16.7578C12.75 16.9609 12.6719 17.1406 12.5156 17.2969C12.375 17.4375 12.2031 17.5078 12 17.5078Z" fill="#B71C1C
"/>
</svg>
