<svg width="32" height="32" viewBox="0 0 32 32" fill="none" xmlns="http://www.w3.org/2000/svg">
<path d="M16 6C16.6094 6 17.2031 6.0625 17.7812 6.1875C18.375 6.29688 18.9531 6.46875 19.5156 6.70312C20.0469 6.9375 20.5469 7.21875 21.0156 7.54688C21.5 7.85938 21.9531 8.22656 22.375 8.64844C22.7812 9.05469 23.1406 9.5 23.4531 9.98438C23.7812 10.4531 24.0625 10.9609 24.2969 11.5078C24.5312 12.0547 24.7031 12.625 24.8125 13.2188C24.9375 13.7969 25 14.3906 25 15C25 15.6094 24.9375 16.2109 24.8125 16.8047C24.7031 17.3828 24.5312 17.9453 24.2969 18.4922C24.0625 19.0391 23.7812 19.5547 23.4531 20.0391C23.1406 20.5078 22.7812 20.9453 22.375 21.3516C21.9531 21.7734 21.5 22.1484 21.0156 22.4766C20.5469 22.7891 20.0469 23.0625 19.5156 23.2969C18.9531 23.5312 18.375 23.7109 17.7812 23.8359C17.2031 23.9453 16.6094 24 16 24C15.3906 24 14.7891 23.9453 14.1953 23.8359C13.6172 23.7109 13.0547 23.5312 12.5078 23.2969C11.9609 23.0625 11.4453 22.7891 10.9609 22.4766C10.4922 22.1484 10.0547 21.7734 9.64844 21.3516C9.22656 20.9453 8.85156 20.5078 8.52344 20.0391C8.21094 19.5547 7.9375 19.0391 7.70312 18.4922C7.46875 17.9453 7.28906 17.3828 7.16406 16.8047C7.05469 16.2109 7 15.6094 7 15C7 14.3906 7.05469 13.7969 7.16406 13.2188C7.28906 12.625 7.46875 12.0547 7.70312 11.5078C7.9375 10.9609 8.21094 10.4531 8.52344 9.98438C8.85156 9.5 9.22656 9.05469 9.64844 8.64844C10.0547 8.22656 10.4922 7.85938 10.9609 7.54688C11.4453 7.21875 11.9609 6.9375 12.5078 6.70312C13.0547 6.46875 13.6172 6.29688 14.1953 6.1875C14.7891 6.0625 15.3906 6 16 6ZM16 4.99219C14.625 4.99219 13.3281 5.25781 12.1094 5.78906C10.8906 6.30469 9.82812 7.01562 8.92188 7.92188C8.03125 8.82812 7.32031 9.89062 6.78906 11.1094C6.25781 12.3281 5.99219 13.625 5.99219 15C5.99219 16.375 6.25781 17.6719 6.78906 18.8906C7.32031 20.1094 8.03125 21.1719 8.92188 22.0781C9.82812 22.9844 10.8906 23.6953 12.1094 24.2109C13.3281 24.7422 14.625 25.0078 16 25.0078C17.375 25.0078 18.6719 24.7422 19.8906 24.2109C21.1094 23.6953 22.1719 22.9844 23.0781 22.0781C23.9844 21.1719 24.6953 20.1094 25.2109 18.8906C25.7422 17.6719 26.0078 16.375 26.0078 15C26.0078 13.625 25.7422 12.3281 25.2109 11.1094C24.6953 9.89062 23.9844 8.82812 23.0781 7.92188C22.1719 7.01562 21.1094 6.30469 19.8906 5.78906C18.6719 5.25781 17.375 4.99219 16 4.99219ZM18.2734 9.84375C17.9453 9.53125 17.5938 9.29688 17.2188 9.14062C16.8438 8.98438 16.4297 8.90625 15.9766 8.90625C15.6172 8.90625 15.2578 8.96875 14.8984 9.09375C14.5547 9.20312 14.2422 9.35938 13.9609 9.5625C13.7266 9.75 13.4922 10.0234 13.2578 10.3828C13.0234 10.7266 12.9062 11.1797 12.9062 11.7422C12.9062 11.8359 12.9219 11.9297 12.9531 12.0234C12.9844 12.1172 13.0391 12.1875 13.1172 12.2344C13.1641 12.2969 13.2266 12.3438 13.3047 12.375C13.3828 12.3906 13.4609 12.3906 13.5391 12.375C13.6641 12.3594 13.7812 12.3125 13.8906 12.2344C14.0156 12.1406 14.0703 12.0078 14.0547 11.8359C14.0547 11.6172 14.0859 11.4141 14.1484 11.2266C14.2266 11.0391 14.3438 10.8672 14.5 10.7109C14.6719 10.5234 14.8906 10.375 15.1562 10.2656C15.4375 10.1406 15.7109 10.0781 15.9766 10.0781C16.5547 10.0781 17.0234 10.2656 17.3828 10.6406C17.7578 11 17.9453 11.4688 17.9453 12.0469C17.9453 12.4375 17.8359 12.7578 17.6172 13.0078C17.3984 13.2422 17.1172 13.4609 16.7734 13.6641C16.7734 13.6641 16.7656 13.6719 16.75 13.6875C16.75 13.6875 16.7422 13.6875 16.7266 13.6875C16.6016 13.75 16.4297 13.8594 16.2109 14.0156C16.0078 14.1562 15.8047 14.3516 15.6016 14.6016C15.3359 14.9297 15.1484 15.2969 15.0391 15.7031C14.9297 16.1094 14.8906 16.5547 14.9219 17.0391C14.9375 17.1484 14.9609 17.25 14.9922 17.3438C15.0391 17.4219 15.0938 17.4844 15.1562 17.5312C15.2188 17.5781 15.2734 17.6172 15.3203 17.6484C15.3828 17.6641 15.4531 17.6719 15.5312 17.6719C15.5469 17.6719 15.5625 17.6719 15.5781 17.6719C15.5938 17.6562 15.6094 17.6484 15.625 17.6484C15.6875 17.6484 15.75 17.6328 15.8125 17.6016C15.875 17.5547 15.9297 17.5078 15.9766 17.4609C16.0234 17.3984 16.0547 17.3281 16.0703 17.25C16.0859 17.1719 16.0859 17.0859 16.0703 16.9922C16.0078 16.1797 16.1562 15.6094 16.5156 15.2812C16.8906 14.9375 17.1719 14.7188 17.3594 14.625C17.375 14.6094 17.3906 14.6016 17.4062 14.6016C17.4219 14.5859 17.4375 14.5781 17.4531 14.5781C18 14.25 18.4141 13.875 18.6953 13.4531C18.9766 13.0312 19.1172 12.5625 19.1172 12.0469C19.1172 11.5938 19.0391 11.1797 18.8828 10.8047C18.7422 10.4297 18.5391 10.1094 18.2734 9.84375ZM15.5078 21C15.2266 21 14.9844 20.9062 14.7812 20.7188C14.5938 20.5156 14.5 20.2734 14.5 19.9922C14.5 19.7266 14.5938 19.5 14.7812 19.3125C14.9844 19.1094 15.2266 19.0078 15.5078 19.0078C15.7734 19.0078 16 19.1094 16.1875 19.3125C16.3906 19.5 16.4922 19.7266 16.4922 19.9922C16.4922 20.2734 16.3906 20.5156 16.1875 20.7188C16 20.9062 15.7734 21 15.5078 21Z" fill="white"/>
</svg>
