<svg width="15" height="16" viewBox="0 0 15 16" fill="none" xmlns="http://www.w3.org/2000/svg">
    <path d="M5.38086 13.0059C5.27539 13.0059 5.18164 12.9707 5.09961 12.9004C5.0293 12.8184 4.99414 12.7246 4.99414 12.6191V6.25586H5.75V12.6191C5.75 12.7246 5.71484 12.8184 5.64453 12.9004C5.57422 12.9707 5.48633 13.0059 5.38086 13.0059ZM8 12.6191V6.25586H7.24414V12.6191C7.24414 12.7246 7.2793 12.8184 7.34961 12.9004C7.43164 12.9707 7.52539 13.0059 7.63086 13.0059C7.72461 13.0059 7.80664 12.9707 7.87695 12.9004C7.95898 12.8184 8 12.7246 8 12.6191ZM10.25 12.6191V6.25586H9.49414V12.6191C9.49414 12.7246 9.5293 12.8184 9.59961 12.9004C9.68164 12.9707 9.77539 13.0059 9.88086 13.0059C9.97461 13.0059 10.0566 12.9707 10.127 12.9004C10.209 12.8184 10.25 12.7246 10.25 12.6191ZM14.75 3.25V4.74414C14.75 4.95508 14.6738 5.13672 14.5215 5.28906C14.3809 5.42969 14.2051 5.5 13.9941 5.5H1.25C1.03906 5.5 0.857422 5.42969 0.705078 5.28906C0.564453 5.13672 0.494141 4.95508 0.494141 4.74414V3.25C0.494141 3.03906 0.564453 2.86328 0.705078 2.72266C0.857422 2.57031 1.03906 2.49414 1.25 2.49414H4.25586V1C4.25586 0.789062 4.32617 0.613281 4.4668 0.472656C4.61914 0.320312 4.79492 0.244141 4.99414 0.244141H10.25C10.4609 0.244141 10.6367 0.320312 10.7773 0.472656C10.9297 0.613281 11.0059 0.789062 11.0059 1V2.49414H13.9941C14.2051 2.49414 14.3809 2.57031 14.5215 2.72266C14.6738 2.86328 14.75 3.03906 14.75 3.25ZM4.99414 2.49414H10.25V1H4.99414V2.49414ZM13.9941 3.25H1.25V4.74414H13.9941V3.25ZM12.5 6.25586V13.0059C12.5 13.416 12.3535 13.7676 12.0605 14.0605C11.7676 14.3535 11.416 14.5 11.0059 14.5H4.25586C3.83398 14.5 3.47656 14.3535 3.18359 14.0605C2.89062 13.7676 2.74414 13.416 2.74414 13.0059V6.25586H2.00586V13.0059C2.00586 13.627 2.22266 14.1543 2.65625 14.5879C3.10156 15.0332 3.63477 15.2559 4.25586 15.2559H11.0059C11.627 15.2559 12.1543 15.0332 12.5879 14.5879C13.0332 14.1543 13.2559 13.627 13.2559 13.0059V6.25586H12.5Z" fill="#000512"/>
    </svg>
    