<svg width="16" height="16" viewBox="0 0 16 16" fill="none" xmlns="http://www.w3.org/2000/svg">
    <path d="M11.7441 5.86914C11.7441 5.0957 11.5977 4.36914 11.3047 3.68945C11.0117 2.99805 10.6074 2.40039 10.0918 1.89648C9.58789 1.39258 8.99609 0.988281 8.31641 0.683594C7.63672 0.390625 6.9043 0.244141 6.11914 0.244141C5.3457 0.244141 4.61914 0.390625 3.93945 0.683594C3.24805 0.988281 2.65039 1.39258 2.14648 1.89648C1.64258 2.40039 1.23828 2.99805 0.933594 3.68945C0.640625 4.36914 0.494141 5.0957 0.494141 5.86914C0.494141 6.6543 0.640625 7.38672 0.933594 8.06641C1.23828 8.74609 1.64258 9.34375 2.14648 9.85938C2.65039 10.3633 3.24805 10.7617 3.93945 11.0547C4.61914 11.3477 5.3457 11.4941 6.11914 11.4941C6.9043 11.4941 7.63672 11.3477 8.31641 11.0547C8.99609 10.7617 9.58789 10.3633 10.0918 9.85938C10.6074 9.34375 11.0117 8.74609 11.3047 8.06641C11.5977 7.38672 11.7441 6.6543 11.7441 5.86914ZM8.01758 10.3691C7.72461 10.498 7.41406 10.5977 7.08594 10.668C6.76953 10.7266 6.44727 10.7559 6.11914 10.7559C5.79102 10.7559 5.46875 10.7266 5.15234 10.668C4.83594 10.5977 4.52539 10.498 4.2207 10.3691C3.93945 10.2402 3.66406 10.0938 3.39453 9.92969C3.13672 9.75391 2.89648 9.54883 2.67383 9.31445C2.45117 9.0918 2.25195 8.85156 2.07617 8.59375C1.90039 8.33594 1.75391 8.06055 1.63672 7.76758C1.50781 7.47461 1.4082 7.16992 1.33789 6.85352C1.2793 6.52539 1.25 6.19727 1.25 5.86914C1.25 5.54102 1.2793 5.21875 1.33789 4.90234C1.4082 4.58594 1.50781 4.27539 1.63672 3.9707C1.75391 3.68945 1.90039 3.41992 2.07617 3.16211C2.25195 2.89258 2.45117 2.64648 2.67383 2.42383C2.89648 2.20117 3.13672 2.00195 3.39453 1.82617C3.66406 1.65039 3.93945 1.50391 4.2207 1.38672C4.52539 1.25781 4.83594 1.16406 5.15234 1.10547C5.46875 1.03516 5.79102 1 6.11914 1C6.44727 1 6.76953 1.03516 7.08594 1.10547C7.41406 1.16406 7.72461 1.25781 8.01758 1.38672C8.31055 1.50391 8.58594 1.65039 8.84375 1.82617C9.10156 2.00195 9.3418 2.20117 9.56445 2.42383C9.79883 2.64648 9.99805 2.89258 10.1621 3.16211C10.3379 3.41992 10.4902 3.68945 10.6191 3.9707C10.748 4.27539 10.8418 4.58594 10.9004 4.90234C10.9707 5.21875 11.0059 5.54102 11.0059 5.86914C11.0059 6.19727 10.9707 6.52539 10.9004 6.85352C10.8418 7.16992 10.748 7.47461 10.6191 7.76758C10.4902 8.06055 10.3379 8.33594 10.1621 8.59375C9.99805 8.85156 9.79883 9.0918 9.56445 9.31445C9.3418 9.54883 9.10156 9.75391 8.84375 9.92969C8.58594 10.0938 8.31055 10.2402 8.01758 10.3691ZM15.2773 13.9023L14.1523 15.0273C14.0117 15.1797 13.8359 15.2559 13.625 15.2559C13.4141 15.2559 13.2383 15.1797 13.0977 15.0273L9.37109 11.3711C9.47656 11.3008 9.58203 11.2305 9.6875 11.1602C9.79297 11.0898 9.89844 11.0137 10.0039 10.9316L13.625 14.5L14.75 13.375L11.1816 9.75391C11.2637 9.64844 11.3398 9.54297 11.4102 9.4375C11.4805 9.33203 11.5508 9.22656 11.6211 9.12109L15.2773 12.8477C15.4297 12.9883 15.5059 13.1641 15.5059 13.375C15.5059 13.5859 15.4297 13.7617 15.2773 13.9023Z" fill="#56504C"/>
    </svg>
    