<svg width="12" height="16" viewBox="0 0 12 16" fill="none" xmlns="http://www.w3.org/2000/svg">
    <path d="M2.99414 4.50586H2.25586C2.25586 4.50586 2.25586 4.45898 2.25586 4.36523C2.25586 4.27148 2.25586 4.18945 2.25586 4.11914C2.25586 3.19336 2.58398 2.40234 3.24023 1.74609C3.89648 1.07812 4.69336 0.744141 5.63086 0.744141C6.55664 0.744141 7.34766 1.07812 8.00391 1.74609C8.67188 2.40234 9.00586 3.19336 9.00586 4.11914C9.00586 4.18945 9.00586 4.27148 9.00586 4.36523C9.00586 4.45898 9.00586 4.50586 9.00586 4.50586H8.25C8.25 4.50586 8.25 4.45898 8.25 4.36523C8.25 4.27148 8.25 4.18945 8.25 4.11914C8.25 3.39258 7.99219 2.77734 7.47656 2.27344C6.97266 1.75781 6.35742 1.5 5.63086 1.5C4.9043 1.5 4.2832 1.75781 3.76758 2.27344C3.25195 2.77734 2.99414 3.39258 2.99414 4.11914C2.99414 4.18945 2.99414 4.27148 2.99414 4.36523C2.99414 4.45898 2.99414 4.50586 2.99414 4.50586ZM6.75586 10.1309C6.75586 9.81445 6.64453 9.55078 6.42188 9.33984C6.19922 9.11719 5.93555 9.00586 5.63086 9.00586C5.31445 9.00586 5.04492 9.11719 4.82227 9.33984C4.61133 9.55078 4.50586 9.81445 4.50586 10.1309C4.50586 10.3301 4.55273 10.5176 4.64648 10.6934C4.75195 10.8574 4.88672 10.9922 5.05078 11.0977L4.50586 12.75H6.75586L6.19336 11.0977C6.35742 10.9922 6.49219 10.8574 6.59766 10.6934C6.70312 10.5176 6.75586 10.3301 6.75586 10.1309ZM11.2559 7.49414V13.5059C11.2559 14.127 11.0332 14.6543 10.5879 15.0879C10.1543 15.5332 9.62695 15.7559 9.00586 15.7559H2.25586C1.63477 15.7559 1.10156 15.5332 0.65625 15.0879C0.222656 14.6543 0.00585938 14.127 0.00585938 13.5059V7.49414C0.00585938 6.87305 0.222656 6.3457 0.65625 5.91211C1.10156 5.4668 1.63477 5.24414 2.25586 5.24414H9.00586C9.62695 5.24414 10.1543 5.4668 10.5879 5.91211C11.0332 6.3457 11.2559 6.87305 11.2559 7.49414ZM10.5 7.49414C10.5 7.08398 10.3535 6.73242 10.0605 6.43945C9.76758 6.14648 9.41602 6 9.00586 6H2.25586C1.83398 6 1.47656 6.14648 1.18359 6.43945C0.890625 6.73242 0.744141 7.08398 0.744141 7.49414V13.5059C0.744141 13.916 0.890625 14.2676 1.18359 14.5605C1.47656 14.8535 1.83398 15 2.25586 15H9.00586C9.41602 15 9.76758 14.8535 10.0605 14.5605C10.3535 14.2676 10.5 13.916 10.5 13.5059V7.49414Z" fill="#000512"/>
    </svg>
    