<svg width="16" height="16" viewBox="0 0 16 16" fill="none" xmlns="http://www.w3.org/2000/svg">
    <path d="M13.0059 4.74414H6.25586C5.63477 4.74414 5.10156 4.9668 4.65625 5.41211C4.22266 5.8457 4.00586 6.37305 4.00586 6.99414V13.0059C4.00586 13.627 4.22266 14.1543 4.65625 14.5879C5.10156 15.0332 5.63477 15.2559 6.25586 15.2559H13.0059C13.627 15.2559 14.1543 15.0332 14.5879 14.5879C15.0332 14.1543 15.2559 13.627 15.2559 13.0059V6.99414C15.2559 6.37305 15.0332 5.8457 14.5879 5.41211C14.1543 4.9668 13.627 4.74414 13.0059 4.74414ZM14.5 13.0059C14.5 13.416 14.3535 13.7676 14.0605 14.0605C13.7676 14.3535 13.416 14.5 13.0059 14.5H6.25586C5.83398 14.5 5.47656 14.3535 5.18359 14.0605C4.89062 13.7676 4.74414 13.416 4.74414 13.0059V6.99414C4.74414 6.58398 4.89062 6.23242 5.18359 5.93945C5.47656 5.64648 5.83398 5.5 6.25586 5.5H13.0059C13.416 5.5 13.7676 5.64648 14.0605 5.93945C14.3535 6.23242 14.5 6.58398 14.5 6.99414V13.0059ZM10.1934 10.5977L10.7559 12.25H8.50586L9.05078 10.5977C8.88672 10.4922 8.75195 10.3574 8.64648 10.1934C8.55273 10.0176 8.50586 9.83008 8.50586 9.63086C8.50586 9.31445 8.61133 9.05078 8.82227 8.83984C9.04492 8.61719 9.31445 8.50586 9.63086 8.50586C9.93555 8.50586 10.1992 8.61719 10.4219 8.83984C10.6445 9.05078 10.7559 9.31445 10.7559 9.63086C10.7559 9.83008 10.7031 10.0176 10.5977 10.1934C10.4922 10.3574 10.3574 10.4922 10.1934 10.5977ZM6.99414 4.00586H6.25586C6.25586 4.00586 6.25586 3.95898 6.25586 3.86523C6.25586 3.77148 6.25586 3.68945 6.25586 3.61914C6.25586 2.89258 5.99805 2.27734 5.48242 1.77344C4.9668 1.25781 4.3457 1 3.61914 1C2.89258 1 2.27148 1.25781 1.75586 1.77344C1.25195 2.27734 1 2.89258 1 3.61914C1 3.68945 1 3.77148 1 3.86523C1 3.95898 1 4.00586 1 4.00586H0.244141C0.244141 4.00586 0.244141 3.95898 0.244141 3.86523C0.244141 3.77148 0.244141 3.68945 0.244141 3.61914C0.244141 2.69336 0.572266 1.90234 1.22852 1.24609C1.89648 0.578125 2.69336 0.244141 3.61914 0.244141C4.55664 0.244141 5.35352 0.578125 6.00977 1.24609C6.66602 1.90234 6.99414 2.69336 6.99414 3.61914C6.99414 3.68945 6.99414 3.77148 6.99414 3.86523C6.99414 3.95898 6.99414 4.00586 6.99414 4.00586Z" fill="#000512"/>
    </svg>
    