<svg width="24" height="24" viewBox="0 0 24 24" fill="none" xmlns="http://www.w3.org/2000/svg">
<path d="M15.6518 7.27867C15.7284 7.22113 15.8159 7.19811 15.9144 7.20962C16.0129 7.23263 16.0895 7.29018 16.1442 7.38224L18.9343 11.8015C18.9453 11.8015 18.9508 11.8015 18.9508 11.8015C18.9508 11.813 18.9508 11.8187 18.9508 11.8187C18.9617 11.8187 18.9672 11.8187 18.9672 11.8187C18.9672 11.8303 18.9672 11.836 18.9672 11.836C18.9672 11.8475 18.9672 11.8533 18.9672 11.8533C18.9781 11.8648 18.9836 11.8705 18.9836 11.8705C18.9836 11.882 18.9836 11.8878 18.9836 11.8878C18.9836 11.8993 18.9836 11.9051 18.9836 11.9051C18.9945 11.9051 19 11.9051 19 11.9051C19 11.9051 19 11.9108 19 11.9223C19 11.9223 19 11.9281 19 11.9396C19 11.9396 19 11.9453 19 11.9568C19 11.9684 19 11.9741 19 11.9741C19 11.9741 19 11.9799 19 11.9914C19 12.0029 19 12.0086 19 12.0086C19 12.0201 19 12.0259 19 12.0259C19 12.0374 19 12.0432 19 12.0432C19 12.0547 19 12.0604 19 12.0604C19 12.0719 19 12.0777 19 12.0777C19 12.0892 19 12.0949 19 12.0949C19 12.0949 18.9945 12.0949 18.9836 12.0949C18.9836 12.1065 18.9836 12.1122 18.9836 12.1122C18.9836 12.1237 18.9836 12.1295 18.9836 12.1295C18.9836 12.141 18.9836 12.1467 18.9836 12.1467C18.9836 12.1467 18.9781 12.1467 18.9672 12.1467C18.9672 12.1467 18.9672 12.1525 18.9672 12.164C18.9672 12.1755 18.9672 12.1813 18.9672 12.1813C18.9672 12.1813 18.9617 12.1813 18.9508 12.1813C18.9508 12.1813 18.9508 12.187 18.9508 12.1985C18.9508 12.1985 18.9453 12.2043 18.9343 12.2158L16.1442 16.635C16.0895 16.7156 16.0129 16.7616 15.9144 16.7731C15.8159 16.7961 15.7284 16.7789 15.6518 16.7213C15.5971 16.6868 15.5588 16.6408 15.5369 16.5832C15.515 16.5372 15.5041 16.4854 15.5041 16.4279C15.5041 16.3933 15.5096 16.3588 15.5205 16.3243C15.5315 16.2898 15.5479 16.2552 15.5698 16.2207L17.9824 12.3711L8.85698 12.3711C8.7585 12.3711 8.67097 12.3309 8.59437 12.2503C8.52872 12.1813 8.4959 12.1007 8.4959 12.0086C8.4959 11.9051 8.52872 11.813 8.59437 11.7324C8.67097 11.6634 8.7585 11.6289 8.85698 11.6289L17.9824 11.6289L15.5698 7.79655C15.5479 7.76202 15.5315 7.7275 15.5205 7.69297C15.5096 7.65845 15.5041 7.62392 15.5041 7.5894C15.5041 7.53185 15.515 7.47431 15.5369 7.41677C15.5698 7.35923 15.6081 7.31319 15.6518 7.27867ZM8.4959 18.603C8.48496 18.4994 8.44666 18.4131 8.38101 18.344C8.31536 18.2865 8.23329 18.2577 8.13482 18.2577L5.70575 18.2577L5.70575 5.74229L8.13482 5.74229C8.2333 5.74229 8.31536 5.70777 8.38101 5.63872C8.44666 5.58118 8.48496 5.50637 8.4959 5.4143C8.50684 5.29922 8.47401 5.2014 8.39742 5.12084C8.33177 5.04028 8.24971 5 8.15123 5L5.70575 5C5.50879 5 5.3392 5.06905 5.19695 5.20715C5.06565 5.35676 5 5.53514 5 5.74229L5 18.2577C5 18.4649 5.06565 18.6375 5.19695 18.7756C5.3392 18.9252 5.50879 19 5.70575 19L8.15123 19C8.24971 19 8.33177 18.9597 8.39742 18.8792C8.47401 18.7986 8.50684 18.7065 8.4959 18.603Z" fill="white" stroke="white" stroke-width="0.5" stroke-linejoin="round"/>
</svg>
