<svg width="24" height="25" viewBox="0 0 24 25" fill="none" xmlns="http://www.w3.org/2000/svg">
<path d="M15.6518 8.15147C15.7284 8.09393 15.8159 8.07091 15.9144 8.08242C16.0129 8.10544 16.0895 8.16298 16.1442 8.25505L18.9343 12.6743C18.9453 12.6743 18.9508 12.6743 18.9508 12.6743C18.9508 12.6858 18.9508 12.6915 18.9508 12.6915C18.9617 12.6915 18.9672 12.6915 18.9672 12.6915C18.9672 12.7031 18.9672 12.7088 18.9672 12.7088C18.9672 12.7203 18.9672 12.7261 18.9672 12.7261C18.9781 12.7376 18.9836 12.7433 18.9836 12.7433C18.9836 12.7548 18.9836 12.7606 18.9836 12.7606C18.9836 12.7721 18.9836 12.7779 18.9836 12.7779C18.9945 12.7779 19 12.7779 19 12.7779C19 12.7779 19 12.7836 19 12.7951C19 12.7951 19 12.8009 19 12.8124C19 12.8124 19 12.8181 19 12.8296C19 12.8412 19 12.8469 19 12.8469C19 12.8469 19 12.8527 19 12.8642C19 12.8757 19 12.8814 19 12.8814C19 12.8929 19 12.8987 19 12.8987C19 12.9102 19 12.916 19 12.916C19 12.9275 19 12.9332 19 12.9332C19 12.9447 19 12.9505 19 12.9505C19 12.962 19 12.9677 19 12.9677C19 12.9677 18.9945 12.9677 18.9836 12.9677C18.9836 12.9793 18.9836 12.985 18.9836 12.985C18.9836 12.9965 18.9836 13.0023 18.9836 13.0023C18.9836 13.0138 18.9836 13.0195 18.9836 13.0195C18.9836 13.0195 18.9781 13.0195 18.9672 13.0195C18.9672 13.0195 18.9672 13.0253 18.9672 13.0368C18.9672 13.0483 18.9672 13.0541 18.9672 13.0541C18.9672 13.0541 18.9617 13.0541 18.9508 13.0541C18.9508 13.0541 18.9508 13.0598 18.9508 13.0713C18.9508 13.0713 18.9453 13.0771 18.9343 13.0886L16.1442 17.5078C16.0895 17.5884 16.0129 17.6344 15.9144 17.6459C15.8159 17.6689 15.7284 17.6517 15.6518 17.5941C15.5971 17.5596 15.5588 17.5136 15.5369 17.456C15.515 17.41 15.5041 17.3582 15.5041 17.3007C15.5041 17.2661 15.5096 17.2316 15.5205 17.1971C15.5315 17.1626 15.5479 17.128 15.5698 17.0935L17.9824 13.2439L8.85698 13.2439C8.7585 13.2439 8.67097 13.2037 8.59437 13.1231C8.52872 13.0541 8.4959 12.9735 8.4959 12.8814C8.4959 12.7779 8.52872 12.6858 8.59437 12.6052C8.67097 12.5362 8.7585 12.5017 8.85698 12.5017L17.9824 12.5017L15.5698 8.66935C15.5479 8.63482 15.5315 8.6003 15.5205 8.56577C15.5096 8.53125 15.5041 8.49672 15.5041 8.4622C15.5041 8.40466 15.515 8.34711 15.5369 8.28957C15.5698 8.23203 15.6081 8.186 15.6518 8.15147ZM8.4959 19.4758C8.48496 19.3722 8.44666 19.2859 8.38101 19.2168C8.31536 19.1593 8.23329 19.1305 8.13482 19.1305L5.70575 19.1305L5.70575 6.6151L8.13482 6.6151C8.2333 6.6151 8.31536 6.58057 8.38101 6.51152C8.44666 6.45398 8.48496 6.37917 8.4959 6.28711C8.50684 6.17202 8.47401 6.0742 8.39742 5.99364C8.33177 5.91308 8.24971 5.8728 8.15123 5.8728L5.70575 5.8728C5.50879 5.8728 5.3392 5.94185 5.19695 6.07995C5.06565 6.22956 5 6.40794 5 6.6151L5 19.1305C5 19.3377 5.06565 19.5103 5.19695 19.6484C5.3392 19.798 5.50879 19.8728 5.70575 19.8728L8.15123 19.8728C8.24971 19.8728 8.33177 19.8325 8.39742 19.752C8.47401 19.6714 8.50684 19.5793 8.4959 19.4758Z" fill="#56504C" stroke="#56504C" stroke-width="0.5" stroke-linejoin="round"/>
</svg>
