<svg width="12" height="13" viewBox="0 0 12 13" fill="none" xmlns="http://www.w3.org/2000/svg">
<path d="M11.8711 11.9883C11.9531 12.0703 11.9941 12.1758 11.9941 12.3047C11.9941 12.4336 11.9531 12.5391 11.8711 12.6211C11.7773 12.7031 11.666 12.7441 11.5371 12.7441C11.4199 12.7441 11.3203 12.7031 11.2383 12.6211L6 7.38281L0.761719 12.6211C0.679688 12.7031 0.574219 12.7441 0.445312 12.7441C0.316406 12.7441 0.210938 12.7031 0.128906 12.6211C0.046875 12.5273 0.00585938 12.4219 0.00585938 12.3047C0.00585938 12.1758 0.046875 12.0703 0.128906 11.9883L5.36719 6.75L0.128906 1.51172C0.046875 1.42969 0.00585938 1.32422 0.00585938 1.19531C0.00585938 1.06641 0.046875 0.960938 0.128906 0.878906C0.222656 0.796875 0.328125 0.755859 0.445312 0.755859C0.574219 0.755859 0.679688 0.796875 0.761719 0.878906L6 6.11719L11.2383 0.878906C11.3203 0.796875 11.4258 0.755859 11.5547 0.755859C11.6836 0.755859 11.7891 0.796875 11.8711 0.878906C11.9531 0.972656 11.9941 1.08398 11.9941 1.21289C11.9941 1.33008 11.9531 1.42969 11.8711 1.51172L6.63281 6.75L11.8711 11.9883Z" fill="#ffffff"/>
</svg>
