<svg width="24" height="25" viewBox="0 0 24 25" fill="none" xmlns="http://www.w3.org/2000/svg">
<path d="M14.25 12.1865C14.25 12.8076 14.0273 13.3408 13.582 13.7861C13.1484 14.2197 12.6211 14.4365 12 14.4365C11.3789 14.4365 10.8457 14.2197 10.4004 13.7861C9.9668 13.3408 9.75 12.8076 9.75 12.1865C9.75 11.5654 9.9668 11.0381 10.4004 10.6045C10.8457 10.1592 11.3789 9.93652 12 9.93652C12.6211 9.93652 13.1484 10.1592 13.582 10.6045C14.0273 11.0381 14.25 11.5654 14.25 12.1865ZM19.5059 11.4307V12.9424C19.5059 13.1416 19.4297 13.3174 19.2773 13.4697C19.1367 13.6104 18.9609 13.6807 18.75 13.6807H17.8184C17.7363 13.9619 17.6426 14.2314 17.5371 14.4893C17.4316 14.7471 17.3086 14.9932 17.168 15.2275L17.8359 15.8955C17.9766 16.0479 18.0469 16.2295 18.0469 16.4404C18.0469 16.6396 17.9766 16.8096 17.8359 16.9502L16.7637 18.0225C16.623 18.1631 16.4473 18.2334 16.2363 18.2334C16.0371 18.2334 15.8613 18.1631 15.709 18.0225L15.041 17.3545C14.8066 17.4951 14.5605 17.6182 14.3027 17.7236C14.0449 17.8291 13.7754 17.917 13.4941 17.9873V18.9365C13.4941 19.1475 13.418 19.3232 13.2656 19.4639C13.125 19.6162 12.9551 19.6924 12.7559 19.6924H11.2441C11.0449 19.6924 10.8691 19.6162 10.7168 19.4639C10.5762 19.3232 10.5059 19.1475 10.5059 18.9365V18.0049C10.2246 17.9229 9.95508 17.8291 9.69727 17.7236C9.43945 17.6182 9.19336 17.4951 8.95898 17.3545L8.29102 18.0225C8.13867 18.1631 7.95703 18.2334 7.74609 18.2334C7.54688 18.2334 7.37109 18.1631 7.21875 18.0225L6.16406 16.9502C6.02344 16.8096 5.95312 16.6396 5.95312 16.4404C5.95312 16.2295 6.02344 16.0479 6.16406 15.8955L6.83203 15.2275C6.69141 14.9932 6.5625 14.7471 6.44531 14.4893C6.33984 14.2314 6.25195 13.9619 6.18164 13.6807H5.25C5.03906 13.6807 4.85742 13.6104 4.70508 13.4697C4.56445 13.3174 4.49414 13.1416 4.49414 12.9424V11.4307C4.49414 11.2314 4.56445 11.0615 4.70508 10.9209C4.85742 10.7686 5.03906 10.6924 5.25 10.6924H6.18164C6.26367 10.4111 6.35742 10.1416 6.46289 9.88379C6.56836 9.62598 6.69141 9.37988 6.83203 9.14551L6.16406 8.47754C6.02344 8.3252 5.95312 8.14941 5.95312 7.9502C5.95312 7.73926 6.02344 7.55762 6.16406 7.40527L7.23633 6.35059C7.37695 6.20996 7.54688 6.13965 7.74609 6.13965C7.95703 6.13965 8.13867 6.20996 8.29102 6.35059L8.95898 7.01855C9.19336 6.87793 9.43945 6.75488 9.69727 6.64941C9.95508 6.53223 10.2246 6.43848 10.5059 6.36816V5.43652C10.5059 5.22559 10.5762 5.0498 10.7168 4.90918C10.8691 4.75684 11.0449 4.68066 11.2441 4.68066H12.7559C12.9551 4.68066 13.125 4.75684 13.2656 4.90918C13.418 5.0498 13.4941 5.22559 13.4941 5.43652V6.36816C13.7754 6.4502 14.0449 6.54395 14.3027 6.64941C14.5605 6.75488 14.8066 6.87793 15.041 7.01855L15.709 6.35059C15.8613 6.20996 16.0371 6.13965 16.2363 6.13965C16.4473 6.13965 16.6289 6.20996 16.7812 6.35059L17.8359 7.40527C17.9883 7.55762 18.0645 7.73926 18.0645 7.9502C18.0645 8.14941 17.9883 8.3252 17.8359 8.47754L17.168 9.14551C17.3086 9.37988 17.4316 9.62598 17.5371 9.88379C17.6543 10.1416 17.748 10.4111 17.8184 10.6924H18.75C18.9609 10.6924 19.1367 10.7686 19.2773 10.9209C19.4297 11.0615 19.5059 11.2314 19.5059 11.4307ZM15.0059 12.1865C15.0059 11.3545 14.7129 10.6455 14.127 10.0596C13.541 9.47363 12.832 9.18066 12 9.18066C11.168 9.18066 10.459 9.47363 9.87305 10.0596C9.28711 10.6455 8.99414 11.3545 8.99414 12.1865C8.99414 13.0186 9.28711 13.7275 9.87305 14.3135C10.459 14.8994 11.168 15.1924 12 15.1924C12.832 15.1924 13.541 14.8994 14.127 14.3135C14.7129 13.7275 15.0059 13.0186 15.0059 12.1865Z" fill="#56504C"/>
</svg>
