<svg width="22" height="22" viewBox="0 0 22 22" fill="none" xmlns="http://www.w3.org/2000/svg">
<path d="M11 2C12.2344 2 13.3984 2.23438 14.4922 2.70312C15.5859 3.17188 16.5312 3.8125 17.3281 4.625C18.1406 5.4375 18.7812 6.39062 19.25 7.48438C19.7188 8.57812 19.9531 9.74219 19.9531 10.9766C19.9531 12.2109 19.7188 13.375 19.25 14.4688C18.7812 15.5625 18.1406 16.5156 17.3281 17.3281C16.5156 18.125 15.5625 18.7578 14.4688 19.2266C13.375 19.6953 12.2109 19.9297 10.9766 19.9297C9.74219 19.9297 8.57812 19.6953 7.48438 19.2266C6.39062 18.7578 5.4375 18.1172 4.625 17.3047C3.82812 16.4922 3.19531 15.5391 2.72656 14.4453C2.25781 13.3516 2.02344 12.1875 2.02344 10.9531C2.02344 10.0469 2.14844 9.17969 2.39844 8.35156C2.66406 7.50781 3.03125 6.72656 3.5 6.00781C3.98438 5.28906 4.5625 4.64844 5.23438 4.08594C5.90625 3.52344 6.65625 3.0625 7.48438 2.70312C8.04688 2.46875 8.625 2.29688 9.21875 2.1875C9.8125 2.0625 10.4062 2 11 2ZM11 0.992188C9.625 0.992188 8.32812 1.25781 7.10938 1.78906C5.89062 2.30469 4.82812 3.01562 3.92188 3.92188C3.01562 4.82812 2.30469 5.89062 1.78906 7.10938C1.25781 8.32812 0.992188 9.625 0.992188 11C0.992188 12.375 1.25781 13.6719 1.78906 14.8906C2.30469 16.1094 3.01562 17.1719 3.92188 18.0781C4.82812 18.9844 5.89062 19.6953 7.10938 20.2109C8.32812 20.7422 9.625 21.0078 11 21.0078C12.375 21.0078 13.6719 20.7422 14.8906 20.2109C16.1094 19.6953 17.1719 18.9844 18.0781 18.0781C18.9844 17.1719 19.6953 16.1094 20.2109 14.8906C20.7422 13.6719 21.0078 12.375 21.0078 11C21.0078 9.625 20.7422 8.32812 20.2109 7.10938C19.6953 5.89062 18.9844 4.82812 18.0781 3.92188C17.1719 3.01562 16.1094 2.30469 14.8906 1.78906C13.6719 1.25781 12.375 0.992188 11 0.992188ZM9.52344 14.9844C9.46094 14.9844 9.39844 14.9766 9.33594 14.9609C9.27344 14.9297 9.21875 14.8906 9.17188 14.8438L6.17188 11.8438C6.0625 11.75 6 11.6406 5.98438 11.5156C5.98438 11.375 6.03125 11.25 6.125 11.1406C6.21875 11.0469 6.33594 11 6.47656 11C6.61719 10.9844 6.73438 11.0234 6.82812 11.1172C6.84375 11.1172 6.85156 11.125 6.85156 11.1406C6.85156 11.1406 6.85938 11.1406 6.875 11.1406L9.52344 13.7891L15.2422 8.14062C15.3516 8.04688 15.4688 8 15.5938 8C15.7344 8 15.8516 8.05469 15.9453 8.16406C16.0391 8.25781 16.0859 8.375 16.0859 8.51562C16.0859 8.64062 16.0391 8.75 15.9453 8.84375L9.875 14.8438C9.82812 14.8906 9.77344 14.9297 9.71094 14.9609C9.64844 14.9766 9.58594 14.9844 9.52344 14.9844Z" fill="white"/>
</svg>
