<svg width="22" height="22" viewBox="0 0 22 22" fill="none" xmlns="http://www.w3.org/2000/svg">
<path d="M11 6.99219C9.89062 6.99219 8.94531 7.38281 8.16406 8.16406C7.38281 8.94531 6.99219 9.89062 6.99219 11C6.99219 12.1094 7.38281 13.0547 8.16406 13.8359C8.94531 14.6172 9.89062 15.0078 11 15.0078C12.1094 15.0078 13.0547 14.6172 13.8359 13.8359C14.6172 13.0547 15.0078 12.1094 15.0078 11C15.0078 9.89062 14.6172 8.94531 13.8359 8.16406C13.0547 7.38281 12.1094 6.99219 11 6.99219ZM11 14C10.1719 14 9.46094 13.7109 8.86719 13.1328C8.28906 12.5391 8 11.8281 8 11C8 10.1719 8.28906 9.46875 8.86719 8.89062C9.46094 8.29688 10.1719 8 11 8C11.8281 8 12.5312 8.29688 13.1094 8.89062C13.7031 9.46875 14 10.1719 14 11C14 11.8281 13.7031 12.5391 13.1094 13.1328C12.5312 13.7109 11.8281 14 11 14ZM20 9.00781H18.7578C18.6484 8.63281 18.5234 8.27344 18.3828 7.92969C18.2422 7.58594 18.0781 7.25781 17.8906 6.94531L18.7812 6.05469C18.9688 5.85156 19.0625 5.61719 19.0625 5.35156C19.0625 5.07031 18.9688 4.83594 18.7812 4.64844L17.3516 3.21875C17.1641 3.03125 16.9297 2.9375 16.6484 2.9375C16.3828 2.9375 16.1484 3.03125 15.9453 3.21875L15.0547 4.10938C14.7422 3.92188 14.4141 3.75781 14.0703 3.61719C13.7266 3.47656 13.3672 3.35938 12.9922 3.26562V2C12.9922 1.71875 12.8906 1.48438 12.6875 1.29688C12.5 1.09375 12.2734 0.992188 12.0078 0.992188H9.99219C9.72656 0.992188 9.49219 1.09375 9.28906 1.29688C9.10156 1.48438 9.00781 1.71875 9.00781 2V3.24219C8.63281 3.35156 8.27344 3.47656 7.92969 3.61719C7.58594 3.75781 7.25781 3.92188 6.94531 4.10938L6.05469 3.21875C5.85156 3.03125 5.60938 2.9375 5.32812 2.9375C5.0625 2.9375 4.82812 3.03125 4.625 3.21875L3.21875 4.64844C3.03125 4.83594 2.9375 5.07031 2.9375 5.35156C2.9375 5.61719 3.03125 5.85156 3.21875 6.05469L4.10938 6.94531C3.92188 7.25781 3.75 7.58594 3.59375 7.92969C3.45312 8.27344 3.33594 8.63281 3.24219 9.00781H2C1.71875 9.00781 1.47656 9.10938 1.27344 9.3125C1.08594 9.5 0.992188 9.72656 0.992188 9.99219V12.0078C0.992188 12.2734 1.08594 12.5078 1.27344 12.7109C1.47656 12.8984 1.71875 12.9922 2 12.9922H3.24219C3.35156 13.3672 3.47656 13.7266 3.61719 14.0703C3.75781 14.4141 3.92188 14.7422 4.10938 15.0547L3.21875 15.9453C3.03125 16.1484 2.9375 16.3906 2.9375 16.6719C2.9375 16.9375 3.03125 17.1719 3.21875 17.375L4.64844 18.7812C4.83594 18.9688 5.0625 19.0625 5.32812 19.0625C5.60938 19.0625 5.85156 18.9688 6.05469 18.7812L6.94531 17.8906C7.25781 18.0781 7.58594 18.25 7.92969 18.4062C8.27344 18.5469 8.63281 18.6641 9.00781 18.7578V20C9.00781 20.2812 9.10156 20.5156 9.28906 20.7031C9.49219 20.9062 9.72656 21.0078 9.99219 21.0078H12.0078C12.2734 21.0078 12.5 20.9062 12.6875 20.7031C12.8906 20.5156 12.9922 20.2812 12.9922 20V18.7578C13.3672 18.6484 13.7266 18.5234 14.0703 18.3828C14.4141 18.2422 14.7422 18.0781 15.0547 17.8906L15.9453 18.7812C16.1484 18.9688 16.3828 19.0625 16.6484 19.0625C16.9297 19.0625 17.1719 18.9688 17.375 18.7812L18.7812 17.375C18.9844 17.1719 19.0859 16.9375 19.0859 16.6719C19.0859 16.3906 18.9844 16.1484 18.7812 15.9453L17.8906 15.0547C18.0781 14.7422 18.2422 14.4141 18.3828 14.0703C18.5391 13.7266 18.6641 13.3672 18.7578 12.9922H20C20.2812 12.9922 20.5156 12.8984 20.7031 12.7109C20.9062 12.5078 21.0078 12.2734 21.0078 12.0078V9.99219C21.0078 9.72656 20.9062 9.5 20.7031 9.3125C20.5156 9.10938 20.2812 9.00781 20 9.00781ZM20 12.0078H17.9375C17.9062 12.1797 17.8672 12.3516 17.8203 12.5234C17.7891 12.6797 17.75 12.8359 17.7031 12.9922C17.5938 13.3984 17.4453 13.7891 17.2578 14.1641C17.0703 14.5234 16.8516 14.8672 16.6016 15.1953L18.0781 16.6484L16.6484 18.0781L15.1953 16.6016C14.8672 16.8516 14.5156 17.0703 14.1406 17.2578C13.7812 17.4453 13.3984 17.6016 12.9922 17.7266C12.9766 17.7266 12.9609 17.7266 12.9453 17.7266C12.9453 17.7266 12.9375 17.7266 12.9219 17.7266C12.9219 17.7266 12.9141 17.7344 12.8984 17.75C12.8828 17.75 12.875 17.75 12.875 17.75C12.8594 17.75 12.8359 17.7578 12.8047 17.7734C12.7891 17.7734 12.7734 17.7734 12.7578 17.7734C12.7578 17.7734 12.75 17.7812 12.7344 17.7969C12.7344 17.7969 12.7266 17.7969 12.7109 17.7969C12.7109 17.7969 12.7031 17.7969 12.6875 17.7969C12.6719 17.7969 12.6562 17.7969 12.6406 17.7969C12.6406 17.8125 12.6328 17.8203 12.6172 17.8203C12.6172 17.8203 12.6094 17.8203 12.5938 17.8203C12.5938 17.8203 12.5859 17.8203 12.5703 17.8203C12.5547 17.8203 12.5391 17.8281 12.5234 17.8438C12.5234 17.8438 12.5156 17.8438 12.5 17.8438C12.5 17.8438 12.4922 17.8438 12.4766 17.8438C12.4609 17.8438 12.4453 17.8438 12.4297 17.8438C12.4297 17.8438 12.4219 17.8516 12.4062 17.8672C12.4062 17.8672 12.3984 17.8672 12.3828 17.8672C12.3828 17.8672 12.375 17.8672 12.3594 17.8672C12.3438 17.8672 12.3281 17.8672 12.3125 17.8672C12.3125 17.8672 12.3047 17.875 12.2891 17.8906C12.2734 17.8906 12.2578 17.8906 12.2422 17.8906C12.2266 17.8906 12.2109 17.8906 12.1953 17.8906C12.1797 17.8906 12.1641 17.8984 12.1484 17.9141C12.1484 17.9141 12.1406 17.9141 12.125 17.9141C12.1094 17.9141 12.0859 17.9141 12.0547 17.9141C12.0391 17.9141 12.0234 17.9219 12.0078 17.9375V20H9.99219V17.9375C9.97656 17.9219 9.95312 17.9141 9.92188 17.9141C9.90625 17.9141 9.89062 17.9141 9.875 17.9141C9.875 17.9141 9.86719 17.9141 9.85156 17.9141C9.83594 17.8984 9.82031 17.8906 9.80469 17.8906C9.78906 17.8906 9.77344 17.8906 9.75781 17.8906C9.75781 17.8906 9.75 17.8906 9.73438 17.8906C9.73438 17.8906 9.72656 17.8906 9.71094 17.8906C9.69531 17.875 9.67969 17.8672 9.66406 17.8672C9.66406 17.8672 9.65625 17.8672 9.64062 17.8672C9.625 17.8672 9.60938 17.8672 9.59375 17.8672C9.57812 17.8516 9.5625 17.8438 9.54688 17.8438C9.54688 17.8438 9.53906 17.8438 9.52344 17.8438C9.50781 17.8438 9.49219 17.8438 9.47656 17.8438C9.46094 17.8281 9.44531 17.8203 9.42969 17.8203C9.41406 17.8203 9.40625 17.8203 9.40625 17.8203C9.39062 17.8203 9.375 17.8203 9.35938 17.8203C9.35938 17.8203 9.35938 17.8125 9.35938 17.7969C9.34375 17.7969 9.32812 17.7969 9.3125 17.7969C9.29688 17.7969 9.28906 17.7969 9.28906 17.7969C9.27344 17.7969 9.25781 17.7969 9.24219 17.7969C9.24219 17.7812 9.24219 17.7734 9.24219 17.7734C9.21094 17.7734 9.1875 17.7734 9.17188 17.7734C9.15625 17.7578 9.14062 17.75 9.125 17.75C9.125 17.75 9.11719 17.75 9.10156 17.75C9.08594 17.7344 9.07812 17.7266 9.07812 17.7266C9.0625 17.7266 9.04688 17.7266 9.03125 17.7266C9.03125 17.7266 9.02344 17.7266 9.00781 17.7266C8.60156 17.6016 8.21094 17.4453 7.83594 17.2578C7.47656 17.0703 7.13281 16.8516 6.80469 16.6016L5.35156 18.0781L3.92188 16.6484L5.39844 15.1953C5.14844 14.8672 4.92969 14.5234 4.74219 14.1641C4.55469 13.7891 4.40625 13.3984 4.29688 12.9922C4.25 12.8359 4.20312 12.6797 4.15625 12.5234C4.125 12.3516 4.09375 12.1797 4.0625 12.0078H2V9.99219H4.0625C4.09375 9.82031 4.125 9.65625 4.15625 9.5C4.20312 9.32812 4.25 9.16406 4.29688 9.00781C4.40625 8.60156 4.55469 8.21875 4.74219 7.85938C4.92969 7.48438 5.14844 7.13281 5.39844 6.80469L3.92188 5.35156L5.35156 3.92188L6.80469 5.39844C7.13281 5.14844 7.47656 4.92969 7.83594 4.74219C8.21094 4.55469 8.60156 4.39844 9.00781 4.27344C9.02344 4.27344 9.03125 4.27344 9.03125 4.27344C9.04688 4.27344 9.0625 4.27344 9.07812 4.27344C9.07812 4.27344 9.08594 4.27344 9.10156 4.27344C9.11719 4.25781 9.125 4.25 9.125 4.25C9.14062 4.25 9.15625 4.25 9.17188 4.25C9.20312 4.23438 9.22656 4.22656 9.24219 4.22656C9.25781 4.21094 9.27344 4.20312 9.28906 4.20312C9.28906 4.20312 9.29688 4.20312 9.3125 4.20312C9.32812 4.20312 9.34375 4.20312 9.35938 4.20312C9.35938 4.1875 9.35938 4.17969 9.35938 4.17969C9.375 4.17969 9.39062 4.17969 9.40625 4.17969C9.40625 4.17969 9.41406 4.17969 9.42969 4.17969C9.44531 4.17969 9.46094 4.17188 9.47656 4.15625C9.49219 4.15625 9.50781 4.15625 9.52344 4.15625C9.53906 4.15625 9.54688 4.15625 9.54688 4.15625C9.5625 4.15625 9.57812 4.14844 9.59375 4.13281C9.60938 4.13281 9.625 4.13281 9.64062 4.13281C9.65625 4.13281 9.66406 4.13281 9.66406 4.13281C9.67969 4.13281 9.69531 4.125 9.71094 4.10938C9.72656 4.10938 9.73438 4.10938 9.73438 4.10938C9.75 4.10938 9.75781 4.10938 9.75781 4.10938C9.77344 4.10938 9.78906 4.10938 9.80469 4.10938C9.82031 4.10938 9.83594 4.10156 9.85156 4.08594C9.86719 4.08594 9.875 4.08594 9.875 4.08594C9.89062 4.08594 9.90625 4.08594 9.92188 4.08594C9.95312 4.08594 9.97656 4.07812 9.99219 4.0625V2H12.0078V4.0625C12.0234 4.07812 12.0391 4.08594 12.0547 4.08594C12.0859 4.08594 12.1094 4.08594 12.125 4.08594C12.1406 4.08594 12.1484 4.08594 12.1484 4.08594C12.1641 4.10156 12.1797 4.10938 12.1953 4.10938C12.2109 4.10938 12.2266 4.10938 12.2422 4.10938C12.2578 4.10938 12.2734 4.10938 12.2891 4.10938C12.3047 4.125 12.3125 4.13281 12.3125 4.13281C12.3281 4.13281 12.3438 4.13281 12.3594 4.13281C12.375 4.13281 12.3828 4.13281 12.3828 4.13281C12.3984 4.13281 12.4062 4.13281 12.4062 4.13281C12.4219 4.14844 12.4297 4.15625 12.4297 4.15625C12.4453 4.15625 12.4609 4.15625 12.4766 4.15625C12.4922 4.15625 12.5 4.15625 12.5 4.15625C12.5156 4.15625 12.5234 4.15625 12.5234 4.15625C12.5391 4.17188 12.5547 4.17969 12.5703 4.17969C12.5859 4.17969 12.5938 4.17969 12.5938 4.17969C12.6094 4.17969 12.6172 4.17969 12.6172 4.17969C12.6328 4.17969 12.6406 4.1875 12.6406 4.20312C12.6562 4.20312 12.6719 4.20312 12.6875 4.20312C12.7031 4.20312 12.7109 4.20312 12.7109 4.20312C12.7266 4.20312 12.7344 4.21094 12.7344 4.22656C12.75 4.22656 12.7578 4.22656 12.7578 4.22656C12.7891 4.22656 12.8125 4.23438 12.8281 4.25C12.8438 4.25 12.8594 4.25 12.875 4.25C12.875 4.25 12.8828 4.25781 12.8984 4.27344C12.9141 4.27344 12.9219 4.27344 12.9219 4.27344C12.9375 4.27344 12.9453 4.27344 12.9453 4.27344C12.9609 4.27344 12.9766 4.27344 12.9922 4.27344C13.3984 4.39844 13.7812 4.55469 14.1406 4.74219C14.5156 4.92969 14.8672 5.14844 15.1953 5.39844L16.6484 3.92188L18.0781 5.35156L16.6016 6.80469C16.8516 7.13281 17.0703 7.48438 17.2578 7.85938C17.4453 8.21875 17.5938 8.60156 17.7031 9.00781C17.75 9.16406 17.7891 9.32812 17.8203 9.5C17.8672 9.65625 17.9062 9.82031 17.9375 9.99219H20V12.0078Z" fill="#56504C"/>
</svg>
