<svg width="16" height="12" viewBox="0 0 16 12" fill="none" xmlns="http://www.w3.org/2000/svg">
    <path d="M10.9102 6C10.9102 5.19271 10.6237 4.50911 10.0508 3.94922C9.49089 3.3763 8.80729 3.08984 8 3.08984C7.19271 3.08984 6.5026 3.3763 5.92969 3.94922C5.36979 4.50911 5.08984 5.19271 5.08984 6C5.08984 6.80729 5.36979 7.4974 5.92969 8.07031C6.5026 8.63021 7.19271 8.91016 8 8.91016C8.80729 8.91016 9.49089 8.63021 10.0508 8.07031C10.6237 7.4974 10.9102 6.80729 10.9102 6ZM10.0898 6C10.0898 6.57292 9.88151 7.06771 9.46484 7.48438C9.0612 7.88802 8.57292 8.08984 8 8.08984C7.42708 8.08984 6.93229 7.88802 6.51562 7.48438C6.11198 7.06771 5.91016 6.57292 5.91016 6C5.91016 5.42708 6.11198 4.9388 6.51562 4.53516C6.93229 4.11849 7.42708 3.91016 8 3.91016C8.57292 3.91016 9.0612 4.11849 9.46484 4.53516C9.88151 4.9388 10.0898 5.42708 10.0898 6ZM1.06641 3.91016L0.285156 5.08203C0.102865 5.35547 0.0117188 5.66146 0.0117188 6C0.0117188 6.33854 0.102865 6.64453 0.285156 6.91797L1.06641 8.08984C1.88672 9.32682 2.91536 10.2578 4.15234 10.8828C5.40234 11.4948 6.6849 11.8008 8 11.8008C9.3151 11.8008 10.5977 11.4948 11.8477 10.8828C13.0846 10.2578 14.1133 9.32682 14.9336 8.08984L15.7148 6.91797C15.8971 6.64453 15.9883 6.33854 15.9883 6C15.9883 5.66146 15.8971 5.35547 15.7148 5.08203L14.9336 3.91016C14.1133 2.67318 13.0846 1.74219 11.8477 1.11719C10.5977 0.505208 9.3151 0.199219 8 0.199219C6.6849 0.199219 5.40234 0.505208 4.15234 1.11719C2.91536 1.74219 1.88672 2.67318 1.06641 3.91016ZM0.96875 5.53125L1.75 4.35938C2.49219 3.2526 3.42318 2.41927 4.54297 1.85938C5.66276 1.29948 6.8151 1.01953 8 1.01953C9.1849 1.01953 10.3372 1.29948 11.457 1.85938C12.5768 2.41927 13.5078 3.2526 14.25 4.35938L15.0312 5.53125C15.1224 5.67448 15.168 5.83073 15.168 6C15.168 6.16927 15.1224 6.32552 15.0312 6.46875L14.25 7.64062C13.5078 8.7474 12.5768 9.58073 11.457 10.1406C10.3372 10.7005 9.1849 10.9805 8 10.9805C6.8151 10.9805 5.66276 10.7005 4.54297 10.1406C3.42318 9.58073 2.49219 8.7474 1.75 7.64062L0.96875 6.46875C0.877604 6.32552 0.832031 6.16927 0.832031 6C0.832031 5.83073 0.877604 5.67448 0.96875 5.53125Z" fill="#000512"/>
    </svg>
    