<svg width="18" height="12" viewBox="0 0 18 12" fill="none" xmlns="http://www.w3.org/2000/svg">
    <path d="M17.2441 2.74414V10.25C17.2441 10.4609 17.168 10.6426 17.0156 10.7949C16.875 10.9355 16.7051 11.0059 16.5059 11.0059H1.125C1.01953 11.0059 0.925781 10.9707 0.84375 10.9004C0.773438 10.8184 0.744141 10.7246 0.755859 10.6191C0.755859 10.5137 0.791016 10.4258 0.861328 10.3555C0.943359 10.2852 1.03711 10.25 1.14258 10.25H16.5059V3.5L17.2441 2.74414ZM4.5 0.494141H16.5059C16.8457 0.494141 17.0742 0.658203 17.1914 0.986328C17.3203 1.30273 17.2559 1.57812 16.998 1.8125L11.0039 7.05078C10.8633 7.17969 10.6934 7.24414 10.4941 7.24414C10.3066 7.24414 10.1426 7.17969 10.002 7.05078L4.00781 1.8125C3.75 1.57812 3.67969 1.30273 3.79688 0.986328C3.92578 0.658203 4.16016 0.494141 4.5 0.494141ZM10.4941 6.38281L16.5762 1.25H4.42969L10.4941 6.38281ZM2.61914 6.50586H4.13086C4.22461 6.50586 4.30664 6.4707 4.37695 6.40039C4.45898 6.31836 4.5 6.22461 4.5 6.11914C4.5 6.02539 4.45898 5.94336 4.37695 5.87305C4.30664 5.79102 4.22461 5.75 4.13086 5.75H2.61914C2.52539 5.75 2.4375 5.79102 2.35547 5.87305C2.28516 5.94336 2.25 6.02539 2.25 6.11914C2.25 6.22461 2.28516 6.31836 2.35547 6.40039C2.4375 6.4707 2.52539 6.50586 2.61914 6.50586ZM1.88086 8.75586H4.86914C4.97461 8.75586 5.0625 8.7207 5.13281 8.65039C5.21484 8.56836 5.25586 8.47461 5.25586 8.36914C5.25586 8.27539 5.21484 8.19336 5.13281 8.12305C5.0625 8.04102 4.97461 8 4.86914 8H1.88086C1.77539 8 1.68164 8.04102 1.59961 8.12305C1.5293 8.19336 1.49414 8.27539 1.49414 8.36914C1.49414 8.47461 1.5293 8.56836 1.59961 8.65039C1.68164 8.7207 1.77539 8.75586 1.88086 8.75586ZM3.00586 4.25586H3.74414V3.5H3.00586V4.25586Z" fill="#56504C"/>
    </svg>
    