<svg width="40" height="42" viewBox="0 0 40 42" fill="none" xmlns="http://www.w3.org/2000/svg">
<path d="M31.25 13.7371V12.4773H28.7598V13.7371H27.5V12.4773H25.0098V13.7371H23.75V12.4773H21.2598V13.7371H20V12.4773H17.5098V13.7371C17.1582 13.7371 16.8555 13.864 16.6016 14.1179C16.3672 14.3523 16.25 14.6355 16.25 14.9675V19.9773H14.9902V18.7175H12.5V19.9773H11.2402V18.7175H8.75V19.9773C8.39844 19.9773 8.0957 20.1042 7.8418 20.3582C7.60742 20.5925 7.49023 20.8855 7.49023 21.2371V26.2175C7.49023 26.5691 7.60742 26.8718 7.8418 27.1257C8.0957 27.3601 8.39844 27.4773 8.75 27.4773H31.25C31.6016 27.4773 31.8945 27.3601 32.1289 27.1257C32.3828 26.8718 32.5098 26.5691 32.5098 26.2175V14.9675C32.5098 14.6355 32.3828 14.3523 32.1289 14.1179C31.8945 13.864 31.6016 13.7371 31.25 13.7371Z" fill="current"/>
</svg>
