<svg width="24" height="24" viewBox="0 0 24 24" fill="none" xmlns="http://www.w3.org/2000/svg">
<path d="M13.4941 11.75H15.0059L12 14.7559L8.99414 11.75H10.5059V8.74414H13.4941V11.75ZM19.5059 11.75C19.5059 12.7812 19.3066 13.7539 18.9082 14.668C18.5215 15.582 17.9883 16.3789 17.3086 17.0586C16.6289 17.7383 15.832 18.2715 14.918 18.6582C14.0039 19.0566 13.0312 19.2559 12 19.2559C10.9688 19.2559 9.99609 19.0566 9.08203 18.6582C8.16797 18.2715 7.37109 17.7383 6.69141 17.0586C6.01172 16.3789 5.47852 15.582 5.0918 14.668C4.69336 13.7539 4.49414 12.7812 4.49414 11.75C4.49414 10.7188 4.69336 9.74609 5.0918 8.83203C5.47852 7.91797 6.01172 7.12109 6.69141 6.44141C7.37109 5.76172 8.16797 5.22852 9.08203 4.8418C9.99609 4.44336 10.9688 4.24414 12 4.24414C13.0312 4.24414 14.0039 4.44336 14.918 4.8418C15.832 5.22852 16.6289 5.76172 17.3086 6.44141C17.9883 7.12109 18.5215 7.91797 18.9082 8.83203C19.3066 9.74609 19.5059 10.7188 19.5059 11.75ZM15.6914 11.4688C15.6328 11.3281 15.5391 11.2168 15.4102 11.1348C15.293 11.041 15.1582 10.9941 15.0059 10.9941H14.25V8.74414C14.25 8.54492 14.1738 8.375 14.0215 8.23438C13.8809 8.08203 13.7051 8.00586 13.4941 8.00586H10.5059C10.2949 8.00586 10.1133 8.08203 9.96094 8.23438C9.82031 8.375 9.75 8.54492 9.75 8.74414V10.9941H8.99414C8.8418 10.9941 8.70117 11.041 8.57227 11.1348C8.45508 11.2168 8.36719 11.3281 8.30859 11.4688C8.25 11.6094 8.23242 11.7559 8.25586 11.9082C8.29102 12.0488 8.36133 12.1719 8.4668 12.2773L11.4727 15.2832C11.543 15.3535 11.625 15.4062 11.7188 15.4414C11.8125 15.4766 11.9062 15.4941 12 15.4941C12.0938 15.4941 12.1875 15.4766 12.2812 15.4414C12.375 15.4062 12.457 15.3535 12.5273 15.2832L15.5332 12.2773C15.6387 12.1719 15.7031 12.0488 15.7266 11.9082C15.7617 11.7559 15.75 11.6094 15.6914 11.4688Z" fill="#56504C"/>
</svg>
