<svg width="4" height="17" viewBox="0 0 4 17" fill="none" xmlns="http://www.w3.org/2000/svg">
    <path d="M2 10.4922C1.45312 10.4922 0.984375 10.2969 0.59375 9.90625C0.203125 9.51562 0.00781208 9.04687 0.00781211 8.5C0.00781213 7.95312 0.203125 7.48437 0.59375 7.09375C0.984375 6.70312 1.45312 6.50781 2 6.50781C2.54687 6.50781 3.01562 6.70312 3.40625 7.09375C3.79687 7.48437 3.99219 7.95312 3.99219 8.5C3.99219 9.04687 3.79687 9.51562 3.40625 9.90625C3.01562 10.2969 2.54687 10.4922 2 10.4922ZM3.99219 2.5C3.99219 1.95312 3.79687 1.48437 3.40625 1.09375C3.01562 0.703124 2.54687 0.507811 2 0.507811C1.45312 0.507811 0.984375 0.703124 0.59375 1.09375C0.203125 1.48437 0.00781239 1.95312 0.00781237 2.5C0.00781234 3.04687 0.203125 3.51562 0.59375 3.90625C0.984375 4.29687 1.45312 4.49219 2 4.49219C2.54687 4.49219 3.01562 4.29687 3.40625 3.90625C3.79687 3.51562 3.99219 3.04687 3.99219 2.5ZM3.99219 14.5C3.99219 13.9531 3.79687 13.4844 3.40625 13.0937C3.01562 12.7031 2.54687 12.5078 2 12.5078C1.45312 12.5078 0.984374 12.7031 0.593749 13.0937C0.203124 13.4844 0.00781187 13.9531 0.00781184 14.5C0.00781182 15.0469 0.203124 15.5156 0.593749 15.9062C0.984374 16.2969 1.45312 16.4922 2 16.4922C2.54687 16.4922 3.01562 16.2969 3.40625 15.9062C3.79687 15.5156 3.99219 15.0469 3.99219 14.5Z" fill="#56504C"/>
    </svg>
    