<svg width="16" height="16" viewBox="0 0 16 16" fill="none" xmlns="http://www.w3.org/2000/svg">
    <path d="M13.9941 4.00586H11.7441V1.75586C11.7441 1.33398 11.5977 0.976562 11.3047 0.683594C11.0117 0.390625 10.6602 0.244141 10.25 0.244141H5.75C5.33984 0.244141 4.98828 0.390625 4.69531 0.683594C4.40234 0.976562 4.25586 1.33398 4.25586 1.75586V4.00586H2.00586C1.58398 4.00586 1.22656 4.15234 0.933594 4.44531C0.640625 4.73828 0.494141 5.08984 0.494141 5.5V10.7559C0.494141 11.166 0.640625 11.5176 0.933594 11.8105C1.22656 12.1035 1.58398 12.25 2.00586 12.25H4.25586V13.7441C4.25586 14.166 4.40234 14.5234 4.69531 14.8164C4.98828 15.1094 5.33984 15.2559 5.75 15.2559H10.25C10.6602 15.2559 11.0117 15.1094 11.3047 14.8164C11.5977 14.5234 11.7441 14.166 11.7441 13.7441V12.25H13.9941C14.416 12.25 14.7734 12.1035 15.0664 11.8105C15.3594 11.5176 15.5059 11.166 15.5059 10.7559V5.5C15.5059 5.08984 15.3594 4.73828 15.0664 4.44531C14.7734 4.15234 14.416 4.00586 13.9941 4.00586ZM4.99414 1.75586C4.99414 1.54492 5.06445 1.36914 5.20508 1.22852C5.35742 1.07617 5.53906 1 5.75 1H10.25C10.4609 1 10.6367 1.07617 10.7773 1.22852C10.9297 1.36914 11.0059 1.54492 11.0059 1.75586V4.00586H4.99414V1.75586ZM11.0059 13.7441C11.0059 13.9551 10.9297 14.1367 10.7773 14.2891C10.6367 14.4297 10.4609 14.5 10.25 14.5H5.75C5.53906 14.5 5.35742 14.4297 5.20508 14.2891C5.06445 14.1367 4.99414 13.9551 4.99414 13.7441V9.24414H11.0059V13.7441ZM14.75 10.7559C14.75 10.9551 14.6738 11.1309 14.5215 11.2832C14.3809 11.4238 14.2051 11.4941 13.9941 11.4941H11.7441V8.50586H4.25586V11.4941H2.00586C1.79492 11.4941 1.61328 11.4238 1.46094 11.2832C1.32031 11.1309 1.25 10.9551 1.25 10.7559V5.5C1.25 5.28906 1.32031 5.11328 1.46094 4.97266C1.61328 4.82031 1.79492 4.74414 2.00586 4.74414H13.9941C14.2051 4.74414 14.3809 4.82031 14.5215 4.97266C14.6738 5.11328 14.75 5.28906 14.75 5.5V10.7559ZM6.11914 11.4941H9.88086C9.98633 11.4941 10.0742 11.459 10.1445 11.3887C10.2148 11.3184 10.25 11.2305 10.25 11.125C10.25 11.0195 10.2148 10.9316 10.1445 10.8613C10.0742 10.791 9.98633 10.7559 9.88086 10.7559H6.11914C6.02539 10.7559 5.9375 10.791 5.85547 10.8613C5.78516 10.9316 5.75 11.0195 5.75 11.125C5.75 11.2305 5.78516 11.3184 5.85547 11.3887C5.9375 11.459 6.02539 11.4941 6.11914 11.4941ZM9.125 12.25H6.875C6.76953 12.25 6.68164 12.291 6.61133 12.373C6.54102 12.4434 6.50586 12.5254 6.50586 12.6191C6.50586 12.7246 6.54102 12.8184 6.61133 12.9004C6.68164 12.9707 6.76953 13.0059 6.875 13.0059H9.125C9.23047 13.0059 9.31836 12.9707 9.38867 12.9004C9.45898 12.8184 9.49414 12.7246 9.49414 12.6191C9.49414 12.5254 9.45898 12.4434 9.38867 12.373C9.31836 12.291 9.23047 12.25 9.125 12.25ZM13.2559 6.625C13.2559 6.73047 13.2148 6.81836 13.1328 6.88867C13.0625 6.95898 12.9746 6.99414 12.8691 6.99414C12.7754 6.99414 12.6875 6.95898 12.6055 6.88867C12.5352 6.81836 12.5 6.73047 12.5 6.625C12.5 6.51953 12.5352 6.43164 12.6055 6.36133C12.6875 6.29102 12.7754 6.25586 12.8691 6.25586C12.9746 6.25586 13.0625 6.29102 13.1328 6.36133C13.2148 6.43164 13.2559 6.51953 13.2559 6.625Z" fill="#56504C"/>
    </svg>
    