<svg width="90" height="63" viewBox="0 0 90 63" fill="none" xmlns="http://www.w3.org/2000/svg">
<circle cx="44.4738" cy="31.4999" r="30.7697" fill="#FAF7F5"/>
<path fill-rule="evenodd" clip-rule="evenodd" d="M0.0285645 33.9172H10.9689V30.1523H0.0285645V33.9172Z" fill="#001E4F"/>
<path fill-rule="evenodd" clip-rule="evenodd" d="M35.5305 18.5083V45.5593H22.005C14.5356 45.5593 8.47949 39.5032 8.47949 32.0338C8.47949 24.5644 14.5356 18.5083 22.005 18.5083H35.5305Z" fill="#91A0BF"/>
<path fill-rule="evenodd" clip-rule="evenodd" d="M29.0034 45.5593H35.5319V18.5083H29.0034V45.5593Z" fill="#1C407D"/>
<path fill-rule="evenodd" clip-rule="evenodd" d="M35.5312 26.8968V22.4441H41.0764C42.3062 22.4441 43.3027 23.4406 43.3027 24.6704C43.3027 25.8993 42.3062 26.8968 41.0764 26.8968H35.5312Z" fill="#001E4F"/>
<path fill-rule="evenodd" clip-rule="evenodd" d="M35.5312 41.6248V37.1731H41.0764C42.3062 37.1731 43.3027 38.1696 43.3027 39.3994C43.3027 40.6283 42.3062 41.6248 41.0764 41.6248H35.5312Z" fill="#001E4F"/>
<path fill-rule="evenodd" clip-rule="evenodd" d="M79.0308 33.9162H89.9711V30.1523H79.0308V33.9162Z" fill="#001E4F"/>
<path fill-rule="evenodd" clip-rule="evenodd" d="M54.6128 45.5605V18.5095H68.1383C75.6077 18.5095 81.6638 24.5656 81.6638 32.035C81.6638 39.5044 75.6077 45.5605 68.1383 45.5605H54.6128Z" fill="#91A0BF"/>
<path fill-rule="evenodd" clip-rule="evenodd" d="M54.6128 45.5593H61.1403V18.5083H54.6128V45.5593Z" fill="#1C407D"/>
</svg>
