<svg width="24" height="24" viewBox="0 0 24 24" fill="none" xmlns="http://www.w3.org/2000/svg">
<path d="M17.2383 8.56836C17.332 8.47461 17.4375 8.43359 17.5547 8.44531C17.6836 8.44531 17.7949 8.49219 17.8887 8.58594C17.9707 8.66797 18.0059 8.77344 17.9941 8.90234C17.9941 9.01953 17.9531 9.11914 17.8711 9.20117L12.5273 14.5273C12.3867 14.6797 12.2109 14.7559 12 14.7559C11.8008 14.7559 11.625 14.6797 11.4727 14.5273L6.12891 9.20117C6.04688 9.10742 6.00586 9.00195 6.00586 8.88477C6.00586 8.75586 6.04688 8.65039 6.12891 8.56836C6.22266 8.47461 6.32812 8.42773 6.44531 8.42773C6.57422 8.42773 6.67969 8.47461 6.76172 8.56836L12 13.8066L17.2383 8.56836Z" fill="current"/>
</svg>
