<svg width="12" height="16" viewBox="0 0 12 16" fill="none" xmlns="http://www.w3.org/2000/svg">
    <path d="M4.08398 7.75L5.50781 5.41211L4.1543 3.25H5.10352L5.98242 4.81445H6.05273L6.93164 3.25H7.82812L6.49219 5.42969L7.91602 7.75H6.9668L6 6.0625H5.94727L4.98047 7.75H4.08398ZM2.25586 10.3691C2.25586 10.2637 2.29102 10.1758 2.36133 10.1055C2.43164 10.0352 2.51953 10 2.625 10H9.375C9.48047 10 9.56836 10.0352 9.63867 10.1055C9.70898 10.1758 9.74414 10.2637 9.74414 10.3691C9.74414 10.4746 9.70898 10.5684 9.63867 10.6504C9.56836 10.7207 9.48047 10.7559 9.375 10.7559H2.625C2.51953 10.7559 2.43164 10.7207 2.36133 10.6504C2.29102 10.5684 2.25586 10.4746 2.25586 10.3691ZM2.25586 12.6191C2.25586 12.5137 2.29102 12.4258 2.36133 12.3555C2.43164 12.2852 2.51953 12.25 2.625 12.25H9.375C9.48047 12.25 9.56836 12.2852 9.63867 12.3555C9.70898 12.4258 9.74414 12.5137 9.74414 12.6191C9.74414 12.7246 9.70898 12.8184 9.63867 12.9004C9.56836 12.9707 9.48047 13.0059 9.375 13.0059H2.625C2.51953 13.0059 2.43164 12.9707 2.36133 12.9004C2.29102 12.8184 2.25586 12.7246 2.25586 12.6191ZM0.00585938 1V14.5C0.00585938 14.7109 0.0761719 14.8867 0.216797 15.0273C0.369141 15.1797 0.544922 15.2559 0.744141 15.2559H11.2559C11.4551 15.2559 11.625 15.1797 11.7656 15.0273C11.918 14.8867 11.9941 14.7109 11.9941 14.5V1C11.9941 0.789062 11.918 0.613281 11.7656 0.472656C11.625 0.320312 11.4551 0.244141 11.2559 0.244141H0.744141C0.544922 0.244141 0.369141 0.320312 0.216797 0.472656C0.0761719 0.613281 0.00585938 0.789062 0.00585938 1ZM0.744141 1H11.2559V14.5H0.744141V1Z" fill="#56504C"/>
    </svg>
    