<svg width="40" height="41" viewBox="0 0 40 41" fill="none" xmlns="http://www.w3.org/2000/svg">
<path d="M16.25 13.4644H14.9902V8.45459C14.9902 8.10303 15.1074 7.81006 15.3418 7.57568C15.5957 7.32178 15.8984 7.19482 16.25 7.19482H22.4902C22.8418 7.19482 23.1348 7.32178 23.3691 7.57568C23.623 7.81006 23.75 8.10303 23.75 8.45459V13.4644H22.4902V8.45459H16.25V13.4644ZM13.6426 21.0815C14.0137 21.4526 14.4141 21.7847 14.8438 22.0776C15.2734 22.3706 15.7324 22.6147 16.2207 22.8101C16.6309 22.9858 17.041 23.1226 17.4512 23.2202C17.8809 23.3179 18.3105 23.3862 18.7402 23.4253V22.8394C18.7402 22.6636 18.7988 22.5171 18.916 22.3999C19.0527 22.2632 19.209 22.1948 19.3848 22.1948C19.5605 22.1948 19.707 22.2632 19.8242 22.3999C19.9414 22.5171 20 22.6636 20 22.8394V23.4253C20.4492 23.3862 20.8789 23.3179 21.2891 23.2202C21.7188 23.1226 22.1387 22.9858 22.5488 22.8101C23.0371 22.6147 23.4961 22.3706 23.9258 22.0776C24.3555 21.7847 24.7559 21.4526 25.127 21.0815C25.498 20.7104 25.8301 20.3101 26.123 19.8804C26.416 19.4312 26.6602 18.9722 26.8555 18.5034C27.0703 17.9956 27.2266 17.478 27.3242 16.9507C27.4414 16.4233 27.5 15.8862 27.5 15.3394C27.5 15.2222 27.5 15.1147 27.5 15.0171C27.5 14.9194 27.4902 14.812 27.4707 14.6948H11.2695C11.2695 14.812 11.2598 14.9194 11.2402 15.0171C11.2402 15.1147 11.2402 15.2222 11.2402 15.3394C11.2402 15.8862 11.2891 16.4233 11.3867 16.9507C11.5039 17.478 11.6699 17.9956 11.8848 18.5034C12.0996 18.9722 12.3438 19.4312 12.6172 19.8804C12.9102 20.3101 13.252 20.7104 13.6426 21.0815ZM29.9902 14.6948H28.7305C28.7305 14.812 28.7305 14.9194 28.7305 15.0171C28.75 15.1147 28.7598 15.2222 28.7598 15.3394C28.7598 16.5698 28.5254 17.7417 28.0566 18.855C27.6074 19.9487 26.9922 20.9155 26.2109 21.7554C25.4297 22.5952 24.502 23.269 23.4277 23.7769C22.373 24.3042 21.2305 24.6069 20 24.6851V25.3296C20 25.5054 19.9316 25.6519 19.7949 25.769C19.6777 25.8862 19.541 25.9448 19.3848 25.9448C19.209 25.9448 19.0527 25.8862 18.916 25.769C18.7988 25.6519 18.7402 25.5054 18.7402 25.3296V24.6851C17.5293 24.6069 16.3867 24.3042 15.3125 23.7769C14.2578 23.269 13.3301 22.5952 12.5293 21.7554C11.748 20.9155 11.1328 19.9487 10.6836 18.855C10.2344 17.7417 10.0098 16.5698 10.0098 15.3394C10.0098 15.2222 10.0098 15.1147 10.0098 15.0171C10.0098 14.9194 10.0098 14.812 10.0098 14.6948H8.75C8.39844 14.6948 8.0957 14.8218 7.8418 15.0757C7.60742 15.3101 7.49023 15.603 7.49023 15.9546V30.9546C7.49023 31.3062 7.60742 31.5991 7.8418 31.8335C8.0957 32.0874 8.39844 32.2144 8.75 32.2144H29.9902C30.3418 32.2144 30.6348 32.0874 30.8691 31.8335C31.123 31.5991 31.25 31.3062 31.25 30.9546V15.9546C31.25 15.603 31.123 15.3101 30.8691 15.0757C30.6348 14.8218 30.3418 14.6948 29.9902 14.6948Z" fill="current"/>
</svg>
