<svg width="32" height="32" viewBox="0 0 32 32" fill="none" xmlns="http://www.w3.org/2000/svg">
<path d="M16 0C7.17774 0 0 7.17704 0 16C0 24.823 7.17774 32 16 32C24.823 32 32 24.823 32 16C32 7.17704 24.823 0 16 0ZM20.8696 9.73913H18.5809C17.2327 9.73913 16.6957 10.0557 16.6957 10.9955V13.2174H20.8696L20.1739 16.6957H16.6957V25.7391H12.5217V16.6957H10.4348V13.2174H12.5217V11.2877C12.5217 8.34852 13.6946 6.26087 17.0998 6.26087C18.9238 6.26087 20.8696 6.95652 20.8696 6.95652V9.73913Z" fill="#C4C4C4"/>
</svg>
