<svg width="40" height="41" viewBox="0 0 40 41" fill="none" xmlns="http://www.w3.org/2000/svg">
<path d="M24.6875 12.8198C24.6875 12.9956 24.6289 13.1519 24.5117 13.2886C24.3945 13.4058 24.248 13.4644 24.0723 13.4644H20.3223C20.1465 13.4644 19.9902 13.4058 19.8535 13.2886C19.7363 13.1519 19.6777 12.9956 19.6777 12.8198V9.06982C19.6777 8.89404 19.7363 8.74756 19.8535 8.63037C19.9902 8.51318 20.1465 8.45459 20.3223 8.45459C20.498 8.45459 20.6445 8.51318 20.7617 8.63037C20.8789 8.74756 20.9375 8.89404 20.9375 9.06982V11.4136C21.4844 10.5151 22.2266 9.80225 23.1641 9.2749C24.1016 8.72803 25.127 8.45459 26.2402 8.45459C27.1191 8.45459 27.9297 8.62061 28.6719 8.95264C29.4336 9.28467 30.0977 9.73389 30.6641 10.3003C31.2305 10.8472 31.6797 11.5015 32.0117 12.2632C32.3438 13.0249 32.5098 13.8354 32.5098 14.6948C32.5098 15.9839 32.1582 17.146 31.4551 18.1812C30.752 19.1968 29.8535 19.9487 28.7598 20.437V19.0308C29.502 18.6011 30.0977 18.0054 30.5469 17.2437C31.0156 16.4819 31.25 15.6323 31.25 14.6948C31.25 13.3276 30.7617 12.1558 29.7852 11.1792C28.8086 10.2026 27.627 9.71436 26.2402 9.71436C25.3223 9.71436 24.4824 9.94873 23.7207 10.4175C22.959 10.8667 22.3535 11.4624 21.9043 12.2046H24.0723C24.248 12.2046 24.3945 12.2632 24.5117 12.3804C24.6289 12.4976 24.6875 12.644 24.6875 12.8198ZM7.49023 19.0894C7.49023 18.2104 7.79297 17.4683 8.39844 16.8628C9.02344 16.2573 9.76562 15.9546 10.625 15.9546H24.3652C25.2441 15.9546 25.9863 16.2573 26.5918 16.8628C27.1973 17.4683 27.5 18.2104 27.5 19.0894V19.7632H7.49023V19.0894ZM7.49023 22.7808H27.5V27.8198C27.5 28.6987 27.1973 29.4409 26.5918 30.0464C25.9863 30.6519 25.2441 30.9546 24.3652 30.9546H10.625C9.76562 30.9546 9.02344 30.6519 8.39844 30.0464C7.79297 29.4409 7.49023 28.6987 7.49023 27.8198V22.7808Z" fill="current"/>
</svg>
