<svg width="40" height="40" viewBox="0 0 40 40" fill="none" xmlns="http://www.w3.org/2000/svg">
<path d="M27.8699 10.8H12.1301C11.128 10.8 10.2678 11.1642 9.54932 11.8925C8.84977 12.6018 8.5 13.4642 8.5 14.48V23.0763H31.5V14.48C31.5 13.4642 31.1407 12.6018 30.4223 11.8925C29.7227 11.1642 28.8719 10.8 27.8699 10.8ZM15.1646 19.3963H12.754C12.5838 19.3963 12.4326 19.3388 12.3002 19.2238C12.1868 19.0896 12.1301 18.9363 12.1301 18.7638C12.1301 18.6105 12.1868 18.4763 12.3002 18.3613C12.4326 18.2271 12.5838 18.16 12.754 18.16H15.1646C15.3347 18.16 15.4766 18.2271 15.5901 18.3613C15.7034 18.4763 15.7602 18.6105 15.7602 18.7638C15.7602 18.9363 15.7034 19.0896 15.5901 19.2238C15.4766 19.3388 15.3347 19.3963 15.1646 19.3963ZM15.1646 15.7163H12.754C12.5838 15.7163 12.4326 15.6588 12.3002 15.5438C12.1868 15.4096 12.1301 15.2563 12.1301 15.0838C12.1301 14.9305 12.1868 14.7963 12.3002 14.6813C12.4326 14.5471 12.5838 14.48 12.754 14.48H15.1646C15.3347 14.48 15.4766 14.5471 15.5901 14.6813C15.7034 14.7963 15.7602 14.9305 15.7602 15.0838C15.7602 15.2563 15.7034 15.4096 15.5901 15.5438C15.4766 15.6588 15.3347 15.7163 15.1646 15.7163ZM21.2053 19.3963H18.7947C18.6246 19.3963 18.4827 19.3388 18.3692 19.2238C18.2559 19.0896 18.1991 18.9363 18.1991 18.7638C18.1991 18.6105 18.2559 18.4763 18.3692 18.3613C18.4827 18.2271 18.6246 18.16 18.7947 18.16H21.2053C21.3754 18.16 21.5173 18.2271 21.6308 18.3613C21.763 18.4763 21.8292 18.6105 21.8292 18.7638C21.8292 18.9363 21.763 19.0896 21.6308 19.2238C21.5173 19.3388 21.3754 19.3963 21.2053 19.3963ZM21.2053 15.7163H18.7947C18.6246 15.7163 18.4827 15.6588 18.3692 15.5438C18.2559 15.4096 18.1991 15.2563 18.1991 15.0838C18.1991 14.9305 18.2559 14.7963 18.3692 14.6813C18.4827 14.5471 18.6246 14.48 18.7947 14.48H21.2053C21.3754 14.48 21.5173 14.5471 21.6308 14.6813C21.763 14.7963 21.8292 14.9305 21.8292 15.0838C21.8292 15.2563 21.763 15.4096 21.6308 15.5438C21.5173 15.6588 21.3754 15.7163 21.2053 15.7163ZM27.2743 19.3963H24.8354C24.6842 19.3963 24.5423 19.3388 24.41 19.2238C24.2966 19.0896 24.2398 18.9363 24.2398 18.7638C24.2398 18.6105 24.2966 18.4763 24.41 18.3613C24.5423 18.2271 24.6842 18.16 24.8354 18.16H27.2743C27.4256 18.16 27.558 18.2271 27.6713 18.3613C27.8037 18.4763 27.8699 18.6105 27.8699 18.7638C27.8699 18.9363 27.8037 19.0896 27.6713 19.2238C27.558 19.3388 27.4256 19.3963 27.2743 19.3963ZM27.2743 15.7163H24.8354C24.6842 15.7163 24.5423 15.6588 24.41 15.5438C24.2966 15.4096 24.2398 15.2563 24.2398 15.0838C24.2398 14.9305 24.2966 14.7963 24.41 14.6813C24.5423 14.5471 24.6842 14.48 24.8354 14.48H27.2743C27.4256 14.48 27.558 14.5471 27.6713 14.6813C27.8037 14.7963 27.8699 14.9305 27.8699 15.0838C27.8699 15.2563 27.8037 15.4096 27.6713 15.5438C27.558 15.6588 27.4256 15.7163 27.2743 15.7163ZM8.5 24.2838H31.5V25.52C31.5 26.5359 31.1407 27.408 30.4223 28.1363C29.7227 28.8454 28.8719 29.2 27.8699 29.2H12.1301C11.128 29.2 10.2678 28.8454 9.54932 28.1363C8.84977 27.408 8.5 26.5359 8.5 25.52V24.2838Z" fill="current"/>
</svg>
