<svg width="13" height="7" viewBox="0 0 13 7" fill="none" xmlns="http://www.w3.org/2000/svg">
<path d="M11.2383 0.568359C11.332 0.474609 11.4375 0.433594 11.5547 0.445312C11.6836 0.445312 11.7949 0.492188 11.8887 0.585938C11.9707 0.667969 12.0059 0.773438 11.9941 0.902344C11.9941 1.01953 11.9531 1.11914 11.8711 1.20117L6.52734 6.52734C6.38672 6.67969 6.21094 6.75586 6 6.75586C5.80078 6.75586 5.625 6.67969 5.47266 6.52734L0.128906 1.20117C0.046875 1.10742 0.00585938 1.00195 0.00585938 0.884766C0.00585938 0.755859 0.046875 0.650391 0.128906 0.568359C0.222656 0.474609 0.328125 0.427734 0.445312 0.427734C0.574219 0.427734 0.679688 0.474609 0.761719 0.568359L6 5.80664L11.2383 0.568359Z" fill="#EC7000"/>
</svg>
