<svg width="13" height="7" viewBox="0 0 13 7" fill="none" xmlns="http://www.w3.org/2000/svg">
<path d="M6 1.37695L0.761719 6.61523C0.679688 6.70898 0.574219 6.75586 0.445312 6.75586C0.328125 6.75586 0.222656 6.70898 0.128906 6.61523C0.046875 6.5332 0.00585938 6.43359 0.00585938 6.31641C0.00585938 6.1875 0.046875 6.08203 0.128906 6L5.47266 0.65625C5.625 0.503906 5.80078 0.427734 6 0.427734C6.21094 0.427734 6.39258 0.503906 6.54492 0.65625L11.8711 5.98242C11.9531 6.06445 11.9941 6.16992 11.9941 6.29883C12.0059 6.41602 11.9707 6.52148 11.8887 6.61523C11.7949 6.70898 11.6836 6.75586 11.5547 6.75586C11.4375 6.75586 11.332 6.70898 11.2383 6.61523L6 1.37695Z" fill="#EC7000"/>
</svg>
