<svg width="26" height="26" viewBox="0 0 26 26" fill="none" xmlns="http://www.w3.org/2000/svg">
<path d="M17.0562 11.7876C17.0562 10.937 16.8975 10.1436 16.58 9.40721C16.2627 8.67092 15.8247 8.02979 15.2661 7.48389C14.7202 6.9253 14.0791 6.4873 13.3428 6.16992C12.6064 5.85255 11.813 5.69385 10.9624 5.69385C10.1245 5.69385 9.33741 5.85255 8.60104 6.16992C7.85205 6.4873 7.20459 6.9253 6.65869 7.48389C6.11279 8.02979 5.67481 8.67092 5.34472 9.40721C5.02734 10.1436 4.86865 10.937 4.86865 11.7876C4.86865 12.6255 5.02734 13.4126 5.34472 14.149C5.67481 14.8979 6.11279 15.5454 6.65869 16.0913C7.20459 16.6372 7.85205 17.0752 8.60104 17.4053C9.33741 17.7227 10.1245 17.8813 10.9624 17.8813C11.813 17.8813 12.6064 17.7227 13.3428 17.4053C14.0791 17.0752 14.7202 16.6372 15.2661 16.0913C15.8247 15.5454 16.2627 14.8979 16.58 14.149C16.8975 13.4126 17.0562 12.6255 17.0562 11.7876ZM13.019 16.6436C12.7016 16.7832 12.3653 16.8911 12.0097 16.9673C11.667 17.0307 11.3179 17.0625 10.9624 17.0625C10.6069 17.0625 10.2578 17.0307 9.91502 16.9673C9.57222 16.8911 9.23585 16.7832 8.90573 16.6436C8.60104 16.5166 8.30277 16.3579 8.01074 16.1675C7.73144 15.9771 7.47119 15.7612 7.22998 15.5201C6.98877 15.2788 6.77295 15.0186 6.58252 14.7392C6.39209 14.4472 6.2334 14.149 6.10644 13.8443C5.9668 13.5142 5.85889 13.1778 5.78271 12.835C5.71923 12.4922 5.6875 12.1431 5.6875 11.7876C5.6875 11.4321 5.71923 11.083 5.78271 10.7403C5.85889 10.3847 5.9668 10.0484 6.10644 9.73099C6.2334 9.41355 6.39209 9.11528 6.58252 8.83594C6.77295 8.5566 6.98877 8.29636 7.22998 8.05518C7.47119 7.80127 7.73144 7.58545 8.01074 7.40772C8.30277 7.21729 8.60104 7.05225 8.90573 6.9126C9.23585 6.77295 9.57222 6.67139 9.91502 6.60791C10.2578 6.53174 10.6069 6.49366 10.9624 6.49366C11.3179 6.49366 11.667 6.53174 12.0097 6.60791C12.3653 6.67139 12.7016 6.77295 13.019 6.9126C13.3365 7.05225 13.6347 7.21729 13.9141 7.40772C14.1934 7.58545 14.4536 7.80127 14.6948 8.05518C14.9487 8.29636 15.1646 8.5566 15.3423 8.83594C15.5327 9.11528 15.6977 9.41355 15.8374 9.73099C15.9771 10.0484 16.0786 10.3847 16.1421 10.7403C16.2182 11.083 16.2563 11.4321 16.2563 11.7876C16.2563 12.1431 16.2182 12.4922 16.1421 12.835C16.0786 13.1778 15.9771 13.5142 15.8374 13.8443C15.6977 14.149 15.5327 14.4472 15.3423 14.7392C15.1646 15.0186 14.9487 15.2788 14.6948 15.5201C14.4536 15.7612 14.1934 15.9771 13.9141 16.1675C13.6347 16.3579 13.3365 16.5166 13.019 16.6436ZM20.8838 20.4903L19.665 21.709C19.5127 21.8613 19.3222 21.9375 19.0937 21.9375C18.8653 21.9375 18.6748 21.8613 18.5225 21.709L14.4853 17.729C14.5996 17.6529 14.7139 17.5767 14.8281 17.5005C14.9424 17.4243 15.0566 17.3482 15.1709 17.272L19.0937 21.1187L20.3125 19.8999L16.4468 15.9771C16.5357 15.8628 16.6181 15.7485 16.6944 15.6343C16.7705 15.5201 16.8467 15.4057 16.9228 15.2915L20.8838 19.3286C21.0488 19.4937 21.1313 19.6905 21.1313 19.9189C21.1313 20.1347 21.0488 20.3252 20.8838 20.4903Z" fill="#231D19"/>
</svg>
