<svg width="40" height="40" viewBox="0 0 40 40" fill="none" xmlns="http://www.w3.org/2000/svg">
<path d="M32.3926 16.4668C32.2754 16.6426 32.1289 16.7402 31.9531 16.7598C31.7773 16.7598 31.6406 16.7207 31.543 16.6426L21.6113 9.69922C21.123 9.40625 20.5859 9.25977 20 9.25977C19.4141 9.25977 18.877 9.40625 18.3887 9.69922L8.45703 16.6426C8.32031 16.7402 8.16406 16.7695 7.98828 16.7305C7.8125 16.6914 7.68555 16.6035 7.60742 16.4668C7.50977 16.3105 7.48047 16.1543 7.51953 15.998C7.55859 15.8223 7.64648 15.6855 7.7832 15.5879L17.7441 8.64453C18.4277 8.21484 19.1797 8 20 8C20.8203 8 21.5723 8.21484 22.2559 8.64453L27.5 12.3066L28.4082 12.9512L32.2168 15.5879C32.3535 15.6855 32.4414 15.8223 32.4805 15.998C32.5195 16.1738 32.4902 16.3301 32.3926 16.4668ZM17.7441 12.3945L10.0098 17.8145V26.75C10.0098 27.7852 10.3711 28.6738 11.0938 29.416C11.8359 30.1387 12.7246 30.5 13.7598 30.5H16.25V23C16.25 22.6484 16.3672 22.3555 16.6016 22.1211C16.8555 21.8672 17.1582 21.7402 17.5098 21.7402H22.5195C22.8516 21.7402 23.1348 21.8672 23.3691 22.1211C23.623 22.3555 23.75 22.6484 23.75 23V30.5H26.2695C27.3047 30.5 28.1836 30.1387 28.9062 29.416C29.6484 28.6738 30.0195 27.7852 30.0195 26.75V17.8145L22.2852 12.3945C21.582 11.9648 20.8203 11.75 20 11.75C19.1797 11.75 18.4277 11.9648 17.7441 12.3945ZM17.5098 29.2402V30.5H22.5195V23H17.5098V29.2402Z" fill="current"/>
</svg>
