<svg width="12" height="10" viewBox="0 0 12 10" fill="none" xmlns="http://www.w3.org/2000/svg">
<path d="M10.957 3.88672C10.9102 3.95703 10.8516 3.99609 10.7812 4.00391C10.7109 4.00391 10.6562 3.98828 10.6172 3.95703L6.64453 1.17969C6.44922 1.0625 6.23438 1.00391 6 1.00391C5.76562 1.00391 5.55078 1.0625 5.35547 1.17969L1.38281 3.95703C1.32812 3.99609 1.26562 4.00781 1.19531 3.99219C1.125 3.97656 1.07422 3.94141 1.04297 3.88672C1.00391 3.82422 0.992188 3.76172 1.00781 3.69922C1.02344 3.62891 1.05859 3.57422 1.11328 3.53516L5.09766 0.757812C5.37109 0.585938 5.67188 0.5 6 0.5C6.32812 0.5 6.62891 0.585938 6.90234 0.757812L10.8867 3.53516C10.9414 3.57422 10.9766 3.62891 10.9922 3.69922C11.0078 3.76953 10.9961 3.83203 10.957 3.88672ZM9.99609 4.42578V8C9.99609 8.41406 9.84766 8.76953 9.55078 9.06641C9.26172 9.35547 8.91016 9.5 8.49609 9.5H3.50391C3.08984 9.5 2.73438 9.35547 2.4375 9.06641C2.14844 8.76953 2.00391 8.41406 2.00391 8V4.42578L5.09766 2.25781C5.37109 2.08594 5.67188 2 6 2C6.32812 2 6.62891 2.08594 6.90234 2.25781L9.99609 4.42578ZM6.99609 8.99609V6.5H5.00391V8.99609H6.99609ZM9.50391 4.68359L6.64453 2.67969C6.44922 2.5625 6.23438 2.50391 6 2.50391C5.76562 2.50391 5.55078 2.5625 5.35547 2.67969L2.49609 4.68359V8C2.49609 8.27344 2.59375 8.50781 2.78906 8.70312C2.98438 8.89844 3.22266 8.99609 3.50391 8.99609H4.5V6.5C4.5 6.35938 4.54688 6.24219 4.64062 6.14844C4.74219 6.04688 4.86328 5.99609 5.00391 5.99609H6.99609C7.13672 5.99609 7.25391 6.04688 7.34766 6.14844C7.44922 6.24219 7.5 6.35938 7.5 6.5V8.99609H8.49609C8.77734 8.99609 9.01562 8.89844 9.21094 8.70312C9.40625 8.50781 9.50391 8.27344 9.50391 8V4.68359Z" fill="#89837F"/>
</svg>
