<svg width="49" height="49" viewBox="0 0 49 49" fill="none" xmlns="http://www.w3.org/2000/svg">
<rect x="0.5" y="0.5" width="48" height="48" rx="24" fill="#000512"/>
<path fill-rule="evenodd" clip-rule="evenodd" d="M34.6562 35.7397V13.2309C34.6562 12.8988 34.5272 12.6155 34.2691 12.381C34.0308 12.127 33.7429 12 33.4053 12H15.5947C15.2571 12 14.9593 12.127 14.7012 12.381C14.4629 12.6155 14.3438 12.8988 14.3438 13.2309V35.7397C14.3438 36.0914 14.4629 36.3943 14.7012 36.6483C14.9593 36.8828 15.2571 37 15.5947 37H33.4053C33.7429 37 34.0308 36.8828 34.2691 36.6483C34.5272 36.3943 34.6562 36.0914 34.6562 35.7397ZM21.9684 30.7573H27.0316V35.7397H21.9684V30.7573ZM23.2225 19.499H19.4102V15.7476H23.2225V19.499ZM29.5962 15.7476H25.7839V19.499H29.5962V15.7476ZM19.4102 21.9902H23.2225V25.7417H19.4102V21.9902ZM29.5962 21.9902H25.7839V25.7417H29.5962V21.9902Z" fill="white"/>
</svg>
