<svg width="20" height="22" viewBox="0 0 20 22" fill="none" xmlns="http://www.w3.org/2000/svg">
<path d="M10.5078 3.99219C10.3672 3.99219 10.2422 3.94531 10.1328 3.85156C10.0391 3.75781 9.99219 3.64062 9.99219 3.5V1.50781C9.99219 1.36719 10.0391 1.25 10.1328 1.15625C10.2422 1.04688 10.3672 0.992188 10.5078 0.992188C10.6328 0.992188 10.7422 1.04688 10.8359 1.15625C10.9453 1.25 11 1.36719 11 1.50781V3.5C11 3.64062 10.9453 3.75781 10.8359 3.85156C10.7422 3.94531 10.6328 3.99219 10.5078 3.99219ZM16.4375 5.25781L17.8438 3.85156C17.9531 3.75781 18.0078 3.64062 18.0078 3.5C18.0078 3.35938 17.9531 3.24219 17.8438 3.14844C17.75 3.05469 17.6328 3.00781 17.4922 3.00781C17.3672 3.00781 17.25 3.05469 17.1406 3.14844L15.7344 4.55469C15.6406 4.64844 15.5938 4.76562 15.5938 4.90625C15.5938 5.04688 15.6406 5.16406 15.7344 5.25781C15.8281 5.36719 15.9453 5.42188 16.0859 5.42188C16.2266 5.42188 16.3438 5.36719 16.4375 5.25781ZM5.25781 4.55469L3.85156 3.14844C3.75781 3.05469 3.64062 3.00781 3.5 3.00781C3.35938 3.00781 3.24219 3.05469 3.14844 3.14844C3.05469 3.24219 3.00781 3.35938 3.00781 3.5C3.00781 3.64062 3.05469 3.75781 3.14844 3.85156L4.55469 5.25781C4.64844 5.36719 4.76562 5.42188 4.90625 5.42188C5.04688 5.42188 5.16406 5.36719 5.25781 5.25781C5.36719 5.16406 5.42188 5.04688 5.42188 4.90625C5.42188 4.76562 5.36719 4.64844 5.25781 4.55469ZM3.5 9.00781H1.50781C1.36719 9.00781 1.24219 9.05469 1.13281 9.14844C1.03906 9.24219 0.992188 9.35938 0.992188 9.5C0.992188 9.64062 1.03906 9.75781 1.13281 9.85156C1.24219 9.94531 1.36719 9.99219 1.50781 9.99219H3.5C3.64062 9.99219 3.75781 9.94531 3.85156 9.85156C3.94531 9.75781 3.99219 9.64062 3.99219 9.5C3.99219 9.35938 3.94531 9.24219 3.85156 9.14844C3.75781 9.05469 3.64062 9.00781 3.5 9.00781ZM19.5078 9.00781H17.4922C17.3672 9.00781 17.25 9.05469 17.1406 9.14844C17.0469 9.24219 17 9.35938 17 9.5C17 9.64062 17.0469 9.75781 17.1406 9.85156C17.25 9.94531 17.3672 9.99219 17.4922 9.99219H19.5078C19.6328 9.99219 19.7422 9.94531 19.8359 9.85156C19.9453 9.75781 20 9.64062 20 9.5C20 9.35938 19.9453 9.24219 19.8359 9.14844C19.7422 9.05469 19.6328 9.00781 19.5078 9.00781ZM10.5078 5C11.2578 5 11.9688 5.14062 12.6406 5.42188C13.3125 5.71875 13.8906 6.11719 14.375 6.61719C14.875 7.11719 15.2734 7.69531 15.5703 8.35156C15.8516 9.02344 15.9922 9.74219 15.9922 10.5078C15.9922 11.5703 15.7109 12.5391 15.1484 13.4141C14.6016 14.2891 13.8828 14.9531 12.9922 15.4062V18.0078C12.9922 18.2734 12.8906 18.5078 12.6875 18.7109C12.5 18.8984 12.2734 18.9922 12.0078 18.9922H9.00781C8.72656 18.9922 8.48438 18.8984 8.28125 18.7109C8.09375 18.5078 8 18.2734 8 18.0078V15.4062C7.10938 14.9531 6.38281 14.2891 5.82031 13.4141C5.27344 12.5391 5 11.5703 5 10.5078C5 9.74219 5.14062 9.02344 5.42188 8.35156C5.71875 7.69531 6.11719 7.11719 6.61719 6.61719C7.11719 6.11719 7.69531 5.71875 8.35156 5.42188C9.02344 5.14062 9.74219 5 10.5078 5ZM12.5 20H8.49219C8.36719 20 8.25 20.0469 8.14062 20.1406C8.04688 20.25 8 20.3672 8 20.4922C8 20.6328 8.04688 20.75 8.14062 20.8438C8.25 20.9531 8.36719 21.0078 8.49219 21.0078H12.5C12.6406 21.0078 12.7578 20.9531 12.8516 20.8438C12.9453 20.75 12.9922 20.6328 12.9922 20.4922C12.9922 20.3672 12.9453 20.25 12.8516 20.1406C12.7578 20.0469 12.6406 20 12.5 20Z" fill="#56504C"/>
</svg>
