<svg width="90" height="62" viewBox="0 0 90 62" fill="none" xmlns="http://www.w3.org/2000/svg">
<circle cx="44.4738" cy="30.9999" r="30.7697" fill="#FAF7F5"/>
<path fill-rule="evenodd" clip-rule="evenodd" d="M0.0286865 33.4172H10.969V29.6523H0.0286865V33.4172Z" fill="#001E4F"/>
<path fill-rule="evenodd" clip-rule="evenodd" d="M35.5307 18.0083V45.0593H22.0052C14.5358 45.0593 8.47968 39.0032 8.47968 31.5338C8.47968 24.0644 14.5358 18.0083 22.0052 18.0083H35.5307Z" fill="#91A0BF"/>
<path fill-rule="evenodd" clip-rule="evenodd" d="M29.0035 45.0593H35.5319V18.0083H29.0035V45.0593Z" fill="#1C407D"/>
<path fill-rule="evenodd" clip-rule="evenodd" d="M35.5314 26.3966V21.944H41.0765C42.3064 21.944 43.3028 22.9405 43.3028 24.1703C43.3028 25.3992 42.3064 26.3966 41.0765 26.3966H35.5314Z" fill="#001E4F"/>
<path fill-rule="evenodd" clip-rule="evenodd" d="M35.5314 41.1248V36.6731H41.0765C42.3064 36.6731 43.3028 37.6696 43.3028 38.8994C43.3028 40.1283 42.3064 41.1248 41.0765 41.1248H35.5314Z" fill="#001E4F"/>
<path fill-rule="evenodd" clip-rule="evenodd" d="M79.0309 33.4162H89.9713V29.6523H79.0309V33.4162Z" fill="#001E4F"/>
<path fill-rule="evenodd" clip-rule="evenodd" d="M54.6129 45.0605V18.0095H68.1384C75.6078 18.0095 81.6639 24.0656 81.6639 31.535C81.6639 39.0044 75.6078 45.0605 68.1384 45.0605H54.6129Z" fill="#91A0BF"/>
<path fill-rule="evenodd" clip-rule="evenodd" d="M54.6129 45.0593H61.1404V18.0083H54.6129V45.0593Z" fill="#1C407D"/>
</svg>
