<svg width="12" height="11" viewBox="0 0 12 11" fill="none" xmlns="http://www.w3.org/2000/svg">
<path d="M6 0.378418C5.3125 0.378418 4.66406 0.51123 4.05469 0.776855C3.44531 1.03467 2.91406 1.39014 2.46094 1.84326C2.00781 2.29639 1.65234 2.82764 1.39453 3.43701C1.12891 4.04639 0.996094 4.69482 0.996094 5.38232C0.996094 6.06982 1.12891 6.71826 1.39453 7.32764C1.65234 7.93701 2.00781 8.46826 2.46094 8.92139C2.91406 9.37451 3.44531 9.72998 4.05469 9.98779C4.66406 10.2534 5.3125 10.3862 6 10.3862C6.6875 10.3862 7.33594 10.2534 7.94531 9.98779C8.55469 9.72998 9.08594 9.37451 9.53906 8.92139C9.99219 8.46826 10.3477 7.93701 10.6055 7.32764C10.8711 6.71826 11.0039 6.06982 11.0039 5.38232C11.0039 4.69482 10.8711 4.04639 10.6055 3.43701C10.3477 2.82764 9.99219 2.29639 9.53906 1.84326C9.08594 1.39014 8.55469 1.03467 7.94531 0.776855C7.33594 0.51123 6.6875 0.378418 6 0.378418ZM6 9.82373C5.38281 9.82373 4.80469 9.71045 4.26562 9.48389C3.72656 9.24951 3.25391 8.93311 2.84766 8.53467C2.44922 8.12842 2.13281 7.65576 1.89844 7.1167C1.67188 6.57764 1.55859 5.99951 1.55859 5.38232C1.55859 4.76514 1.67188 4.18701 1.89844 3.64795C2.13281 3.10889 2.44922 2.64014 2.84766 2.2417C3.25391 1.83545 3.72656 1.51514 4.26562 1.28076C4.80469 1.0542 5.38281 0.940918 6 0.940918C6.61719 0.940918 7.19531 1.0542 7.73438 1.28076C8.27344 1.51514 8.74219 1.83545 9.14062 2.2417C9.54688 2.64014 9.86719 3.10889 10.1016 3.64795C10.3281 4.18701 10.4414 4.76514 10.4414 5.38232C10.4414 5.99951 10.3281 6.57764 10.1016 7.1167C9.86719 7.65576 9.54688 8.12842 9.14062 8.53467C8.74219 8.93311 8.27344 9.24951 7.73438 9.48389C7.19531 9.71045 6.61719 9.82373 6 9.82373ZM6.60938 7.06982L6.79688 7.18701C6.65625 7.39795 6.53125 7.57373 6.42188 7.71436C6.3125 7.85498 6.22266 7.96045 6.15234 8.03076C6.02734 8.14795 5.89844 8.23779 5.76562 8.30029C5.64062 8.35498 5.50781 8.38232 5.36719 8.38232C5.28906 8.38232 5.21094 8.37061 5.13281 8.34717C5.0625 8.32373 4.99609 8.28857 4.93359 8.2417C4.87109 8.18701 4.82422 8.12451 4.79297 8.0542C4.76172 7.97607 4.74609 7.89014 4.74609 7.79639C4.74609 7.75732 4.75 7.71045 4.75781 7.65576C4.76562 7.60107 4.78125 7.53467 4.80469 7.45654C4.8125 7.41748 4.82422 7.37061 4.83984 7.31592C4.85547 7.25342 4.87109 7.18701 4.88672 7.1167L5.50781 5.17139C5.50781 5.15576 5.50781 5.14404 5.50781 5.13623C5.51562 5.12842 5.51953 5.1167 5.51953 5.10107C5.52734 5.09326 5.53125 5.08545 5.53125 5.07764C5.53125 5.06201 5.53125 5.05029 5.53125 5.04248C5.53125 4.97998 5.51953 4.93311 5.49609 4.90186C5.48047 4.86279 5.45312 4.83545 5.41406 4.81982C5.38281 4.81201 5.33203 4.8042 5.26172 4.79639C5.19922 4.78076 5.11719 4.77295 5.01562 4.77295V4.53857C5.10156 4.53076 5.20312 4.52295 5.32031 4.51514C5.4375 4.49951 5.57422 4.48389 5.73047 4.46826C5.87891 4.45264 6.00781 4.43701 6.11719 4.42139C6.22656 4.40576 6.3125 4.39014 6.375 4.37451L6.75 4.3042L5.98828 6.76514C5.96484 6.87451 5.94141 6.96826 5.91797 7.04639C5.90234 7.1167 5.89062 7.17139 5.88281 7.21045C5.85156 7.31201 5.82812 7.39795 5.8125 7.46826C5.80469 7.53076 5.80078 7.57764 5.80078 7.60889C5.80078 7.64014 5.80469 7.66748 5.8125 7.69092C5.82031 7.71436 5.83203 7.72998 5.84766 7.73779C5.86328 7.74561 5.875 7.75342 5.88281 7.76123C5.89844 7.76123 5.91797 7.76123 5.94141 7.76123C5.98047 7.76123 6.02734 7.7417 6.08203 7.70264C6.13672 7.66357 6.19531 7.60889 6.25781 7.53857C6.32812 7.46045 6.39062 7.38232 6.44531 7.3042C6.5 7.22607 6.55469 7.14795 6.60938 7.06982ZM6.99609 3.00342C6.99609 3.17529 6.93359 3.32373 6.80859 3.44873C6.69141 3.57373 6.54688 3.63623 6.375 3.63623C6.20312 3.63623 6.05469 3.57373 5.92969 3.44873C5.8125 3.32373 5.75391 3.17529 5.75391 3.00342C5.75391 2.83154 5.8125 2.68701 5.92969 2.56982C6.05469 2.44482 6.20312 2.38232 6.375 2.38232C6.54688 2.38232 6.69141 2.44482 6.80859 2.56982C6.93359 2.68701 6.99609 2.83154 6.99609 3.00342Z" fill="#007AB7"/>
</svg>
