<svg width="24" height="24" viewBox="0 0 24 24" fill="none" xmlns="http://www.w3.org/2000/svg">
<path d="M12 1.99219C10.625 1.99219 9.32812 2.25781 8.10938 2.78906C6.89062 3.30469 5.82812 4.01563 4.92188 4.92188C4.01562 5.82812 3.30469 6.89062 2.78906 8.10938C2.25781 9.32812 1.99219 10.625 1.99219 12C1.99219 13.375 2.25781 14.6719 2.78906 15.8906C3.30469 17.1094 4.01562 18.1719 4.92188 19.0781C5.82812 19.9844 6.89062 20.6953 8.10938 21.2109C9.32812 21.7422 10.625 22.0078 12 22.0078C13.375 22.0078 14.6719 21.7422 15.8906 21.2109C17.1094 20.6953 18.1719 19.9844 19.0781 19.0781C19.9844 18.1719 20.6953 17.1094 21.2109 15.8906C21.7422 14.6719 22.0078 13.375 22.0078 12C22.0078 10.625 21.7422 9.32812 21.2109 8.10938C20.6953 6.89062 19.9844 5.82812 19.0781 4.92188C18.1719 4.01563 17.1094 3.30469 15.8906 2.78906C14.6719 2.25781 13.375 1.99219 12 1.99219ZM13.2188 15.375L13.5938 15.6094C13.3125 16.0312 13.0625 16.3828 12.8438 16.6641C12.625 16.9453 12.4453 17.1562 12.3047 17.2969C12.0547 17.5312 11.7969 17.7109 11.5312 17.8359C11.2812 17.9453 11.0156 18 10.7344 18C10.5781 18 10.4219 17.9766 10.2656 17.9297C10.125 17.8828 9.99219 17.8125 9.86719 17.7188C9.74219 17.6094 9.64844 17.4844 9.58594 17.3438C9.52344 17.1875 9.49219 17.0156 9.49219 16.8281C9.49219 16.75 9.5 16.6562 9.51562 16.5469C9.53125 16.4375 9.5625 16.3047 9.60938 16.1484C9.625 16.0703 9.64844 15.9766 9.67969 15.8672C9.71094 15.7422 9.74219 15.6094 9.77344 15.4688L11.0156 11.5781C11.0156 11.5469 11.0156 11.5234 11.0156 11.5078C11.0312 11.4922 11.0391 11.4688 11.0391 11.4375C11.0547 11.4219 11.0625 11.4062 11.0625 11.3906C11.0625 11.3594 11.0625 11.3359 11.0625 11.3203C11.0625 11.1953 11.0391 11.1016 10.9922 11.0391C10.9609 10.9609 10.9062 10.9062 10.8281 10.875C10.7656 10.8594 10.6641 10.8438 10.5234 10.8281C10.3984 10.7969 10.2344 10.7812 10.0312 10.7812V10.3125C10.2031 10.2969 10.4062 10.2812 10.6406 10.2656C10.875 10.2344 11.1484 10.2031 11.4609 10.1719C11.7578 10.1406 12.0156 10.1094 12.2344 10.0781C12.4531 10.0469 12.625 10.0156 12.75 9.98438L13.5 9.84375L11.9766 14.7656C11.9297 14.9844 11.8828 15.1719 11.8359 15.3281C11.8047 15.4688 11.7812 15.5781 11.7656 15.6562C11.7031 15.8594 11.6562 16.0312 11.625 16.1719C11.6094 16.2969 11.6016 16.3906 11.6016 16.4531C11.6016 16.5156 11.6094 16.5703 11.625 16.6172C11.6406 16.6641 11.6641 16.6953 11.6953 16.7109C11.7266 16.7266 11.75 16.7422 11.7656 16.7578C11.7969 16.7578 11.8359 16.7578 11.8828 16.7578C11.9609 16.7578 12.0547 16.7188 12.1641 16.6406C12.2734 16.5625 12.3906 16.4531 12.5156 16.3125C12.6562 16.1562 12.7812 16 12.8906 15.8438C13 15.6875 13.1094 15.5312 13.2188 15.375ZM13.9922 7.24219C13.9922 7.58594 13.8672 7.88281 13.6172 8.13281C13.3828 8.38281 13.0938 8.50781 12.75 8.50781C12.4062 8.50781 12.1094 8.38281 11.8594 8.13281C11.625 7.88281 11.5078 7.58594 11.5078 7.24219C11.5078 6.89844 11.625 6.60938 11.8594 6.375C12.1094 6.125 12.4062 6 12.75 6C13.0938 6 13.3828 6.125 13.6172 6.375C13.8672 6.60938 13.9922 6.89844 13.9922 7.24219Z" fill="white"/>
</svg>
