<svg width="32" height="32" viewBox="0 0 32 32" fill="none" xmlns="http://www.w3.org/2000/svg">
<path fill-rule="evenodd" clip-rule="evenodd" d="M16 32C24.8366 32 32 24.8366 32 16C32 7.16344 24.8366 0 16 0C7.16344 0 0 7.16344 0 16C0 24.8366 7.16344 32 16 32ZM6.26074 11.9148C6.26074 8.80104 8.80088 6.2609 11.9146 6.2609H20.0852C23.1989 6.2609 25.739 8.80104 25.739 11.9148V20.0853C25.739 23.199 23.1989 25.7392 20.091 25.7392H11.9146C8.80088 25.7392 6.26074 23.199 6.26074 20.0912V11.9148ZM20.0852 7.75923H11.9146C9.60857 7.75923 7.75907 9.60873 7.75907 11.9148V20.0912C7.75907 22.3913 9.60857 24.2408 11.9146 24.2408H20.091C22.3912 24.2408 24.2407 22.3913 24.2407 20.0853V11.9148C24.2407 9.60873 22.3912 7.75923 20.0852 7.75923ZM21.244 10.0067C21.244 9.59117 21.5776 9.25756 21.9932 9.25756C22.4087 9.25756 22.7423 9.59117 22.7423 10.0067C22.7423 10.4223 22.4087 10.7559 21.9932 10.7559C21.5776 10.7559 21.244 10.4223 21.244 10.0067ZM10.7557 16C10.7557 13.1146 13.1144 10.7559 15.9999 10.7559C18.8853 10.7559 21.244 13.1146 21.244 16C21.244 18.8855 18.8853 21.2442 15.9999 21.2442C13.1144 21.2442 10.7557 18.8855 10.7557 16ZM19.7457 16C19.7457 13.9223 18.0776 12.2542 15.9999 12.2542C13.9221 12.2542 12.2541 13.9223 12.2541 16C12.2541 18.0778 13.9221 19.7459 15.9999 19.7459C18.0776 19.7459 19.7457 18.0778 19.7457 16Z" fill="#C4C4C4"/>
</svg>
