<svg width="40" height="41" viewBox="0 0 40 41" fill="none" xmlns="http://www.w3.org/2000/svg">
<path d="M7.49023 25.9448V30.9546C7.49023 31.3062 7.60742 31.5991 7.8418 31.8335C8.0957 32.0874 8.39844 32.2144 8.75 32.2144H12.5C12.8516 32.2144 13.1445 32.0874 13.3789 31.8335C13.6328 31.5991 13.7598 31.3062 13.7598 30.9546V25.9448C13.7598 25.6128 13.6328 25.3296 13.3789 25.0952C13.1445 24.8413 12.8516 24.7144 12.5 24.7144H8.75C8.39844 24.7144 8.0957 24.8413 7.8418 25.0952C7.60742 25.3296 7.49023 25.6128 7.49023 25.9448ZM17.5098 17.2144V30.9546C17.5098 31.3062 17.627 31.5991 17.8613 31.8335C18.1152 32.0874 18.4082 32.2144 18.7402 32.2144H22.4902C22.8418 32.2144 23.1348 32.0874 23.3691 31.8335C23.623 31.5991 23.75 31.3062 23.75 30.9546V17.2144C23.75 16.8628 23.623 16.5698 23.3691 16.3354C23.1348 16.0815 22.8418 15.9546 22.4902 15.9546H18.7402C18.4082 15.9546 18.1152 16.0815 17.8613 16.3354C17.627 16.5698 17.5098 16.8628 17.5098 17.2144ZM27.5 8.45459V30.9546C27.5 31.3062 27.6172 31.5991 27.8516 31.8335C28.1055 32.0874 28.4082 32.2144 28.7598 32.2144H32.5098C32.8418 32.2144 33.125 32.0874 33.3594 31.8335C33.6133 31.5991 33.7402 31.3062 33.7402 30.9546V8.45459C33.7402 8.10303 33.6133 7.81006 33.3594 7.57568C33.125 7.32178 32.8418 7.19482 32.5098 7.19482H28.7598C28.4082 7.19482 28.1055 7.32178 27.8516 7.57568C27.6172 7.81006 27.5 8.10303 27.5 8.45459Z" fill="current"/>
</svg>
