<svg width="32" height="32" viewBox="0 0 32 32" fill="none" xmlns="http://www.w3.org/2000/svg">
<path fill-rule="evenodd" clip-rule="evenodd" d="M16 32C24.8366 32 32 24.8366 32 16C32 7.16344 24.8366 0 16 0C7.16344 0 0 7.16344 0 16C0 24.8366 7.16344 32 16 32ZM7.65169 9.74379C7.65188 8.59128 8.58685 7.65462 9.74198 7.65462C10.8943 7.65462 11.8308 8.59109 11.8308 9.74379C11.8308 10.8974 10.8945 11.8339 9.74216 11.8339C8.58667 11.8339 7.65169 10.8974 7.65169 9.74379ZM11.5439 13.4191H7.93953V25.0159H11.5439V13.4191ZM17.3098 15.0034C17.791 14.0918 18.9667 13.1305 20.72 13.1305C24.3699 13.1305 25.0436 15.5323 25.0436 18.6546V25.0153H21.4418V19.3756C21.4418 18.0309 21.4171 16.3011 19.5688 16.3011C17.6937 16.3011 17.4057 17.7661 17.4057 19.2786V25.0155H13.8044V13.4189H13.8046H17.2616V15.0034H17.3098Z" fill="#C4C4C4"/>
</svg>
