<svg width="50" height="50" viewBox="0 0 50 50" fill="none" xmlns="http://www.w3.org/2000/svg">
<path d="M8.33578 0H41.6642C46.2658 0 50 3.7331 50 8.33333V41.6667C50 46.2669 46.2658 50 41.6642 50H8.33578C3.71949 50 0 46.2669 0 41.6667V8.33333C0 3.7331 3.71949 0 8.33578 0Z" fill="white"/>
<rect x="4.45477" y="25.2888" width="3.88175" height="16.1141" fill="#000512"/>
<path fill-rule="evenodd" clip-rule="evenodd" d="M20.6433 30.1204C21.6137 29.5805 23.3929 28.9836 25.7749 28.9836C30.0683 28.9836 31.5534 31.3567 31.5534 34.2697V41.4173H28.3921L27.9657 40.1669H27.9216C27.0688 41.1331 25.6719 41.7157 24.0104 41.7157C21.2315 41.7157 19.717 39.8542 19.717 38.0212C19.717 34.895 22.8341 33.3177 27.8775 33.3319V33.204C27.8775 32.6356 27.407 31.5272 25.1279 31.5272C23.7605 31.5272 22.2607 31.9819 21.3785 32.4935L20.6433 30.1204ZM27.936 37.5663C27.9801 37.3674 27.9949 37.1542 27.9949 36.9553H27.9801V35.6764C27.7155 35.6764 27.4655 35.6764 27.2156 35.6906C26.8039 35.7048 26.4216 35.7332 26.0687 35.7901C24.5689 36.0174 23.5691 36.6001 23.5691 37.7368C23.5691 38.7457 24.3042 39.2857 25.3776 39.2857C26.598 39.2857 27.5243 38.5326 27.8625 37.7511C27.8699 37.7439 27.8735 37.7333 27.8772 37.7226C27.8809 37.712 27.8846 37.7013 27.8919 37.6942C27.9066 37.68 27.936 37.5947 27.936 37.5663Z" fill="#000512"/>
<path d="M42.2872 29.3387V36.4152C42.2872 36.6994 42.2578 36.9552 42.1549 37.1826C41.8461 37.9073 41.0815 38.7314 39.817 38.7314C38.229 38.7314 37.538 37.6089 37.538 35.7189V29.3245H33.7444V36.3868C33.7444 37.3389 33.8621 38.1346 34.0973 38.8025C34.3326 39.4704 34.6561 40.0103 35.0678 40.4366C35.4795 40.8629 35.9647 41.1898 36.5381 41.3887C37.1116 41.5876 37.7438 41.6871 38.4202 41.6871C39.023 41.6871 39.5524 41.616 40.0082 41.474C40.464 41.3319 40.8757 41.1613 41.1992 40.9624C41.5374 40.7635 41.8167 40.5503 42.0373 40.3229C42.2578 40.0956 42.4343 39.8824 42.5666 39.6977L43.0518 41.4171H46.1249V29.3387H42.2872Z" fill="#000512"/>
<path d="M11.9972 25.2888V29.3244H10.2181V32.0812H11.9972V36.9978C11.9972 38.6177 12.3354 39.8398 13.0559 40.5787C13.6881 41.2324 14.7762 41.7013 16.1142 41.7013C17.2611 41.7013 17.7022 41.5308 18.2168 41.346V38.5467C18.1139 38.5893 17.8051 38.6461 17.4229 38.6461C16.0701 38.6461 15.7613 37.8362 15.7613 36.3584V32.0812H18.1727V29.3244H15.7613V25.2888H11.9972V25.2888Z" fill="#000512"/>
<path fill-rule="evenodd" clip-rule="evenodd" d="M40.8459 25.2888L38.508 28.5429H41.2135L44.5218 25.2888H40.8459Z" fill="#000512"/>
</svg>
