<svg width="50" height="50" viewBox="0 0 50 50" fill="none" xmlns="http://www.w3.org/2000/svg">
<path d="M8.33578 0H41.6642C46.2658 0 50 3.7331 50 8.33333V41.6667C50 46.2669 46.2658 50 41.6642 50H8.33578C3.71949 50 0 46.2669 0 41.6667V8.33333C0 3.7331 3.71949 0 8.33578 0Z" fill="#000512"/>
<rect x="4.45312" y="25.2891" width="3.88175" height="16.1141" fill="white"/>
<path fill-rule="evenodd" clip-rule="evenodd" d="M20.6373 30.1212C21.6077 29.5812 23.3868 28.9844 25.7688 28.9844C30.0623 28.9844 31.5473 31.3574 31.5473 34.2705V41.4181H28.3861L27.9597 40.1676H27.9155C27.0627 41.1339 25.6659 41.7165 24.0044 41.7165C21.2254 41.7165 19.7109 39.855 19.7109 38.0219C19.7109 34.8957 22.8281 33.3184 27.8714 33.3326V33.2047C27.8714 32.6363 27.4009 31.528 25.1219 31.528C23.7544 31.528 22.2547 31.9827 21.3724 32.4942L20.6373 30.1212ZM27.9295 37.5696C27.9736 37.3707 27.9883 37.1575 27.9883 36.9586H27.9736V35.6797C27.7089 35.6797 27.459 35.6797 27.209 35.6939C26.7973 35.7081 26.415 35.7365 26.0621 35.7934C24.5623 36.0207 23.5625 36.6033 23.5625 37.7401C23.5625 38.749 24.2977 39.289 25.371 39.289C26.5914 39.289 27.5178 38.5359 27.856 37.7543C27.8633 37.7472 27.867 37.7366 27.8707 37.7259C27.8743 37.7153 27.878 37.7046 27.8854 37.6975C27.9001 37.6833 27.9295 37.598 27.9295 37.5696Z" fill="white"/>
<path d="M42.285 29.3423V36.4189C42.285 36.7031 42.2556 36.9589 42.1527 37.1862C41.8439 37.9109 41.0793 38.7351 39.8148 38.7351C38.2268 38.7351 37.5357 37.6125 37.5357 35.7226V29.3281H33.7422V36.3905C33.7422 37.3425 33.8598 38.1383 34.0951 38.8061C34.3303 39.474 34.6538 40.014 35.0655 40.4403C35.4772 40.8666 35.9624 41.1934 36.5359 41.3924C37.1093 41.5913 37.7416 41.6908 38.4179 41.6908C39.0208 41.6908 39.5501 41.6197 40.0059 41.4776C40.4617 41.3355 40.8734 41.165 41.1969 40.9661C41.5351 40.7671 41.8145 40.554 42.035 40.3266C42.2556 40.0993 42.432 39.8861 42.5644 39.7014L43.0496 41.4208H46.1226V29.3423H42.285Z" fill="white"/>
<path d="M11.9979 25.2891V29.3247H10.2188V32.0814H11.9979V36.998C11.9979 38.618 12.3361 39.84 13.0565 40.5789C13.6888 41.2326 14.7769 41.7015 16.1149 41.7015C17.2618 41.7015 17.7029 41.531 18.2175 41.3463V38.5469C18.1146 38.5896 17.8058 38.6464 17.4235 38.6464C16.0708 38.6464 15.762 37.8364 15.762 36.3586V32.0814H18.1734V29.3247H15.762V25.2891H11.9979V25.2891Z" fill="white"/>
<path fill-rule="evenodd" clip-rule="evenodd" d="M40.8457 25.2891L38.5078 28.5431H41.2133L44.5216 25.2891H40.8457Z" fill="white"/>
</svg>
