<svg width="18" height="14" viewBox="0 0 18 14" fill="none" xmlns="http://www.w3.org/2000/svg">
<path d="M17.5078 1.00781H0.492188C0.367187 1.00781 0.25 0.960938 0.140625 0.867188C0.046875 0.757812 0 0.632812 0 0.492188C0 0.367188 0.046875 0.257812 0.140625 0.164062C0.25 0.0546875 0.367187 0 0.492188 0H17.5078C17.6328 0 17.7422 0.0546875 17.8359 0.164062C17.9453 0.257812 18 0.367188 18 0.492188C18 0.632812 17.9453 0.757812 17.8359 0.867188C17.7422 0.960938 17.6328 1.00781 17.5078 1.00781ZM18 6.49219C18 6.36719 17.9453 6.25781 17.8359 6.16406C17.7422 6.05469 17.6328 6 17.5078 6H0.492188C0.367187 6 0.25 6.05469 0.140625 6.16406C0.046875 6.25781 0 6.36719 0 6.49219C0 6.63281 0.046875 6.75781 0.140625 6.86719C0.25 6.96094 0.367187 7.00781 0.492188 7.00781H17.5078C17.6328 7.00781 17.7422 6.96094 17.8359 6.86719C17.9453 6.75781 18 6.63281 18 6.49219ZM18 12.4922C18 12.3672 17.9453 12.2578 17.8359 12.1641C17.7422 12.0547 17.6328 12 17.5078 12H0.492188C0.367187 12 0.25 12.0547 0.140625 12.1641C0.046875 12.2578 0 12.3672 0 12.4922C0 12.6328 0.046875 12.7578 0.140625 12.8672C0.25 12.9609 0.367187 13.0078 0.492188 13.0078H17.5078C17.6328 13.0078 17.7422 12.9609 17.8359 12.8672C17.9453 12.7578 18 12.6328 18 12.4922Z" fill="white"/>
</svg>
