<svg width="32" height="32" viewBox="0 0 32 32" fill="none" xmlns="http://www.w3.org/2000/svg">
<path d="M23.9922 19.9922C23.4453 19.9922 22.9766 19.7969 22.5859 19.4062C22.1953 19.0156 22 18.5469 22 18V13.9922C22 13.2734 21.8828 12.5938 21.6484 11.9531C21.4141 11.3125 21.0859 10.7344 20.6641 10.2188C20.2422 9.70312 19.7422 9.26562 19.1641 8.90625C18.6016 8.54688 17.9844 8.28906 17.3125 8.13281C17.3125 8.13281 17.3047 8.13281 17.2891 8.13281C17.2578 8.13281 17.2266 8.13281 17.1953 8.13281C17.1797 8.11719 17.1562 8.10938 17.125 8.10938C17.125 8.10938 17.1172 8.10938 17.1016 8.10938C17.0859 8.09375 17.0703 8.08594 17.0547 8.08594C17.0391 8.08594 17.0312 8.08594 17.0312 8.08594C17.0156 8.08594 17 8.08594 16.9844 8.08594C16.9531 8.07031 16.9297 8.0625 16.9141 8.0625C16.8984 8.0625 16.8828 8.0625 16.8672 8.0625C16.8516 8.0625 16.8359 8.0625 16.8203 8.0625C16.8203 8.0625 16.8125 8.05469 16.7969 8.03906C16.7812 8.03906 16.7656 8.03906 16.75 8.03906C16.75 8.03906 16.7422 8.03906 16.7266 8.03906C16.7109 8.03906 16.6953 8.03906 16.6797 8.03906C16.6797 8.03906 16.6719 8.03906 16.6562 8.03906C16.6406 8.03906 16.625 8.03906 16.6094 8.03906C16.6094 8.02344 16.6016 8.01562 16.5859 8.01562C16.5703 8.01562 16.5547 8.01562 16.5391 8.01562C16.5234 8.01562 16.5078 8.01562 16.4922 8.01562C16.4766 8.01562 16.4609 8.01562 16.4453 8.01562C16.4141 8.01562 16.3906 8.01562 16.375 8.01562C16.3594 8.01562 16.3438 8.01562 16.3281 8.01562C16.3125 8.01562 16.3047 8.01562 16.3047 8.01562C16.2734 8 16.25 7.99219 16.2344 7.99219C16.2188 7.99219 16.1953 7.99219 16.1641 7.99219C16.1641 7.99219 16.1562 7.99219 16.1406 7.99219C16.1094 7.99219 16.0781 7.99219 16.0469 7.99219C16.0312 7.99219 16.0156 7.99219 16 7.99219C15.9688 7.99219 15.9375 7.99219 15.9062 7.99219C15.8906 7.99219 15.875 7.99219 15.8594 7.99219C15.8594 7.99219 15.8516 7.99219 15.8359 7.99219C15.8047 7.99219 15.7734 7.99219 15.7422 7.99219C15.7266 7.99219 15.7109 8 15.6953 8.01562C15.6953 8.01562 15.6875 8.01562 15.6719 8.01562C15.6562 8.01562 15.6328 8.01562 15.6016 8.01562C15.5859 8.01562 15.5703 8.01562 15.5547 8.01562C15.5547 8.01562 15.5469 8.01562 15.5312 8.01562C15.5312 8.01562 15.5234 8.01562 15.5078 8.01562C15.4922 8.01562 15.4766 8.01562 15.4609 8.01562C15.4453 8.01562 15.4297 8.01562 15.4141 8.01562C15.3984 8.01562 15.3828 8.02344 15.3672 8.03906C15.3672 8.03906 15.3594 8.03906 15.3438 8.03906C15.3281 8.03906 15.3125 8.03906 15.2969 8.03906C15.2969 8.03906 15.2891 8.03906 15.2734 8.03906C15.2578 8.03906 15.2422 8.03906 15.2266 8.03906C15.2266 8.03906 15.2188 8.03906 15.2031 8.03906C15.1875 8.05469 15.1719 8.0625 15.1562 8.0625C15.1562 8.0625 15.1484 8.0625 15.1328 8.0625C15.1172 8.0625 15.0938 8.0625 15.0625 8.0625C15.0469 8.0625 15.0312 8.07031 15.0156 8.08594C15.0156 8.08594 15.0078 8.08594 14.9922 8.08594C14.9922 8.08594 14.9844 8.08594 14.9688 8.08594C14.9531 8.08594 14.9375 8.08594 14.9219 8.08594C14.9219 8.08594 14.9141 8.09375 14.8984 8.10938C14.8984 8.10938 14.8906 8.10938 14.875 8.10938C14.8438 8.10938 14.8125 8.11719 14.7812 8.13281C14.75 8.13281 14.7266 8.13281 14.7109 8.13281C14.6953 8.13281 14.6875 8.13281 14.6875 8.13281C14.0156 8.28906 13.3984 8.54688 12.8359 8.90625C12.2578 9.26562 11.7578 9.70312 11.3359 10.2188C10.9141 10.7344 10.5859 11.3125 10.3516 11.9531C10.1172 12.5938 10 13.2734 10 13.9922V18C10 18.5469 9.80469 19.0156 9.41406 19.4062C9.02344 19.7969 8.55469 19.9922 8.00781 19.9922C7.72656 19.9922 7.48438 20.0938 7.28125 20.2969C7.09375 20.4844 7 20.7188 7 21C7 21.2812 7.09375 21.5234 7.28125 21.7266C7.48438 21.9141 7.72656 22.0078 8.00781 22.0078H23.9922C24.2734 22.0078 24.5078 21.9141 24.6953 21.7266C24.8984 21.5234 25 21.2812 25 21C25 20.7188 24.8984 20.4844 24.6953 20.2969C24.5078 20.0938 24.2734 19.9922 23.9922 19.9922ZM8.00781 21C8.39844 21 8.77344 20.9297 9.13281 20.7891C9.50781 20.6328 9.83594 20.4141 10.1172 20.1328C10.3984 19.8359 10.6172 19.5078 10.7734 19.1484C10.9297 18.7891 11.0078 18.4062 11.0078 18V13.9922C11.0078 13.3359 11.1328 12.7031 11.3828 12.0938C11.6328 11.4844 11.9922 10.9453 12.4609 10.4766C12.9297 9.99219 13.4688 9.625 14.0781 9.375C14.6875 9.125 15.3281 9 16 9C16.6719 9 17.3125 9.125 17.9219 9.375C18.5312 9.625 19.0703 9.99219 19.5391 10.4766C20.0078 10.9453 20.3672 11.4844 20.6172 12.0938C20.8672 12.7031 20.9922 13.3359 20.9922 13.9922V18C20.9922 18.4062 21.0703 18.7891 21.2266 19.1484C21.3828 19.5078 21.6016 19.8359 21.8828 20.1328C22.1641 20.4141 22.4844 20.6328 22.8438 20.7891C23.2031 20.9297 23.5859 21 23.9922 21H8.00781ZM14.0312 7.28906C14.0156 7.24219 14.0078 7.19531 14.0078 7.14844C14.0078 7.10156 14.0078 7.05469 14.0078 7.00781C14.0078 6.44531 14.2031 5.96875 14.5938 5.57812C14.9844 5.1875 15.4531 4.99219 16 4.99219C16.5469 4.99219 17.0156 5.1875 17.4062 5.57812C17.7969 5.96875 17.9922 6.44531 17.9922 7.00781C17.9922 7.05469 17.9922 7.10156 17.9922 7.14844C17.9922 7.19531 17.9844 7.24219 17.9688 7.28906C17.8125 7.24219 17.6484 7.20312 17.4766 7.17188C17.3203 7.125 17.1641 7.09375 17.0078 7.07812C17.0078 7.0625 17.0078 7.04688 17.0078 7.03125C17.0078 7.01562 17.0078 7.00781 17.0078 7.00781C17.0078 6.72656 16.9062 6.49219 16.7031 6.30469C16.5156 6.10156 16.2812 6 16 6C15.7188 6 15.4766 6.10156 15.2734 6.30469C15.0859 6.49219 14.9922 6.72656 14.9922 7.00781C14.9922 7.02344 14.9922 7.03906 14.9922 7.05469C14.9922 7.05469 14.9922 7.0625 14.9922 7.07812C14.8359 7.09375 14.6719 7.125 14.5 7.17188C14.3438 7.20312 14.1875 7.24219 14.0312 7.28906ZM17.7344 22.9922H18.8359C18.6172 23.5859 18.25 24.0703 17.7344 24.4453C17.2344 24.8203 16.6562 25.0078 16 25.0078C15.3438 25.0078 14.7578 24.8203 14.2422 24.4453C13.7266 24.0703 13.3672 23.5859 13.1641 22.9922H14.2656C14.4375 23.2891 14.6719 23.5312 14.9688 23.7188C15.2812 23.9062 15.625 24 16 24C16.3594 24 16.6953 23.9062 17.0078 23.7188C17.3203 23.5312 17.5625 23.2891 17.7344 22.9922Z" fill="white"/>
</svg>
