<svg width="95" height="8" viewBox="0 0 95 8" fill="none" xmlns="http://www.w3.org/2000/svg">
<path d="M6.53309 3.30664C6.53309 3.72266 6.45689 4.1123 6.30449 4.47559C6.14629 4.83887 5.92949 5.15817 5.65419 5.43357C5.38459 5.70317 5.06819 5.91697 4.70489 6.07517C4.34169 6.23337 3.95199 6.31247 3.53599 6.31247C3.11999 6.31247 2.73029 6.23337 2.36699 6.07517C2.00379 5.91697 1.68439 5.70317 1.40899 5.43357C1.1395 5.15817 0.925629 4.83887 0.767429 4.47559C0.615079 4.1123 0.53891 3.72266 0.53891 3.30664C0.53891 2.89648 0.615079 2.50684 0.767429 2.13769C0.925629 1.77441 1.1395 1.45801 1.40899 1.18848C1.68439 0.91895 2.00379 0.70508 2.36699 0.54687C2.73029 0.38867 3.11999 0.30957 3.53599 0.30957C3.95199 0.30957 4.34169 0.38867 4.70489 0.54687C5.06819 0.70508 5.38459 0.91895 5.65419 1.18848C5.92949 1.45801 6.14629 1.77441 6.30449 2.13769C6.45689 2.50684 6.53309 2.89648 6.53309 3.30664ZM8.68399 6.57357C8.68399 6.35157 8.73799 6.19557 8.84599 6.10557C8.95399 6.01557 9.08299 5.97057 9.23299 5.97057C9.38899 5.97057 9.52099 6.01557 9.62899 6.10557C9.74299 6.19557 9.79999 6.35157 9.79999 6.57357C9.79999 6.78957 9.74299 6.94557 9.62899 7.04157C9.52099 7.13757 9.38899 7.18557 9.23299 7.18557C9.08299 7.18557 8.95399 7.13757 8.84599 7.04157C8.73799 6.94557 8.68399 6.78957 8.68399 6.57357ZM17.9413 3.30664C17.9413 3.72266 17.8651 4.1123 17.7127 4.47559C17.5545 4.83887 17.3377 5.15817 17.0624 5.43357C16.7928 5.70317 16.4764 5.91697 16.1131 6.07517C15.7499 6.23337 15.3602 6.31247 14.9442 6.31247C14.5282 6.31247 14.1385 6.23337 13.7752 6.07517C13.412 5.91697 13.0926 5.70317 12.8172 5.43357C12.5477 5.15817 12.3338 4.83887 12.1756 4.47559C12.0233 4.1123 11.9471 3.72266 11.9471 3.30664C11.9471 2.89648 12.0233 2.50684 12.1756 2.13769C12.3338 1.77441 12.5477 1.45801 12.8172 1.18848C13.0926 0.91895 13.412 0.70508 13.7752 0.54687C14.1385 0.38867 14.5282 0.30957 14.9442 0.30957C15.3602 0.30957 15.7499 0.38867 16.1131 0.54687C16.4764 0.70508 16.7928 0.91895 17.0624 1.18848C17.3377 1.45801 17.5545 1.77441 17.7127 2.13769C17.8651 2.50684 17.9413 2.89648 17.9413 3.30664ZM26.9413 3.30664C26.9413 3.72266 26.8651 4.1123 26.7127 4.47559C26.5545 4.83887 26.3377 5.15817 26.0624 5.43357C25.7928 5.70317 25.4764 5.91697 25.1131 6.07517C24.7499 6.23337 24.3602 6.31247 23.9442 6.31247C23.5282 6.31247 23.1385 6.23337 22.7752 6.07517C22.412 5.91697 22.0926 5.70317 21.8172 5.43357C21.5477 5.15817 21.3338 4.83887 21.1756 4.47559C21.0233 4.1123 20.9471 3.72266 20.9471 3.30664C20.9471 2.89648 21.0233 2.50684 21.1756 2.13769C21.3338 1.77441 21.5477 1.45801 21.8172 1.18848C22.0926 0.91895 22.412 0.70508 22.7752 0.54687C23.1385 0.38867 23.5282 0.30957 23.9442 0.30957C24.3602 0.30957 24.7499 0.38867 25.1131 0.54687C25.4764 0.70508 25.7928 0.91895 26.0624 1.18848C26.3377 1.45801 26.5545 1.77441 26.7127 2.13769C26.8651 2.50684 26.9413 2.89648 26.9413 3.30664ZM35.9413 3.30664C35.9413 3.72266 35.8651 4.1123 35.7127 4.47559C35.5545 4.83887 35.3377 5.15817 35.0624 5.43357C34.7928 5.70317 34.4764 5.91697 34.1131 6.07517C33.7499 6.23337 33.3602 6.31247 32.9442 6.31247C32.5282 6.31247 32.1385 6.23337 31.7752 6.07517C31.412 5.91697 31.0926 5.70317 30.8172 5.43357C30.5477 5.15817 30.3338 4.83887 30.1756 4.47559C30.0233 4.1123 29.9471 3.72266 29.9471 3.30664C29.9471 2.89648 30.0233 2.50684 30.1756 2.13769C30.3338 1.77441 30.5477 1.45801 30.8172 1.18848C31.0926 0.91895 31.412 0.70508 31.7752 0.54687C32.1385 0.38867 32.5282 0.30957 32.9442 0.30957C33.3602 0.30957 33.7499 0.38867 34.1131 0.54687C34.4764 0.70508 34.7928 0.91895 35.0624 1.18848C35.3377 1.45801 35.5545 1.77441 35.7127 2.13769C35.8651 2.50684 35.9413 2.89648 35.9413 3.30664ZM38.0922 6.57357C38.0922 6.35157 38.1462 6.19557 38.2542 6.10557C38.3622 6.01557 38.4912 5.97057 38.6412 5.97057C38.7972 5.97057 38.9292 6.01557 39.0372 6.10557C39.1512 6.19557 39.2082 6.35157 39.2082 6.57357C39.2082 6.78957 39.1512 6.94557 39.0372 7.04157C38.9292 7.13757 38.7972 7.18557 38.6412 7.18557C38.4912 7.18557 38.3622 7.13757 38.2542 7.04157C38.1462 6.94557 38.0922 6.78957 38.0922 6.57357ZM47.3495 3.30664C47.3495 3.72266 47.2733 4.1123 47.121 4.47559C46.9627 4.83887 46.746 5.15817 46.4706 5.43357C46.201 5.70317 45.8846 5.91697 45.5213 6.07517C45.1581 6.23337 44.7684 6.31247 44.3524 6.31247C43.9364 6.31247 43.5467 6.23337 43.1835 6.07517C42.8202 5.91697 42.5008 5.70317 42.2254 5.43357C41.9559 5.15817 41.742 4.83887 41.5838 4.47559C41.4315 4.1123 41.3553 3.72266 41.3553 3.30664C41.3553 2.89648 41.4315 2.50684 41.5838 2.13769C41.742 1.77441 41.9559 1.45801 42.2254 1.18848C42.5008 0.91895 42.8202 0.70508 43.1835 0.54687C43.5467 0.38867 43.9364 0.30957 44.3524 0.30957C44.7684 0.30957 45.1581 0.38867 45.5213 0.54687C45.8846 0.70508 46.201 0.91895 46.4706 1.18848C46.746 1.45801 46.9627 1.77441 47.121 2.13769C47.2733 2.50684 47.3495 2.89648 47.3495 3.30664ZM56.3495 3.30664C56.3495 3.72266 56.2733 4.1123 56.121 4.47559C55.9627 4.83887 55.746 5.15817 55.4706 5.43357C55.201 5.70317 54.8846 5.91697 54.5213 6.07517C54.1581 6.23337 53.7684 6.31247 53.3524 6.31247C52.9364 6.31247 52.5467 6.23337 52.1835 6.07517C51.8202 5.91697 51.5008 5.70317 51.2254 5.43357C50.9559 5.15817 50.742 4.83887 50.5838 4.47559C50.4315 4.1123 50.3553 3.72266 50.3553 3.30664C50.3553 2.89648 50.4315 2.50684 50.5838 2.13769C50.742 1.77441 50.9559 1.45801 51.2254 1.18848C51.5008 0.91895 51.8202 0.70508 52.1835 0.54687C52.5467 0.38867 52.9364 0.30957 53.3524 0.30957C53.7684 0.30957 54.1581 0.38867 54.5213 0.54687C54.8846 0.70508 55.201 0.91895 55.4706 1.18848C55.746 1.45801 55.9627 1.77441 56.121 2.13769C56.2733 2.50684 56.3495 2.89648 56.3495 3.30664ZM65.3495 3.30664C65.3495 3.72266 65.2733 4.1123 65.121 4.47559C64.9627 4.83887 64.746 5.15817 64.4706 5.43357C64.201 5.70317 63.8846 5.91697 63.5213 6.07517C63.1581 6.23337 62.7684 6.31247 62.3524 6.31247C61.9364 6.31247 61.5467 6.23337 61.1835 6.07517C60.8202 5.91697 60.5008 5.70317 60.2254 5.43357C59.9559 5.15817 59.742 4.83887 59.5838 4.47559C59.4315 4.1123 59.3553 3.72266 59.3553 3.30664C59.3553 2.89648 59.4315 2.50684 59.5838 2.13769C59.742 1.77441 59.9559 1.45801 60.2254 1.18848C60.5008 0.91895 60.8202 0.70508 61.1835 0.54687C61.5467 0.38867 61.9364 0.30957 62.3524 0.30957C62.7684 0.30957 63.1581 0.38867 63.5213 0.54687C63.8846 0.70508 64.201 0.91895 64.4706 1.18848C64.746 1.45801 64.9627 1.77441 65.121 2.13769C65.2733 2.50684 65.3495 2.89648 65.3495 3.30664ZM67.5004 6.57357C67.5004 6.35157 67.5544 6.19557 67.6624 6.10557C67.7704 6.01557 67.8994 5.97057 68.0494 5.97057C68.2054 5.97057 68.3374 6.01557 68.4454 6.10557C68.5594 6.19557 68.6164 6.35157 68.6164 6.57357C68.6164 6.78957 68.5594 6.94557 68.4454 7.04157C68.3374 7.13757 68.2054 7.18557 68.0494 7.18557C67.8994 7.18557 67.7704 7.13757 67.6624 7.04157C67.5544 6.94557 67.5004 6.78957 67.5004 6.57357ZM76.7577 3.30664C76.7577 3.72266 76.6815 4.1123 76.5292 4.47559C76.371 4.83887 76.1542 5.15817 75.8788 5.43357C75.6092 5.70317 75.2928 5.91697 74.9295 6.07517C74.5663 6.23337 74.1766 6.31247 73.7606 6.31247C73.3446 6.31247 72.9549 6.23337 72.5917 6.07517C72.2284 5.91697 71.909 5.70317 71.6336 5.43357C71.3641 5.15817 71.1502 4.83887 70.992 4.47559C70.8397 4.1123 70.7635 3.72266 70.7635 3.30664C70.7635 2.89648 70.8397 2.50684 70.992 2.13769C71.1502 1.77441 71.3641 1.45801 71.6336 1.18848C71.909 0.91895 72.2284 0.70508 72.5917 0.54687C72.9549 0.38867 73.3446 0.30957 73.7606 0.30957C74.1766 0.30957 74.5663 0.38867 74.9295 0.54687C75.2928 0.70508 75.6092 0.91895 75.8788 1.18848C76.1542 1.45801 76.371 1.77441 76.5292 2.13769C76.6815 2.50684 76.7577 2.89648 76.7577 3.30664ZM85.7577 3.30664C85.7577 3.72266 85.6815 4.1123 85.5292 4.47559C85.371 4.83887 85.1542 5.15817 84.8788 5.43357C84.6092 5.70317 84.2928 5.91697 83.9295 6.07517C83.5663 6.23337 83.1766 6.31247 82.7606 6.31247C82.3446 6.31247 81.9549 6.23337 81.5917 6.07517C81.2284 5.91697 80.909 5.70317 80.6336 5.43357C80.3641 5.15817 80.1502 4.83887 79.992 4.47559C79.8397 4.1123 79.7635 3.72266 79.7635 3.30664C79.7635 2.89648 79.8397 2.50684 79.992 2.13769C80.1502 1.77441 80.3641 1.45801 80.6336 1.18848C80.909 0.91895 81.2284 0.70508 81.5917 0.54687C81.9549 0.38867 82.3446 0.30957 82.7606 0.30957C83.1766 0.30957 83.5663 0.38867 83.9295 0.54687C84.2928 0.70508 84.6092 0.91895 84.8788 1.18848C85.1542 1.45801 85.371 1.77441 85.5292 2.13769C85.6815 2.50684 85.7577 2.89648 85.7577 3.30664ZM94.7576 3.30664C94.7576 3.72266 94.6816 4.1123 94.5296 4.47559C94.3706 4.83887 94.1546 5.15817 93.8786 5.43357C93.6096 5.70317 93.2926 5.91697 92.9296 6.07517C92.5666 6.23337 92.1766 6.31247 91.7606 6.31247C91.3446 6.31247 90.9549 6.23337 90.5917 6.07517C90.2284 5.91697 89.909 5.70317 89.6336 5.43357C89.3641 5.15817 89.1502 4.83887 88.992 4.47559C88.8397 4.1123 88.7635 3.72266 88.7635 3.30664C88.7635 2.89648 88.8397 2.50684 88.992 2.13769C89.1502 1.77441 89.3641 1.45801 89.6336 1.18848C89.909 0.91895 90.2284 0.70508 90.5917 0.54687C90.9549 0.38867 91.3446 0.30957 91.7606 0.30957C92.1766 0.30957 92.5666 0.38867 92.9296 0.54687C93.2926 0.70508 93.6096 0.91895 93.8786 1.18848C94.1546 1.45801 94.3706 1.77441 94.5296 2.13769C94.6816 2.50684 94.7576 2.89648 94.7576 3.30664Z" fill="#56504C"/>
</svg>
