<svg width="16" height="4" viewBox="0 0 16 4" fill="none" xmlns="http://www.w3.org/2000/svg">
<path d="M9.99219 2C9.99219 2.54688 9.79688 3.01562 9.40625 3.40625C9.01562 3.79688 8.54688 3.99219 8 3.99219C7.45312 3.99219 6.98438 3.79688 6.59375 3.40625C6.20312 3.01562 6.00781 2.54688 6.00781 2C6.00781 1.45312 6.20312 0.984375 6.59375 0.59375C6.98438 0.203125 7.45312 0.0078125 8 0.0078125C8.54688 0.0078125 9.01562 0.203125 9.40625 0.59375C9.79688 0.984375 9.99219 1.45312 9.99219 2ZM2 0.0078125C1.45312 0.0078125 0.984375 0.203125 0.59375 0.59375C0.203125 0.984375 0.0078125 1.45312 0.0078125 2C0.0078125 2.54688 0.203125 3.01562 0.59375 3.40625C0.984375 3.79688 1.45312 3.99219 2 3.99219C2.54687 3.99219 3.01562 3.79688 3.40625 3.40625C3.79688 3.01562 3.99219 2.54688 3.99219 2C3.99219 1.45312 3.79688 0.984375 3.40625 0.59375C3.01562 0.203125 2.54687 0.0078125 2 0.0078125ZM14 0.0078125C13.4531 0.0078125 12.9844 0.203125 12.5938 0.59375C12.2031 0.984375 12.0078 1.45312 12.0078 2C12.0078 2.54688 12.2031 3.01562 12.5938 3.40625C12.9844 3.79688 13.4531 3.99219 14 3.99219C14.5469 3.99219 15.0156 3.79688 15.4062 3.40625C15.7969 3.01562 15.9922 2.54688 15.9922 2C15.9922 1.45312 15.7969 0.984375 15.4062 0.59375C15.0156 0.203125 14.5469 0.0078125 14 0.0078125Z" fill="#EC7000"/>
</svg>
