<svg width="40" height="42" viewBox="0 0 40 42" fill="none" xmlns="http://www.w3.org/2000/svg">
<path d="M19.3848 8.56665C17.7441 8.56665 16.2012 8.87915 14.7559 9.50415C13.3105 10.1096 12.0508 10.9495 10.9766 12.0237C9.90234 13.0979 9.05273 14.3577 8.42773 15.803C7.80273 17.2483 7.49023 18.7913 7.49023 20.4319C7.49023 22.0725 7.80273 23.6155 8.42773 25.0608C9.05273 26.5061 9.90234 27.7659 10.9766 28.8401C12.0508 29.9143 13.3105 30.7542 14.7559 31.3596C16.2012 31.9846 17.7441 32.2971 19.3848 32.2971C21.0254 32.2971 22.5586 31.9846 23.9844 31.3596C25.4297 30.7542 26.6895 29.9143 27.7637 28.8401C28.8379 27.7659 29.6875 26.5061 30.3125 25.0608C30.9375 23.6155 31.25 22.0725 31.25 20.4319C31.25 18.7913 30.9375 17.2483 30.3125 15.803C29.6875 14.3577 28.8379 13.0979 27.7637 12.0237C26.6895 10.9495 25.4297 10.1096 23.9844 9.50415C22.5586 8.87915 21.0254 8.56665 19.3848 8.56665ZM20.1465 26.467H20.1172C20.0977 26.467 20.0781 26.467 20.0586 26.467C20.0391 26.467 20.0195 26.467 20 26.467V27.9319C20 28.1077 19.9316 28.2542 19.7949 28.3713C19.6777 28.4885 19.541 28.5471 19.3848 28.5471C19.209 28.5471 19.0527 28.4885 18.916 28.3713C18.7988 28.2542 18.7402 28.1077 18.7402 27.9319V26.4963C18.252 26.4573 17.7637 26.3596 17.2754 26.2034C16.7871 26.0471 16.3867 25.8518 16.0742 25.6174L15.8398 25.4124L16.543 24.1526L16.8652 24.4163C17.1582 24.6506 17.5 24.8362 17.8906 24.9729C18.3008 25.0901 18.7012 25.1487 19.0918 25.1487C19.4434 25.1487 19.7559 25.0999 20.0293 25.0022C20.3223 24.9045 20.5664 24.7581 20.7617 24.5627C20.957 24.387 21.1035 24.1819 21.2012 23.9475C21.3184 23.6936 21.377 23.4299 21.377 23.1565C21.377 22.9026 21.3379 22.6682 21.2598 22.4534C21.1816 22.2385 21.0645 22.0432 20.9082 21.8674C20.7324 21.6721 20.5078 21.4866 20.2344 21.3108C19.9805 21.1155 19.668 20.9397 19.2969 20.7834C18.7695 20.5491 18.3203 20.3245 17.9492 20.1096C17.5781 19.8752 17.2754 19.6409 17.041 19.4065C16.7285 19.1135 16.4941 18.7913 16.3379 18.4397C16.2012 18.0881 16.1328 17.6975 16.1328 17.2678C16.1328 16.8772 16.1914 16.5061 16.3086 16.1545C16.4453 15.803 16.6406 15.4807 16.8945 15.1877C17.1289 14.9338 17.4023 14.719 17.7148 14.5432C18.0273 14.3479 18.3691 14.2112 18.7402 14.1331V12.9319C18.7402 12.7561 18.7988 12.6096 18.916 12.4924C19.0527 12.3752 19.209 12.3167 19.3848 12.3167C19.541 12.3167 19.6777 12.3752 19.7949 12.4924C19.9316 12.6096 20 12.7561 20 12.9319V14.0745C20.0195 14.0745 20.0391 14.0745 20.0586 14.0745C20.0781 14.0745 20.0977 14.0745 20.1172 14.0745C20.5469 14.094 20.9473 14.1624 21.3184 14.2795C21.6895 14.3967 22.0312 14.5627 22.3438 14.7776L22.6074 14.9534L21.9043 16.2131L21.582 16.0081C21.4258 15.8909 21.1719 15.7639 20.8203 15.6272C20.4883 15.4905 20.0781 15.4221 19.5898 15.4221C19.2773 15.4221 18.9844 15.4709 18.7109 15.5686C18.457 15.6467 18.2422 15.7737 18.0664 15.9495C17.9297 16.1057 17.8125 16.2913 17.7148 16.5061C17.6367 16.7014 17.5977 16.9065 17.5977 17.1213C17.5977 17.3752 17.6367 17.5999 17.7148 17.7952C17.793 17.9905 17.9199 18.176 18.0957 18.3518C18.2715 18.5081 18.4863 18.6643 18.7402 18.8206C19.0137 18.9768 19.3848 19.1526 19.8535 19.3479C20.3809 19.6018 20.8301 19.8557 21.2012 20.1096C21.5723 20.3635 21.8848 20.637 22.1387 20.9299C22.373 21.2424 22.5488 21.5745 22.666 21.926C22.8027 22.2776 22.8711 22.6584 22.8711 23.0686C22.8711 23.7522 22.666 24.4456 22.2559 25.1487C21.8457 25.8323 21.1426 26.2717 20.1465 26.467Z" fill="current"/>
</svg>
