<svg width="18" height="18" viewBox="0 0 18 18" fill="none" xmlns="http://www.w3.org/2000/svg">
<path d="M9.00001 0C8.83145 0 8.66989 0.0492399 8.51535 0.14772C8.3609 0.232119 8.24852 0.358736 8.17822 0.527552L6.30296 5.4021L0.803496 6.03514C0.410176 6.09141 0.157327 6.30948 0.0449501 6.68933C-0.0674271 7.05515 0.0309073 7.3646 0.339945 7.61787L4.51194 10.8042L2.742 16.8816C2.65772 17.177 2.71391 17.4373 2.91057 17.6624C3.10723 17.8875 3.33901 18 3.60591 18C3.67612 18 3.74633 17.993 3.81664 17.9789C3.90087 17.9508 3.97819 17.9155 4.0484 17.8734L9.00001 15.2989L13.9516 17.8734C14.0218 17.9155 14.0921 17.9508 14.1624 17.9789C14.2466 17.993 14.3239 18 14.3941 18C14.661 18 14.8928 17.8875 15.0894 17.6624C15.2861 17.4373 15.3423 17.177 15.258 16.8816L13.4881 10.8042L17.6601 7.61787C17.9692 7.3646 18.0674 7.05515 17.955 6.68933C17.8427 6.30948 17.5899 6.09141 17.1965 6.03514L11.6971 5.4021L9.82181 0.527552C9.7515 0.358736 9.63912 0.232119 9.48467 0.14772C9.33013 0.0492399 9.16858 0 9.00001 0Z" fill="#EC7000"/>
</svg>
