<svg width="40" height="41" viewBox="0 0 40 41" fill="none" xmlns="http://www.w3.org/2000/svg">
<path d="M9.48242 11.5601L17.5098 7.81006V31.7163L8.86719 13.2007C8.73047 12.8882 8.7207 12.5757 8.83789 12.2632C8.95508 11.9312 9.16992 11.6968 9.48242 11.5601ZM16.3672 32.2437L9.98047 18.5327L6.31836 28.5522C6.20117 28.8843 6.21094 29.2065 6.34766 29.519C6.50391 29.8315 6.74805 30.0464 7.08008 30.1636L17.0996 33.7964L16.3672 32.2437ZM29.9902 7.19482H20C19.6484 7.19482 19.3457 7.32178 19.0918 7.57568C18.8574 7.81006 18.7402 8.10303 18.7402 8.45459V32.2144C18.7402 32.5464 18.8574 32.8296 19.0918 33.064C19.3457 33.3179 19.6484 33.4448 20 33.4448H29.9902C30.3418 33.4448 30.6348 33.3179 30.8691 33.064C31.123 32.8296 31.25 32.5464 31.25 32.2144V8.45459C31.25 8.10303 31.123 7.81006 30.8691 7.57568C30.6348 7.32178 30.3418 7.19482 29.9902 7.19482Z" fill="current"/>
</svg>
