<svg width="32" height="32" viewBox="0 0 32 32" fill="none" xmlns="http://www.w3.org/2000/svg">
<path fill="#C4C4C4" fill-rule="evenodd" clip-rule="evenodd" d="M16 32C24.8366 32 32 24.8366 32 16C32 7.16344 24.8366 0 16 0C7.16344 0 0 7.16344 0 16C0 24.8366 7.16344 32 16 32ZM22.3801 9.7894C22.513 9.87592 22.6501 9.95572 22.7909 10.0285C23.7074 10.4855 24.6025 10.6246 25.0433 10.5768V14.1348C25.0433 14.1348 23.7852 14.0827 22.8514 13.8349C21.5498 13.4866 20.7155 12.9519 20.7155 12.9519C20.7155 12.9519 20.1364 12.5688 20.093 12.5427V19.8954C20.093 20.3041 19.9847 21.3267 19.6604 22.1792C19.3762 22.9083 18.9698 23.5835 18.4588 24.1761C18.4588 24.1761 17.6588 25.1678 16.2538 25.8334C15.0826 26.3884 14.0408 26.4188 13.627 26.4309C13.5931 26.4319 13.5635 26.4328 13.5384 26.4338C13.5384 26.4338 11.6147 26.5112 9.87962 25.3321L9.87092 25.3234V25.3321C9.28432 24.9228 8.76122 24.4292 8.31847 23.8674C7.76939 23.167 7.43247 22.3362 7.34552 22.0927V22.084C7.20727 21.6706 6.9173 20.6702 6.96078 19.7046C7.0299 18.0033 7.60071 16.9551 7.752 16.6943C8.14956 15.979 8.6689 15.3385 9.28663 14.8018C9.99162 14.2107 10.8114 13.7722 11.6944 13.5139C12.5773 13.2556 13.5042 13.1831 14.4166 13.301L14.4122 16.9504C14.1117 16.8524 13.7975 16.8027 13.4814 16.803C11.8116 16.803 10.4583 18.1646 10.4583 19.8463C10.4583 21.528 11.8116 22.8896 13.4814 22.8896C14.0013 22.8903 14.5124 22.7554 14.9643 22.4983C15.3979 22.252 15.7643 21.9028 16.0313 21.4816C16.2983 21.0604 16.4577 20.5801 16.4955 20.0828V20.075C16.4977 20.0646 16.4977 20.0541 16.4977 20.0441V20.0441C16.4981 20.0362 16.4986 20.0286 16.4991 20.0212C16.5001 20.006 16.5011 19.9915 16.5011 19.9763C16.509 19.7946 16.509 19.6107 16.509 19.4246V5.56527H20.093C20.0873 5.56527 20.0499 5.90873 20.1403 6.43957H20.136C20.2442 7.0791 20.5381 7.99254 21.325 8.89293C21.6395 9.23298 21.9937 9.53396 22.3801 9.7894Z"/>
</svg>
