<svg width="32" height="32" viewBox="0 0 32 32" fill="none" xmlns="http://www.w3.org/2000/svg">
<path fill="#C4C4C4" fill-rule="evenodd" clip-rule="evenodd" d="M16 32C24.8366 32 32 24.8366 32 16C32 7.16344 24.8366 0 16 0C7.16344 0 0 7.16344 0 16C0 24.8366 7.16344 32 16 32ZM23.2064 13.0987C23.2064 13.0173 23.1986 12.9359 23.1828 12.8544C23.5596 12.5776 23.8972 12.2763 24.1955 11.9505C24.5096 11.6085 24.7921 11.2421 25.0433 10.8512C24.7136 11.0141 24.3682 11.1444 24.0072 11.2421C23.646 11.3398 23.277 11.4131 22.9002 11.462C23.2927 11.2177 23.6303 10.9164 23.9129 10.5581C24.1955 10.1835 24.4075 9.77633 24.5488 9.33661C24.1876 9.54832 23.8108 9.73562 23.4183 9.89848C23.0258 10.0613 22.6176 10.1835 22.1937 10.2649C21.8483 9.89034 21.4401 9.59719 20.969 9.38546C20.5138 9.15746 20.0192 9.04346 19.4854 9.04346C18.4491 9.04346 17.5699 9.41803 16.8477 10.1672C16.1255 10.9164 15.7643 11.8284 15.7643 12.9033C15.7643 13.0499 15.7722 13.1964 15.7879 13.343C15.8036 13.4896 15.8271 13.6362 15.8586 13.7827C15.0893 13.7339 14.3592 13.628 13.6683 13.4652C12.9775 13.286 12.3259 13.0499 11.7136 12.7567C11.1013 12.4473 10.5282 12.0727 9.99443 11.633C9.4449 11.1932 8.94249 10.6802 8.48718 10.0939C8.33018 10.3708 8.20457 10.6721 8.11037 10.9978C8.03186 11.3235 7.99261 11.6655 7.99261 12.0238C7.99261 12.6916 8.14177 13.2534 8.44007 13.7094C8.73839 14.1492 9.13875 14.54 9.64117 14.8821C9.34285 14.8821 9.0524 14.8414 8.76979 14.7599C8.48718 14.6784 8.22027 14.5645 7.96906 14.4179V14.4424V14.4667C7.96906 15.395 8.25167 16.2094 8.81688 16.9097C9.3821 17.61 10.0886 18.0497 10.9365 18.2289C10.7795 18.2778 10.6146 18.3184 10.4419 18.351C10.2849 18.3673 10.1279 18.3754 9.97087 18.3754C9.84527 18.3754 9.67256 18.3673 9.45276 18.351C9.24865 18.3347 9.0838 18.3184 8.95819 18.3022C9.1937 19.0676 9.63331 19.6702 10.277 20.1099C10.9207 20.5333 11.643 20.7533 12.4437 20.7695C11.8157 21.2907 11.1092 21.6572 10.3241 21.8689C9.53911 22.0805 8.71483 22.1864 7.8513 22.1864C7.69431 22.1864 7.53729 22.1783 7.3803 22.162L6.95638 22.1131C7.77281 22.6669 8.65988 23.0659 9.61761 23.3102C10.591 23.5381 11.5959 23.6522 12.6321 23.6522C14.3435 23.6522 15.8586 23.3509 17.1774 22.7483C18.4806 22.1457 19.5796 21.364 20.4745 20.403C21.3695 19.4259 22.0524 18.3265 22.5234 17.1052C22.9787 15.8674 23.2064 14.6133 23.2064 13.343V13.0987Z"/>
</svg>
