<svg width="24" height="24" viewBox="0 0 24 24" fill="none" xmlns="http://www.w3.org/2000/svg">
<path d="M12 4.24414C11.0625 4.24414 10.2656 4.57812 9.60938 5.24609C8.95312 5.90234 8.625 6.69336 8.625 7.61914C8.625 8.55664 8.95312 9.35352 9.60938 10.0098C10.2656 10.666 11.0625 10.9941 12 10.9941C12.9375 10.9941 13.7344 10.666 14.3906 10.0098C15.0469 9.35352 15.375 8.55664 15.375 7.61914C15.375 6.69336 15.0469 5.90234 14.3906 5.24609C13.7344 4.57812 12.9375 4.24414 12 4.24414ZM10.5059 12.5059C9.88477 12.5059 9.29883 12.623 8.74805 12.8574C8.19727 13.0918 7.7168 13.4141 7.30664 13.8242C6.9082 14.2227 6.5918 14.6973 6.35742 15.248C6.12305 15.7988 6.00586 16.3848 6.00586 17.0059V18.1309C6.00586 18.4355 6.11133 18.6992 6.32227 18.9219C6.54492 19.1445 6.81445 19.2559 7.13086 19.2559H16.8691C17.1855 19.2559 17.4492 19.1445 17.6602 18.9219C17.8828 18.6992 17.9941 18.4355 17.9941 18.1309V17.0059C17.9941 16.3848 17.877 15.7988 17.6426 15.248C17.4082 14.6973 17.0859 14.2227 16.6758 13.8242C16.2773 13.4141 15.8027 13.0918 15.252 12.8574C14.7012 12.623 14.1152 12.5059 13.4941 12.5059H10.5059Z" fill="#56504C"/>
</svg>
