<svg width="48" height="49" viewBox="0 0 48 49" fill="none" xmlns="http://www.w3.org/2000/svg">
<g clip-path="url(#clip0_2048_33948)">
<path fill-rule="evenodd" clip-rule="evenodd" d="M38.6656 34.5408L32.603 27.9443C32.25 28.6419 31.7849 29.2791 31.3199 29.9078L36.3318 35.3675L34.7559 37.0812L29.744 31.6215C29.1584 32.1296 28.5814 32.5774 27.9355 33.0166L33.9981 39.613C34.2306 39.8628 34.4631 39.992 34.7559 39.992C35.109 39.992 35.3415 39.8628 35.574 39.613L38.6656 36.2459C39.1306 35.7378 39.1306 34.98 38.6656 34.5322V34.5408Z" fill="#000512"/>
<path fill-rule="evenodd" clip-rule="evenodd" d="M11.2118 21.0208C11.2118 15.6816 15.4315 11.2466 20.6415 11.2466C25.8515 11.2466 30.0109 15.6816 30.0109 21.0294C30.0109 22.6656 29.6578 24.1899 28.9603 25.5247C28.0819 27.3503 26.6782 28.8057 24.9817 29.7185C23.6383 30.4505 22.1743 30.8122 20.6501 30.8122C15.4401 30.8122 11.2204 26.4375 11.2204 21.0294L11.2118 21.0208ZM20.6415 8.99902C14.2 8.99902 8.98999 14.4071 8.98999 21.0208C8.98999 27.6345 14.2 33.1115 20.6415 33.1115C22.6307 33.1115 24.5081 32.6292 26.1443 31.6561C26.7901 31.2944 27.436 30.8638 28.0216 30.3816C28.6072 29.8993 29.1325 29.3482 29.6061 28.7454C30.0712 28.134 30.4845 27.4709 30.8376 26.7992C31.7763 25.1027 32.2413 23.1565 32.2413 21.0294C32.2413 14.4071 27.0313 8.99902 20.6415 8.99902Z" fill="#000512"/>
<path fill-rule="evenodd" clip-rule="evenodd" d="M20.6416 25.7398C17.86 25.7398 15.5435 23.4147 15.5435 20.6245C15.5435 17.8344 17.8514 15.5695 20.6416 15.5695C23.4317 15.5695 25.6794 17.8344 25.6794 20.6245C25.6794 23.4147 23.4231 25.7398 20.6416 25.7398ZM20.6416 13.3047C16.6114 13.3047 13.2959 16.6374 13.2959 20.6245C13.2959 24.6117 16.6114 27.9444 20.6416 27.9444C24.6718 27.9444 27.9356 24.672 27.9356 20.6245C27.9356 16.5771 24.6201 13.3047 20.6416 13.3047Z" fill="#FF5500"/>
</g>
<defs>
<clipPath id="clip0_2048_33948">
<rect width="30.02" height="31.0017" fill="white" transform="translate(8.98999 8.99902)"/>
</clipPath>
</defs>
</svg>
