<svg width="28" height="36" viewBox="0 0 28 36" fill="none" xmlns="http://www.w3.org/2000/svg">
<g clip-path="url(#clip0_2200_52654)">
<path d="M6.12514 19.7646H21.8751C22.1251 19.7646 22.3251 19.6846 22.4851 19.5146C22.6451 19.3246 22.7351 19.1046 22.7351 18.8546C22.7351 18.6346 22.6551 18.4446 22.4851 18.2846C22.3251 18.0946 22.1151 17.9946 21.8751 17.9946H6.12514C5.87514 17.9946 5.67514 18.0946 5.51514 18.2846C5.35514 18.4446 5.26514 18.6446 5.26514 18.8546C5.26514 19.1046 5.34514 19.3146 5.51514 19.5146C5.67514 19.6746 5.88514 19.7646 6.12514 19.7646Z" fill="#000512"/>
<path d="M6.12514 25.0146H21.8751C22.1251 25.0146 22.3251 24.9346 22.4851 24.7646C22.6451 24.5746 22.7351 24.3546 22.7351 24.1046C22.7351 23.8846 22.6551 23.6946 22.4851 23.5346C22.3251 23.3446 22.1151 23.2446 21.8751 23.2446H6.12514C5.87514 23.2446 5.67514 23.3446 5.51514 23.5346C5.35514 23.6946 5.26514 23.8946 5.26514 24.1046C5.26514 24.3546 5.34514 24.5646 5.51514 24.7646C5.67514 24.9246 5.88514 25.0146 6.12514 25.0146Z" fill="#000512"/>
<path d="M27.4551 1.01486C27.1251 0.654863 26.7351 0.484863 26.2651 0.484863H1.73514C1.27514 0.484863 0.865137 0.664863 0.505137 1.01486C0.175137 1.34486 0.0151367 1.75486 0.0151367 2.24486V33.7449C0.0151367 34.2349 0.175137 34.6449 0.505137 34.9749C0.865137 35.3349 1.27514 35.5049 1.73514 35.5049H26.2651C26.7251 35.5049 27.1251 35.3249 27.4551 34.9749C27.8151 34.6449 27.9851 34.2349 27.9851 33.7449V2.24486C27.9851 1.75486 27.8051 1.34486 27.4551 1.01486ZM26.2651 33.7449H1.73514V2.24486H26.2651V33.7449Z" fill="#000512"/>
<path d="M21.8751 28.4946H13.1351C12.8851 28.4946 12.6651 28.5946 12.4751 28.7846C12.3151 28.9446 12.2251 29.1446 12.2251 29.3546C12.2251 29.6046 12.3051 29.8146 12.4751 30.0146C12.6651 30.1746 12.8851 30.2646 13.1351 30.2646H21.8751C22.1251 30.2646 22.3251 30.1846 22.4851 30.0146C22.6451 29.8246 22.7351 29.6046 22.7351 29.3546C22.7351 29.1346 22.6551 28.9446 22.4851 28.7846C22.3251 28.5946 22.1151 28.4946 21.8751 28.4946Z" fill="#FF5500"/>
</g>
<defs>
<clipPath id="clip0_2200_52654">
<rect width="27.97" height="35.03" fill="white" transform="translate(0.0151367 0.484863)"/>
</clipPath>
</defs>
</svg>
