<svg width="1223" height="280" viewBox="0 0 1223 280" fill="none" xmlns="http://www.w3.org/2000/svg">
<g opacity="0.05">
<path d="M-175.655 -90.5139L-52.8853 -123.326C-33.5753 -128.5 -13.4844 -116.834 -8.38832 -97.5009L24.5018 25.2466C29.6766 44.5594 18.0897 64.6273 -1.30066 69.8229L-124.15 102.656C-143.482 107.751 -163.53 96.2436 -168.725 76.8523L-201.458 -45.9375C-206.632 -65.2485 -195.067 -85.3977 -175.655 -90.5139" stroke="#000512" stroke-width="2"/>
<path d="M56.1652 -152.631L178.935 -185.443C198.245 -190.617 218.336 -178.951 223.432 -159.618L256.322 -36.8706C261.497 -17.5578 249.91 2.51012 230.52 7.70574L107.67 40.5389C88.3383 45.6338 68.2908 34.1264 63.0949 14.7351L30.3628 -108.055C25.1884 -127.366 36.7536 -147.515 56.1652 -152.631" stroke="#000512" stroke-width="2"/>
<path d="M-113.538 141.308L9.2316 108.497C28.5416 103.322 48.6326 114.988 53.7286 134.321L86.6187 257.069C91.7935 276.382 80.2066 296.45 60.8163 301.645L-62.0329 334.478C-81.3651 339.573 -101.413 328.066 -106.608 308.675L-139.341 185.885C-144.515 166.574 -132.95 146.425 -113.538 141.308" stroke="#000512" stroke-width="2"/>
<path d="M118.282 79.1912L241.052 46.3794C260.362 41.2053 280.453 52.8713 285.549 72.2042L318.439 194.952C323.614 214.264 312.027 234.332 292.637 239.528L169.787 272.361C150.455 277.456 130.408 265.949 125.212 246.557L92.4797 123.768C87.3054 104.457 98.8705 84.3074 118.282 79.1912" stroke="#000512" stroke-width="2"/>
<path d="M350.11 17.075L472.88 -15.7368C492.19 -20.9109 512.281 -9.24495 517.377 10.088L550.267 132.835C555.442 152.148 543.855 172.216 524.465 177.412L401.616 210.245C382.283 215.34 362.236 203.832 357.04 184.441L324.308 61.6514C319.134 42.3404 330.699 22.1912 350.11 17.075" stroke="#000512" stroke-width="2"/>
<path d="M581.931 -45.0412L704.7 -77.8531C724.01 -83.0272 744.101 -71.3612 749.197 -52.0282L782.087 70.7192C787.262 90.032 775.675 110.1 756.285 115.296L633.436 148.129C614.104 153.224 594.056 141.716 588.86 122.325L556.128 -0.464844C550.954 -19.7758 562.519 -39.925 581.931 -45.0412" stroke="#000512" stroke-width="2"/>
<path d="M813.751 -107.158L936.521 -139.97C955.831 -145.144 975.922 -133.478 981.018 -114.145L1013.91 8.60205C1019.08 27.9148 1007.5 47.9828 988.105 53.1784L865.256 86.0115C845.924 91.1064 825.876 79.5991 820.681 60.2078L787.948 -62.582C782.774 -81.893 794.339 -102.042 813.751 -107.158" stroke="#000512" stroke-width="2"/>
<path d="M1045.57 -169.275L1168.34 -202.086C1187.65 -207.261 1207.74 -195.595 1212.84 -176.262L1245.73 -53.5142C1250.9 -34.2014 1239.32 -14.1334 1219.93 -8.93781L1097.08 23.8953C1077.74 28.9902 1057.7 17.4829 1052.5 -1.90844L1019.77 -124.698C1014.59 -144.009 1026.16 -164.158 1045.57 -169.275" stroke="#000512" stroke-width="2"/>
<path d="M180.4 311.013L303.169 278.202C322.479 273.028 342.57 284.694 347.666 304.026L380.556 426.774C385.731 446.087 374.144 466.155 354.754 471.35L231.905 504.183C212.573 509.278 192.525 497.771 187.329 478.38L154.597 355.59C149.423 336.279 160.988 316.13 180.4 311.013" stroke="#000512" stroke-width="2"/>
<path d="M412.228 248.897L534.997 216.085C554.307 210.911 574.398 222.577 579.494 241.91L612.385 364.658C617.559 383.97 605.972 404.038 586.582 409.234L463.733 442.067C444.401 447.162 424.353 435.655 419.157 416.263L386.425 293.474C381.251 274.163 392.816 254.013 412.228 248.897" stroke="#000512" stroke-width="2"/>
<path d="M644.048 186.781L766.818 153.969C786.128 148.795 806.219 160.461 811.315 179.794L844.205 302.542C849.38 321.855 837.793 341.922 818.402 347.118L695.553 379.951C676.221 385.046 656.174 373.539 650.978 354.147L618.246 231.358C613.071 212.047 624.636 191.897 644.048 186.781" stroke="#000512" stroke-width="2"/>
<path d="M875.868 124.664L998.638 91.8523C1017.95 86.6782 1038.04 98.3442 1043.14 117.677L1076.03 240.425C1081.2 259.737 1069.61 279.805 1050.22 285.001L927.374 317.834C908.041 322.929 887.994 311.422 882.798 292.03L850.066 169.24C844.892 149.929 856.457 129.78 875.868 124.664" stroke="#000512" stroke-width="2"/>
<path d="M1107.69 62.5479L1230.46 29.7361C1249.77 24.562 1269.86 36.228 1274.96 55.5609L1307.85 178.308C1313.02 197.621 1301.43 217.689 1282.04 222.885L1159.19 255.718C1139.86 260.813 1119.81 249.305 1114.62 229.914L1081.89 107.124C1076.71 87.8133 1088.28 67.6641 1107.69 62.5479" stroke="#000512" stroke-width="2"/>
</g>
</svg>
