<svg width="36" height="36" viewBox="0 0 36 36" fill="none" xmlns="http://www.w3.org/2000/svg">
<g clip-path="url(#clip0_2200_30903)">
<path d="M14.265 28.0049C14.485 28.1649 14.715 28.2949 14.965 28.3749C15.235 28.4549 15.515 28.4949 15.785 28.4949C16.275 28.4949 16.745 28.3949 17.175 28.2049C17.645 27.9849 18.095 27.6749 18.525 27.2649C18.775 27.0149 19.085 26.6449 19.465 26.1549C19.845 25.6649 20.285 25.0449 20.775 24.3049L20.115 23.8949C19.925 24.1649 19.735 24.4449 19.545 24.7149C19.355 24.9849 19.135 25.2649 18.885 25.5349C18.665 25.7849 18.465 25.9749 18.275 26.1049C18.085 26.2449 17.915 26.3149 17.785 26.3149H17.575C17.575 26.3149 17.505 26.2649 17.455 26.2349C17.405 26.2049 17.355 26.1549 17.335 26.0749C17.305 25.9949 17.295 25.8949 17.295 25.7849C17.295 25.6749 17.305 25.5149 17.335 25.2949C17.385 25.0449 17.475 24.7449 17.585 24.3949C17.615 24.2549 17.655 24.0649 17.705 23.8249C17.785 23.5549 17.865 23.2249 17.955 22.8449L20.625 14.2349L19.315 14.4849C19.095 14.5349 18.795 14.5949 18.415 14.6449C18.035 14.6949 17.585 14.7549 17.065 14.8049C16.515 14.8549 16.035 14.9149 15.625 14.9649C15.215 14.9949 14.855 15.0149 14.555 15.0449V15.8649C14.915 15.8649 15.195 15.8949 15.415 15.9449C15.665 15.9749 15.835 15.9949 15.945 16.0249C16.085 16.0749 16.175 16.1749 16.235 16.3149C16.315 16.4249 16.355 16.5849 16.355 16.8049V16.9249C16.355 16.9249 16.345 16.9749 16.315 17.0049C16.315 17.0549 16.305 17.1049 16.275 17.1249V17.2449L14.105 24.0549C14.055 24.3049 13.995 24.5349 13.945 24.7549C13.895 24.9449 13.845 25.1149 13.825 25.2449C13.745 25.5149 13.685 25.7549 13.665 25.9449C13.635 26.1349 13.625 26.3049 13.625 26.4349C13.625 26.7649 13.675 27.0649 13.785 27.3349C13.895 27.5849 14.055 27.7949 14.275 27.9949L14.265 28.0049Z" fill="#FF5500"/>
<path d="M19.315 11.8849C19.915 11.8849 20.425 11.6649 20.835 11.2249C21.275 10.7849 21.495 10.2649 21.495 9.66486C21.495 9.06486 21.275 8.55486 20.835 8.14486C20.425 7.70486 19.915 7.48486 19.315 7.48486C18.715 7.48486 18.195 7.70486 17.755 8.14486C17.345 8.55486 17.145 9.06486 17.145 9.66486C17.145 10.2649 17.345 10.7849 17.755 11.2249C18.195 11.6649 18.715 11.8849 19.315 11.8849Z" fill="#FF5500"/>
<path d="M5.61486 30.3849C7.20486 31.9749 9.06486 33.2149 11.1949 34.1149C13.3249 35.0449 15.5949 35.5049 18.0049 35.5049C20.4149 35.5049 22.6849 35.0449 24.8149 34.1149C26.9449 33.2149 28.8049 31.9649 30.3949 30.3849C31.9849 28.7949 33.2249 26.9349 34.1249 24.8049C35.0549 22.6749 35.5249 20.4049 35.5249 17.9949C35.5249 15.5849 35.0549 13.3149 34.1249 11.1849C33.2249 9.05486 31.9749 7.19486 30.3949 5.60486C28.8149 4.01486 26.9449 2.77486 24.8149 1.87486C22.6849 0.944863 20.4149 0.484863 18.0049 0.484863C15.5949 0.484863 13.3249 0.944863 11.1949 1.87486C9.06486 2.77486 7.20486 4.02486 5.61486 5.60486C4.02486 7.18486 2.78486 9.05486 1.88486 11.1849C0.954863 13.3149 0.484863 15.5849 0.484863 17.9949C0.484863 20.4049 0.954863 22.6749 1.88486 24.8049C2.78486 26.9349 4.03486 28.7949 5.61486 30.3849ZM3.64486 11.9249C4.46486 10.0349 5.57486 8.39486 6.96486 7.00486C8.38486 5.58486 10.0449 4.46486 11.9249 3.64486C13.8149 2.85486 15.8349 2.45486 17.9949 2.45486C20.1549 2.45486 22.1749 2.85486 24.0649 3.64486C25.9549 4.46486 27.5949 5.58486 28.9849 7.00486C30.4049 8.39486 31.5249 10.0449 32.3449 11.9249C33.1349 13.8149 33.5349 15.8349 33.5349 17.9949C33.5349 20.1549 33.1349 22.1749 32.3449 24.0649C31.5249 25.9549 30.4049 27.6049 28.9849 29.0249C27.5949 30.4149 25.9549 31.5249 24.0649 32.3449C22.1749 33.1349 20.1549 33.5349 17.9949 33.5349C15.8349 33.5349 13.8149 33.1349 11.9249 32.3449C10.0349 31.5249 8.38486 30.4149 6.96486 29.0249C5.56486 27.6049 4.46486 25.9449 3.64486 24.0649C2.85486 22.1749 2.45486 20.1549 2.45486 17.9949C2.45486 15.8349 2.85486 13.8149 3.64486 11.9249Z" fill="#000512"/>
</g>
<defs>
<clipPath id="clip0_2200_30903">
<rect width="35.03" height="35.03" fill="white" transform="translate(0.484863 0.484863)"/>
</clipPath>
</defs>
</svg>
