<svg width="56" height="56" viewBox="0 0 56 56" fill="none" xmlns="http://www.w3.org/2000/svg">
<g clip-path="url(#clip0_2074_53227)">
<path d="M12.2449 39.3796H19.2549C19.7149 39.3796 20.1149 39.2196 20.4449 38.8896C20.8049 38.5296 20.9749 38.1096 20.9749 37.6196V30.6096C20.9749 30.1496 20.7949 29.7496 20.4449 29.4196C20.1149 29.0596 19.7249 28.8896 19.2549 28.8896H12.2449C11.7549 28.8896 11.3249 29.0696 10.9749 29.4196C10.6449 29.7496 10.4849 30.1396 10.4849 30.6096V37.6196C10.4849 38.1096 10.6449 38.5396 10.9749 38.8896C11.3249 39.2196 11.7549 39.3796 12.2449 39.3796ZM12.2449 30.5996H19.2549V37.6096H12.2449V30.5996Z" fill="#000512"/>
<path d="M43.7446 28.8799H36.7346C36.2646 28.8799 35.8546 29.0599 35.5046 29.4099C35.1746 29.7399 35.0146 30.1299 35.0146 30.5999V37.6099C35.0146 38.0999 35.1746 38.5299 35.5046 38.8799C35.8546 39.2099 36.2646 39.3699 36.7346 39.3699H43.7446C44.2346 39.3699 44.6446 39.2099 44.9746 38.8799C45.3346 38.5199 45.5046 38.0999 45.5046 37.6099V30.5999C45.5046 30.1399 45.3246 29.7399 44.9746 29.4099C44.6446 29.0499 44.2346 28.8799 43.7446 28.8799ZM43.7446 37.6199H36.7346V30.6099H43.7446V37.6199Z" fill="#000512"/>
<path d="M31.4849 39.3796C31.9749 39.3796 32.3849 39.2196 32.7149 38.8896C33.0649 38.5296 33.2449 38.1096 33.2449 37.6196V30.6096C33.2449 30.1496 33.0649 29.7496 32.7149 29.4196C32.3849 29.0596 31.9749 28.8896 31.4849 28.8896H24.5149C24.0249 28.8896 23.5949 29.0696 23.2449 29.4196C22.9149 29.7496 22.7549 30.1396 22.7549 30.6096V37.6196C22.7549 38.1096 22.9149 38.5396 23.2449 38.8896C23.6049 39.2196 24.0249 39.3796 24.5149 39.3796H31.4849ZM24.5149 30.5996H31.4849V37.6096H24.5149V30.5996Z" fill="#FF5500"/>
<path d="M44.6051 41.1001H11.3851C11.1351 41.1001 10.9251 41.2001 10.7251 41.3901C10.5651 41.5501 10.4751 41.7601 10.4751 42.0101C10.4751 42.2301 10.5551 42.4301 10.7251 42.6301C10.9151 42.7901 11.1351 42.8801 11.3851 42.8801H44.6051C44.8551 42.8801 45.0551 42.8001 45.2251 42.6301C45.4151 42.4401 45.5151 42.2301 45.5151 42.0101C45.5151 41.7601 45.4151 41.5601 45.2251 41.3901C45.0551 41.2001 44.8551 41.1001 44.6051 41.1001Z" fill="#000512"/>
<path d="M24.5149 23.6299H31.4849C31.9749 23.6299 32.3849 23.4699 32.7149 23.1399C33.0649 22.7799 33.2449 22.3599 33.2449 21.8699V14.8499C33.2449 14.3899 33.0649 13.9899 32.7149 13.6599C32.3849 13.2999 31.9749 13.1299 31.4849 13.1299H24.5149C24.0249 13.1299 23.5949 13.3099 23.2449 13.6599C22.9149 13.9899 22.7549 14.3799 22.7549 14.8499V21.8599C22.7549 22.3499 22.9149 22.7799 23.2449 23.1299C23.6049 23.4599 24.0249 23.6199 24.5149 23.6199V23.6299ZM24.5149 14.8499H31.4849V21.8599H24.5149V14.8499Z" fill="#FF5500"/>
<path d="M44.6051 25.3501H11.3851C11.1351 25.3501 10.9251 25.4501 10.7251 25.6401C10.5651 25.8001 10.4751 26.0101 10.4751 26.2601C10.4751 26.4801 10.5551 26.6801 10.7251 26.8801C10.9151 27.0401 11.1351 27.1301 11.3851 27.1301H44.6051C44.8551 27.1301 45.0551 27.0501 45.2251 26.8801C45.4151 26.6901 45.5151 26.4801 45.5151 26.2601C45.5151 26.0101 45.4151 25.8101 45.2251 25.6401C45.0551 25.4501 44.8551 25.3501 44.6051 25.3501Z" fill="#000512"/>
<path d="M12.2449 23.6299H19.2549C19.7149 23.6299 20.1149 23.4699 20.4449 23.1399C20.8049 22.7799 20.9749 22.3599 20.9749 21.8699V14.8499C20.9749 14.3899 20.7949 13.9899 20.4449 13.6599C20.1149 13.2999 19.7249 13.1299 19.2549 13.1299H12.2449C11.7549 13.1299 11.3349 13.3099 10.9749 13.6599C10.6449 13.9899 10.4849 14.3799 10.4849 14.8499V21.8599C10.4849 22.3499 10.6449 22.7799 10.9749 23.1299C11.3249 23.4599 11.7549 23.6199 12.2449 23.6199V23.6299ZM12.2449 14.8499H19.2549V21.8599H12.2449V14.8499Z" fill="#000512"/>
<path d="M44.9746 13.6599C44.6446 13.2999 44.2346 13.1299 43.7446 13.1299H36.7346C36.2646 13.1299 35.8546 13.3099 35.5046 13.6599C35.1746 13.9899 35.0146 14.3799 35.0146 14.8499V21.8599C35.0146 22.3499 35.1746 22.7799 35.5046 23.1299C35.8546 23.4599 36.2646 23.6199 36.7346 23.6199H43.7446C44.2346 23.6199 44.6446 23.4599 44.9746 23.1299C45.3346 22.7699 45.5046 22.3499 45.5046 21.8599V14.8499C45.5046 14.3899 45.3246 13.9899 44.9746 13.6599ZM43.7446 21.8599H36.7346V14.8499H43.7446V21.8599Z" fill="#000512"/>
</g>
<defs>
<clipPath id="clip0_2074_53227">
<rect width="35.03" height="29.74" fill="white" transform="translate(10.4849 13.1299)"/>
</clipPath>
</defs>
</svg>
