<svg width="34" height="34" viewBox="0 0 34 34" fill="none" xmlns="http://www.w3.org/2000/svg">
<g clip-path="url(#clip0_2953_306)">
<path d="M17.0204 17.8801H27.5204C27.7404 17.8801 27.9304 17.8001 28.0904 17.6301C28.2804 17.4401 28.3804 17.2201 28.3804 16.9701C28.3804 16.7501 28.2804 16.5601 28.0904 16.4001C27.9304 16.2101 27.7304 16.1101 27.5204 16.1101H17.8804V6.48012C17.8804 6.26012 17.7804 6.07012 17.5904 5.91012C17.4304 5.72012 17.2304 5.62012 17.0204 5.62012C16.7704 5.62012 16.5504 5.72012 16.3604 5.91012C16.2004 6.07012 16.1104 6.27012 16.1104 6.48012V16.9801C16.1104 17.2301 16.1904 17.4401 16.3604 17.6401C16.5504 17.8001 16.7704 17.8901 17.0204 17.8901V17.8801Z" fill="#FF5500"/>
<path d="M5.25012 28.7501C6.75012 30.2501 8.52012 31.4401 10.5401 32.3201C12.5601 33.2001 14.7201 33.6301 17.0201 33.6301C19.3201 33.6301 21.4601 33.1901 23.4601 32.3201C25.4801 31.4401 27.2501 30.2601 28.7501 28.7501C30.2501 27.2501 31.4401 25.4801 32.3201 23.4601C33.2001 21.4401 33.6301 19.2801 33.6301 16.9801C33.6301 14.6801 33.1901 12.5401 32.3201 10.5401C31.4401 8.52012 30.2601 6.75012 28.7501 5.25012C27.2501 3.75012 25.4801 2.56012 23.4601 1.68012C21.4601 0.800117 19.3201 0.370117 17.0201 0.370117C14.7201 0.370117 12.5601 0.810117 10.5401 1.68012C8.52012 2.56012 6.75012 3.74012 5.25012 5.25012C3.75012 6.75012 2.56012 8.52012 1.68012 10.5401C0.800117 12.5401 0.370117 14.6801 0.370117 16.9801C0.370117 19.2801 0.810117 21.4401 1.68012 23.4601C2.56012 25.4801 3.74012 27.2501 5.25012 28.7501ZM2.42012 14.0701C2.61012 13.0901 2.90012 12.1301 3.28012 11.2001C3.66012 10.3201 4.11012 9.49012 4.63012 8.70012C5.18012 7.91012 5.79012 7.17012 6.47012 6.49012C7.15012 5.81012 7.89012 5.20012 8.68012 4.69012C9.47012 4.14012 10.3201 3.68012 11.2201 3.30012C12.1201 2.92012 13.0501 2.63012 14.0101 2.44012C14.9901 2.25012 15.9901 2.15012 17.0001 2.15012C18.0101 2.15012 18.9601 2.25012 19.9101 2.44012C20.8901 2.63012 21.8501 2.92012 22.7801 3.30012C23.6601 3.68012 24.4901 4.15012 25.2801 4.69012C26.0701 5.21012 26.8101 5.81012 27.5001 6.49012C28.1801 7.17012 28.7801 7.91012 29.3001 8.70012C29.8501 9.49012 30.3101 10.3301 30.7001 11.2001C31.0801 12.1301 31.3701 13.0901 31.5601 14.0701C31.7501 15.0301 31.8501 16.0001 31.8501 16.9801C31.8501 17.9601 31.7501 18.9901 31.5601 19.9701C31.3701 20.9301 31.0801 21.8601 30.7001 22.7601C30.3201 23.6601 29.8501 24.5101 29.3001 25.3001C28.7801 26.0901 28.1801 26.8301 27.5001 27.5101C26.8201 28.1901 26.0801 28.8101 25.2801 29.3601C24.4901 29.8801 23.6501 30.3301 22.7801 30.7101C21.8501 31.0901 20.8901 31.3801 19.9101 31.5701C18.9501 31.7601 17.9801 31.8601 17.0001 31.8601C16.0201 31.8601 14.9901 31.7601 14.0101 31.5701C13.0501 31.3801 12.1201 31.0901 11.2201 30.7101C10.3201 30.3301 9.47012 29.8801 8.68012 29.3601C7.89012 28.8101 7.15012 28.2001 6.47012 27.5101C5.79012 26.8301 5.17012 26.0901 4.63012 25.3001C4.11012 24.5101 3.66012 23.6601 3.28012 22.7601C2.90012 21.8601 2.61012 20.9301 2.42012 19.9701C2.23012 18.9901 2.13012 17.9901 2.13012 16.9801C2.13012 15.9701 2.23012 15.0201 2.42012 14.0701Z" fill="#000512"/>
</g>
<defs>
<clipPath id="clip0_2953_306">
<rect width="33.26" height="33.26" fill="white" transform="translate(0.370117 0.370117)"/>
</clipPath>
</defs>
</svg>
