<svg width="56" height="56" viewBox="0 0 56 56" fill="none" xmlns="http://www.w3.org/2000/svg">
<g clip-path="url(#clip0_2070_53545)">
<path d="M28.0204 28.8801H38.5204C38.7404 28.8801 38.9304 28.8001 39.0904 28.6301C39.2804 28.4401 39.3804 28.2201 39.3804 27.9701C39.3804 27.7501 39.2804 27.5601 39.0904 27.4001C38.9304 27.2101 38.7304 27.1101 38.5204 27.1101H28.8804V17.4801C28.8804 17.2601 28.7804 17.0701 28.5904 16.9101C28.4304 16.7201 28.2304 16.6201 28.0204 16.6201C27.7704 16.6201 27.5504 16.7201 27.3604 16.9101C27.2004 17.0701 27.1104 17.2701 27.1104 17.4801V27.9801C27.1104 28.2301 27.1904 28.4401 27.3604 28.6401C27.5504 28.8001 27.7704 28.8901 28.0204 28.8901V28.8801Z" fill="#FF5500"/>
<path d="M16.2501 39.7501C17.7501 41.2501 19.5201 42.4401 21.5401 43.3201C23.5601 44.2001 25.7201 44.6301 28.0201 44.6301C30.3201 44.6301 32.4601 44.1901 34.4601 43.3201C36.4801 42.4401 38.2501 41.2601 39.7501 39.7501C41.2501 38.2501 42.4401 36.4801 43.3201 34.4601C44.2001 32.4401 44.6301 30.2801 44.6301 27.9801C44.6301 25.6801 44.1901 23.5401 43.3201 21.5401C42.4401 19.5201 41.2601 17.7501 39.7501 16.2501C38.2501 14.7501 36.4801 13.5601 34.4601 12.6801C32.4601 11.8001 30.3201 11.3701 28.0201 11.3701C25.7201 11.3701 23.5601 11.8101 21.5401 12.6801C19.5201 13.5601 17.7501 14.7401 16.2501 16.2501C14.7501 17.7501 13.5601 19.5201 12.6801 21.5401C11.8001 23.5401 11.3701 25.6801 11.3701 27.9801C11.3701 30.2801 11.8101 32.4401 12.6801 34.4601C13.5601 36.4801 14.7401 38.2501 16.2501 39.7501ZM13.4201 25.0701C13.6101 24.0901 13.9001 23.1301 14.2801 22.2001C14.6601 21.3201 15.1101 20.4901 15.6301 19.7001C16.1801 18.9101 16.7901 18.1701 17.4701 17.4901C18.1501 16.8101 18.8901 16.2001 19.6801 15.6901C20.4701 15.1401 21.3201 14.6801 22.2201 14.3001C23.1201 13.9201 24.0501 13.6301 25.0101 13.4401C25.9901 13.2501 26.9901 13.1501 28.0001 13.1501C29.0101 13.1501 29.9601 13.2501 30.9101 13.4401C31.8901 13.6301 32.8501 13.9201 33.7801 14.3001C34.6601 14.6801 35.4901 15.1501 36.2801 15.6901C37.0701 16.2101 37.8101 16.8101 38.5001 17.4901C39.1801 18.1701 39.7801 18.9101 40.3001 19.7001C40.8501 20.4901 41.3101 21.3301 41.7001 22.2001C42.0801 23.1301 42.3701 24.0901 42.5601 25.0701C42.7501 26.0301 42.8501 27.0001 42.8501 27.9801C42.8501 28.9601 42.7501 29.9901 42.5601 30.9701C42.3701 31.9301 42.0801 32.8601 41.7001 33.7601C41.3201 34.6601 40.8501 35.5101 40.3001 36.3001C39.7801 37.0901 39.1801 37.8301 38.5001 38.5101C37.8201 39.1901 37.0801 39.8101 36.2801 40.3601C35.4901 40.8801 34.6501 41.3301 33.7801 41.7101C32.8501 42.0901 31.8901 42.3801 30.9101 42.5701C29.9501 42.7601 28.9801 42.8601 28.0001 42.8601C27.0201 42.8601 25.9901 42.7601 25.0101 42.5701C24.0501 42.3801 23.1201 42.0901 22.2201 41.7101C21.3201 41.3301 20.4701 40.8801 19.6801 40.3601C18.8901 39.8101 18.1501 39.2001 17.4701 38.5101C16.7901 37.8301 16.1701 37.0901 15.6301 36.3001C15.1101 35.5101 14.6601 34.6601 14.2801 33.7601C13.9001 32.8601 13.6101 31.9301 13.4201 30.9701C13.2301 29.9901 13.1301 28.9901 13.1301 27.9801C13.1301 26.9701 13.2301 26.0201 13.4201 25.0701Z" fill="#000512"/>
</g>
<defs>
<clipPath id="clip0_2070_53545">
<rect width="33.26" height="33.26" fill="white" transform="translate(11.3701 11.3701)"/>
</clipPath>
</defs>
</svg>
