<svg width="48" height="48" viewBox="0 0 48 48" fill="none" xmlns="http://www.w3.org/2000/svg">
<g clip-path="url(#clip0_2021_12240)">
<path d="M14.6651 16.4402C14.7851 16.4902 14.8951 16.5102 15.0151 16.5102C15.0851 16.5102 15.1551 16.5002 15.2251 16.4702C15.2951 16.4502 15.3651 16.4102 15.4351 16.3602L23.2451 11.1702V30.7502C23.2451 30.9602 23.3151 31.1402 23.4551 31.2802C23.6151 31.4202 23.8051 31.4902 24.0151 31.4902C24.2051 31.4902 24.3651 31.4202 24.5051 31.2802C24.6651 31.1402 24.7551 30.9602 24.7551 30.7502V11.1702L32.5951 16.3702C32.6651 16.4202 32.7351 16.4502 32.8051 16.4802C32.8751 16.5002 32.9451 16.5202 33.0151 16.5202C33.1351 16.5202 33.2351 16.5002 33.3351 16.4502C33.4551 16.3802 33.5451 16.3002 33.6151 16.2002C33.7351 16.0102 33.7651 15.8302 33.7251 15.6402C33.7051 15.4302 33.6051 15.2602 33.4451 15.1502L24.4451 9.13023H24.4051V9.09023H24.3351V9.05023H24.2351V9.03023H24.0951V8.99023H23.9151V9.03023H23.7751V9.07023H23.7051C23.7051 9.07023 23.6951 9.08023 23.6751 9.11023H23.6351C23.6351 9.11023 23.6251 9.12023 23.6051 9.15023L14.5951 15.1402C14.4051 15.2602 14.2951 15.4202 14.2451 15.6302C14.2251 15.8202 14.2651 15.9902 14.3851 16.1602C14.4551 16.2802 14.5451 16.3702 14.6651 16.4402Z" fill="#FF5500"/>
<path d="M37.4451 31.4901C37.2351 31.5101 37.0551 31.6102 36.9151 31.7702C36.7951 31.9102 36.7351 32.0702 36.7351 32.2602V37.5002H11.2551V32.2602C11.2551 32.0702 11.1851 31.9102 11.0451 31.7702C10.9251 31.6102 10.7751 31.5101 10.5851 31.4901C10.3551 31.4701 10.1551 31.5401 9.98511 31.7001C9.82511 31.8401 9.73511 32.0302 9.73511 32.2602V37.5002C9.73511 37.9202 9.87511 38.2701 10.1551 38.5501C10.4551 38.8501 10.8251 39.0102 11.2451 39.0102H36.7451C37.1651 39.0102 37.5151 38.8601 37.7951 38.5501C38.0951 38.2701 38.2551 37.9202 38.2551 37.5002V32.2602C38.2551 32.0302 38.1751 31.8401 38.0051 31.7001C37.8451 31.5401 37.6551 31.4701 37.4451 31.4901Z" fill="#000512"/>
</g>
<defs>
<clipPath id="clip0_2021_12240">
<rect width="28.51" height="30.02" fill="white" transform="translate(9.74512 8.99023)"/>
</clipPath>
</defs>
</svg>
