<svg width="36" height="36" viewBox="0 0 36 36" fill="none" xmlns="http://www.w3.org/2000/svg">
<g clip-path="url(#clip0_2200_18167)">
<path fill-rule="evenodd" clip-rule="evenodd" d="M6.44009 28.219H8.35753V14.207H6.44009V28.219ZM9.46374 30.4315H5.27857C4.6425 30.4315 4.17236 29.9245 4.17236 29.2976V13.1285C4.17236 12.5016 4.63328 11.9946 5.27857 11.9946H9.46374C10.0998 11.9946 10.6253 12.5016 10.6253 13.1285V29.2976C10.6253 29.9245 10.0998 30.4315 9.46374 30.4315Z" fill="#000512"/>
<path fill-rule="evenodd" clip-rule="evenodd" d="M26.7204 28.219H28.6378V14.207H26.7204V28.219ZM29.7993 30.4315H25.5588C24.9781 30.4315 24.4526 29.9245 24.4526 29.2976V13.1285C24.4526 12.5016 24.9781 11.9946 25.5588 11.9946H29.7993C30.4354 11.9946 30.9055 12.5016 30.9055 13.1285V29.2976C30.9055 29.9245 30.4446 30.4315 29.7993 30.4315Z" fill="#000512"/>
<path fill-rule="evenodd" clip-rule="evenodd" d="M2.75259 32.9385H33.3117V30.68H2.75259V32.9385ZM34.4087 35.0403H1.64638C1.01031 35.0403 0.484863 34.5609 0.484863 34.0171V29.6106C0.484863 29.076 1.01031 28.5874 1.64638 28.5874H34.4087C35.0447 28.5874 35.5149 29.076 35.5149 29.6106V34.0171C35.5149 34.5517 35.0539 35.0403 34.4087 35.0403Z" fill="#000512"/>
<path fill-rule="evenodd" clip-rule="evenodd" d="M2.73416 11.5428H33.2656V10.3998L18.0828 3.40298L2.73416 10.4551V11.5428ZM34.4179 13.8382H1.63717C1.00109 13.8382 0.484863 13.3589 0.484863 12.6951V9.68073C0.484863 9.25668 0.770634 8.83263 1.17624 8.59295L17.6219 1.05228C17.9077 0.932442 18.2027 0.932442 18.4884 1.05228L34.8788 8.59295C35.2844 8.77732 35.5149 9.19215 35.5149 9.68073V12.6951C35.5149 13.3589 35.0539 13.8382 34.4179 13.8382Z" fill="#000512"/>
<path fill-rule="evenodd" clip-rule="evenodd" d="M18.4609 23.508C18.7282 23.4527 18.9402 23.296 19.1062 23.0748C19.3182 22.8627 19.3735 22.6415 19.3735 22.3742C19.3735 22.1068 19.3182 21.8948 19.1615 21.6736C19.0048 21.5168 18.7835 21.3509 18.4609 21.2403V23.4896V23.508ZM17.6036 17.4423C17.3915 17.5529 17.2256 17.6543 17.0689 17.8756C16.9583 18.0323 16.9122 18.2535 16.9122 18.4655C16.9122 18.6223 16.9675 18.8435 17.0689 19.0002C17.1795 19.1569 17.3915 19.3229 17.6036 19.4335V17.4515V17.4423ZM17.6036 23.3974V21.0375C16.8477 20.8255 16.313 20.5028 15.9903 20.0696C15.6677 19.6363 15.4557 19.1016 15.4557 18.5116C15.4557 17.8663 15.6677 17.387 16.0457 16.9537C16.4236 16.5205 16.9583 16.3084 17.6036 16.207V15.6724H18.4609V16.207C19.0509 16.3177 19.5394 16.5297 19.8529 16.8523C20.2308 17.175 20.4428 17.6543 20.5535 18.1982L19.1062 18.4102C19.0509 17.9309 18.7835 17.6635 18.4609 17.4976V19.7008C19.3182 19.9681 19.9635 20.2355 20.2861 20.6687C20.6088 21.0467 20.7655 21.5261 20.7655 22.1714C20.7655 22.8166 20.5535 23.4066 20.1755 23.886C19.7422 24.3653 19.1523 24.6327 18.4609 24.7433V25.8126H17.6036V24.7433C16.9583 24.688 16.4236 24.4206 16.0457 24.0427C15.6124 23.6094 15.3451 23.0748 15.2437 22.3281L16.7463 22.1714C16.8016 22.4387 16.903 22.706 17.0689 22.918C17.2256 23.1301 17.3915 23.296 17.6036 23.3974Z" fill="#FF5500"/>
</g>
<defs>
<clipPath id="clip0_2200_18167">
<rect width="35.03" height="34.0805" fill="white" transform="translate(0.484863 0.959961)"/>
</clipPath>
</defs>
</svg>
