<svg width="28" height="36" viewBox="0 0 28 36" fill="none" xmlns="http://www.w3.org/2000/svg">
<g clip-path="url(#clip0_2200_19017)">
<path d="M13.9952 5.73486C12.2952 5.73486 10.8452 6.33486 9.64522 7.53486C8.44522 8.73486 7.84521 10.1849 7.84521 11.8849C7.84521 13.5849 8.44522 15.0249 9.64522 16.2349C10.8452 17.4149 12.2952 17.9949 13.9952 17.9949C15.6952 17.9949 17.1252 17.4049 18.3052 16.2349C19.5052 15.0349 20.1052 13.5849 20.1052 11.8849C20.1052 10.1849 19.5052 8.74486 18.3052 7.53486C17.1252 6.33486 15.6952 5.73486 13.9952 5.73486ZM17.0752 14.9649C16.2252 15.8149 15.2052 16.2349 13.9952 16.2349C12.7852 16.2349 11.7552 15.8149 10.8752 14.9649C10.0252 14.1149 9.60521 13.0949 9.60521 11.8849C9.60521 10.6749 10.0252 9.65486 10.8752 8.80486C11.7552 7.92486 12.7852 7.49486 13.9952 7.49486C15.2052 7.49486 16.2252 7.93486 17.0752 8.80486C17.9252 9.65486 18.3452 10.6749 18.3452 11.8849C18.3452 13.0949 17.9252 14.1149 17.0752 14.9649Z" fill="#FF5500"/>
<path d="M23.275 4.2951C22.095 3.1151 20.705 2.1851 19.095 1.5051C17.505 0.825098 15.815 0.475098 14.005 0.475098C12.195 0.475098 10.465 0.815098 8.875 1.5051C7.285 2.1951 5.895 3.1151 4.695 4.2951C3.525 5.4451 2.585 6.8151 1.905 8.3951C1.225 9.9551 0.875 11.6351 0.875 13.4351C0.875 15.2351 1.555 17.3551 2.925 19.8751C4.295 22.3951 5.795 24.8151 7.435 27.1351C9.075 29.4351 10.575 31.4051 11.945 33.0451C13.315 34.6851 13.995 35.5051 13.995 35.5051C13.995 35.5051 14.675 34.6851 16.045 33.0451C17.415 31.4051 18.915 29.4351 20.555 27.1351C22.195 24.8151 23.705 22.3951 25.065 19.8751C26.435 17.3551 27.115 15.2151 27.115 13.4351C27.115 11.6551 26.775 9.9451 26.095 8.3951C25.385 6.8051 24.435 5.4451 23.265 4.2951H23.275ZM24.995 15.4551C24.775 16.3551 24.285 17.5651 23.515 19.0651C22.995 20.1051 22.365 21.2151 21.625 22.3851C20.885 23.5651 20.055 24.8051 19.125 26.1151C18.165 27.4851 17.225 28.7551 16.295 29.9251C15.365 31.0751 14.595 32.0351 13.995 32.7951C13.365 32.0251 12.585 31.0751 11.655 29.9251C10.755 28.7451 9.805 27.4751 8.825 26.1151C7.925 24.8051 7.105 23.5551 6.365 22.3851C5.625 21.2051 4.995 20.1151 4.475 19.1051C3.705 17.6051 3.205 16.3951 2.955 15.4951C2.705 14.5651 2.585 13.8851 2.585 13.4451C2.585 12.6751 2.655 11.9451 2.785 11.2351C2.945 10.4951 3.185 9.7851 3.485 9.1051C3.755 8.4251 4.095 7.7951 4.515 7.2151C4.925 6.6151 5.395 6.0551 5.905 5.5351C6.425 5.0151 6.985 4.5651 7.585 4.1851C8.215 3.7751 8.875 3.4351 9.555 3.1551C10.235 2.8551 10.955 2.6351 11.685 2.4951C12.455 2.3351 13.215 2.2451 13.985 2.2451C14.755 2.2451 15.505 2.3251 16.245 2.4951C16.985 2.6351 17.705 2.8351 18.415 3.1151C19.095 3.4151 19.745 3.7751 20.345 4.1851C20.945 4.5651 21.505 5.0151 22.025 5.5351C22.545 6.0551 23.005 6.6151 23.425 7.2151C23.835 7.7851 24.175 8.4151 24.445 9.1051C24.745 9.7851 24.965 10.4951 25.105 11.2351C25.265 11.9451 25.355 12.6751 25.355 13.4051C25.355 13.8651 25.235 14.5551 24.985 15.4551H24.995Z" fill="#000512"/>
</g>
<defs>
<clipPath id="clip0_2200_19017">
<rect width="26.25" height="35.03" fill="white" transform="translate(0.875 0.484863)"/>
</clipPath>
</defs>
</svg>
